<svg width="105" height="32" fill="none" xmlns="http://www.w3.org/2000/svg"><g clip-path="url(#clip0)" fill-rule="evenodd" clip-rule="evenodd" fill="#A4AEB6"><path d="M65.105 25.024C59.013 29.58 50.18 32 42.575 32c-10.66 0-20.259-3.993-27.523-10.635-.569-.521-.062-1.234.623-.83 7.837 4.62 17.528 7.402 27.538 7.402 6.752 0 14.175-1.42 21.005-4.355 1.032-.443 1.896.686.887 1.442z"/><path d="M67.678 22.173c-.782-1.013-5.158-.48-7.123-.24-.595.074-.688-.455-.151-.84 3.491-2.488 9.213-1.77 9.88-.936.67.84-.177 6.663-3.45 9.442-.504.427-.98.2-.759-.364.734-1.868 2.385-6.046 1.603-7.062zM60.692 3.508V1.092c.004-.37.274-.616.604-.614L71.979.476a.6.6 0 01.616.61V3.16c-.004.347-.294.802-.805 1.523l-5.533 8.018c2.053-.05 4.227.264 6.093 1.326.42.241.534.596.567.945v2.581c0 .355-.384.768-.788.553-3.286-1.748-7.65-1.938-11.285.021-.37.2-.76-.206-.76-.56v-2.454c0-.392.007-1.064.397-1.662l6.411-9.332H61.31a.601.601 0 01-.618-.612zM21.727 18.616h-3.249a.618.618 0 01-.58-.556L17.9 1.133c0-.34.28-.61.628-.61l3.027-.002c.317.016.57.259.59.569v2.208h.061c.788-2.136 2.275-3.133 4.278-3.133 2.033 0 3.308.997 4.215 3.133.79-2.136 2.578-3.133 4.492-3.133 1.365 0 2.85.57 3.76 1.852 1.033 1.426.82 3.49.82 5.307l-.003 10.683c0 .337-.28.607-.628.607h-3.246a.614.614 0 01-.582-.607l-.002-8.976c0-.712.062-2.493-.09-3.17-.243-1.14-.97-1.46-1.91-1.46-.788 0-1.607.534-1.94 1.388-.335.857-.304 2.28-.304 3.242v8.974c0 .337-.28.607-.628.607h-3.244a.614.614 0 01-.583-.607l-.004-8.976c0-1.887.302-4.665-2.002-4.665-2.337 0-2.244 2.707-2.244 4.665l-.002 8.974a.626.626 0 01-.633.613zM81.82 3.62c-2.396 0-2.549 3.312-2.549 5.378 0 2.065-.03 6.483 2.518 6.483 2.519 0 2.64-3.563 2.64-5.735 0-1.425-.062-3.134-.486-4.488-.365-1.176-1.093-1.638-2.123-1.638zM81.79.165c4.823 0 7.432 4.203 7.432 9.546 0 5.164-2.881 9.26-7.433 9.26-4.73 0-7.31-4.204-7.31-9.438C74.477 4.26 77.087.165 81.79.165zm13.687 18.451H92.24a.615.615 0 01-.584-.607l-.004-16.933a.616.616 0 01.624-.553l3.015-.002a.621.621 0 01.577.475v2.588h.062c.91-2.316 2.184-3.42 4.428-3.42 1.456 0 2.881.536 3.792 1.996.85 1.352.85 3.631.85 5.272v10.65a.62.62 0 01-.624.532h-3.257a.614.614 0 01-.578-.533v-9.19c0-1.851.213-4.558-2.033-4.558-.79 0-1.518.533-1.881 1.352-.454 1.033-.516 2.066-.516 3.207v9.115a.628.628 0 01-.633.61zm-40.025-.043a.664.664 0 01-.769.077c-1.08-.91-1.273-1.331-1.863-2.197-1.783 1.844-3.046 2.396-5.357 2.396-2.737 0-4.865-1.712-4.865-5.14 0-2.677 1.431-4.498 3.467-5.39 1.763-.785 4.227-.929 6.111-1.142v-.43c0-.785.062-1.712-.395-2.39-.396-.608-1.155-.859-1.825-.859-1.238 0-2.34.645-2.613 1.982-.056.298-.27.591-.564.607l-3.15-.347c-.266-.062-.561-.276-.484-.69C43.87 1.172 47.32 0 50.413 0c1.581 0 3.647.427 4.895 1.642 1.581 1.5 1.429 3.499 1.429 5.676v5.139c0 1.546.633 2.224 1.226 3.055.209.3.255.657-.01.876-.664.564-1.842 1.603-2.49 2.19l-.01-.005zm-3.276-8.041c0 1.286.031 2.356-.608 3.498-.517.93-1.338 1.5-2.25 1.5-1.245 0-1.975-.965-1.975-2.393 0-2.809 2.483-3.318 4.834-3.318v.713zm-39.324 8.041a.664.664 0 01-.768.077c-1.08-.91-1.273-1.331-1.864-2.197-1.784 1.844-3.047 2.396-5.357 2.396C2.126 18.85 0 17.137 0 13.71c0-2.677 1.429-4.498 3.466-5.39 1.763-.785 4.225-.929 6.11-1.142v-.43c0-.785.062-1.712-.396-2.39-.396-.608-1.154-.859-1.823-.859-1.24 0-2.342.645-2.612 1.982-.056.298-.27.591-.564.607L1.03 5.74c-.265-.062-.56-.276-.485-.69C1.269 1.172 4.72.002 7.813.002c1.582 0 3.648.427 4.895 1.642 1.582 1.5 1.43 3.499 1.43 5.676v5.139c0 1.546.633 2.224 1.226 3.055.208.3.254.656-.01.876-.664.564-1.844 1.603-2.493 2.189l-.008-.006zm-3.277-8.041c0 1.286.031 2.356-.608 3.498-.516.93-1.336 1.5-2.25 1.5-1.245 0-1.975-.965-1.975-2.393 0-2.809 2.483-3.318 4.833-3.318v.713z"/></g><defs><clipPath id="clip0"><path fill="#fff" d="M0 0h105v32H0z"/></clipPath></defs></svg>