<svg width="68" height="68" fill="none" xmlns="http://www.w3.org/2000/svg"><path d="M51.548 37.29c-6.651 0-12.064-5.412-12.064-12.064S44.897 13.16 51.548 13.16c6.652 0 12.065 5.413 12.065 12.065 0 6.652-5.413 12.064-12.065 12.064z" fill="#FFCF27"/><path d="M52.645 62.516a1.097 1.097 0 11-2.194 0 1.097 1.097 0 012.194 0z" fill="#333"/><path d="M21.936 54.839H4.387V39.484h17.549v15.355zm0-20.839H4.387V18.645h17.549V34z" fill="#C3DBEF"/><path d="M68 25.226c0-8.702-6.794-15.828-15.355-16.396V0H0v59.226h46.065v3.29A5.49 5.49 0 0051.547 68a5.49 5.49 0 005.484-5.484V46.065H54.84v-4.718C62.339 39.816 68 33.17 68 25.226zm-2.194 0c0 7.861-6.396 14.258-14.258 14.258-7.861 0-14.258-6.397-14.258-14.258 0-7.862 6.397-14.258 14.258-14.258 7.862 0 14.258 6.396 14.258 14.258zM46.065 46.065v10.967H2.194V2.194h48.258V8.83c-8.56.568-15.355 7.694-15.355 16.396 0 7.945 5.661 14.592 13.161 16.12v4.719h-2.194zm8.774 16.451a3.295 3.295 0 01-3.29 3.29 3.295 3.295 0 01-3.29-3.29V48.258h6.58v14.258zm-2.194-16.451h-2.193v-4.443c.364.024.726.055 1.096.055.371 0 .733-.031 1.097-.055v4.443z" fill="#333"/><path d="M47.77 27.604l-1.218 1.825 4.325 2.882 6.04-12.079-1.963-.98-4.928 9.856-2.256-1.504zM12.779 47.421l-2.132-2.132-1.551 1.551 4.448 4.449 6.113-14.673-2.024-.844L12.78 47.42zm0-20.839l-2.132-2.132-1.551 1.551 4.448 4.449 6.113-14.673-2.024-.844-4.854 11.65zM30.71 8.774h2.193v2.194h-2.194V8.774zm-26.323 0h24.13v2.194H4.386V8.774zm19.742 30.71H37.29v2.193H24.13v-2.193zm0 4.387H37.29v2.194H24.13V43.87zm0 4.387H37.29v2.194H24.13v-2.194zm0 4.387H37.29v2.194H24.13v-2.194zm0-34h8.774v2.194H24.13v-2.194zm0 4.387h8.774v2.194H24.13v-2.194zm0 4.388h8.774v2.193H24.13v-2.194zm0 4.386h8.774V34H24.13v-2.194zM4.387 4.387h28.516v2.194H4.387V4.387z" fill="#333"/></svg>