<svg width="89" height="27" fill="none" xmlns="http://www.w3.org/2000/svg"><path fill-rule="evenodd" clip-rule="evenodd" d="M87.692 26.339V.66H60.916v25.68h26.776zM81.59 8.036c-2.063-1.186-4.126-1.8-6.058-1.8-2.062 0-3.775.658-5.09 1.975-1.362 1.273-2.063 2.853-2.063 4.828 0 1.887.701 3.511 2.019 4.829 1.404 1.228 3.072 1.843 5.091 1.843 2.15 0 4.258-.658 6.32-1.976v2.766c-1.931 1.053-4.082 1.58-6.452 1.58-2.02 0-3.687-.395-5.092-1.185a9.854 9.854 0 01-3.292-3.292c-.79-1.492-1.229-2.984-1.229-4.565 0-2.633.922-4.784 2.81-6.54 1.843-1.756 4.126-2.678 6.803-2.678 1.931 0 3.994.483 6.232 1.493v2.722zM57.932.66H31.157v25.68h26.775V.66zM39.365 4.48h4.653c1.492 0 2.634.175 3.467.57.834.44 1.448.966 1.844 1.625.438.702.658 1.492.658 2.414 0 1.755-.878 2.984-2.722 3.73 1.317.22 2.37.747 3.117 1.625.746.79 1.098 1.8 1.14 2.94-.042.879-.262 1.712-.7 2.415-.484.702-1.143 1.273-2.064 1.756-.922.439-2.02.658-3.38.658h-6.013V4.48z" fill="#A4AEB6"/><path fill-rule="evenodd" clip-rule="evenodd" d="M43.578 12.074c1.36 0 2.327-.263 2.897-.746.571-.571.878-1.23.878-2.063 0-1.668-1.097-2.546-3.248-2.546H41.91v5.355h1.667zm.703 2.282h-2.37v5.574h2.546c1.184 0 2.15-.087 2.764-.263.571-.308.966-.659 1.23-1.053.263-.44.439-.922.439-1.449-.045-.527-.176-1.01-.484-1.448-.263-.484-.702-.835-1.317-1.054-.57-.22-1.535-.35-2.808-.307zM28.084.661H1.309V26.34h26.775V.66zM9.474 22.213V4.48h4.652c1.492 0 2.59.175 3.424.57.834.395 1.492.966 1.887 1.668.439.659.659 1.449.703 2.37-.044 1.756-.922 2.985-2.766 3.775 1.361.22 2.37.746 3.117 1.58.746.79 1.141 1.8 1.141 2.94 0 .922-.219 1.757-.702 2.415-.483.746-1.141 1.317-2.02 1.756-.92.439-2.062.658-3.423.658H9.473z" fill="#A4AEB6"/><path fill-rule="evenodd" clip-rule="evenodd" d="M14.214 6.719h-2.195v5.355h1.712c1.316 0 2.282-.264 2.853-.746.57-.527.878-1.23.878-2.02 0-1.712-1.098-2.59-3.248-2.59zm.175 7.637h-2.37v5.574h2.502c1.316 0 2.282-.087 2.853-.263a2.82 2.82 0 001.184-.966c.264-.483.396-.966.44-1.536-.044-.615-.22-1.097-.483-1.448a2.346 2.346 0 00-1.317-1.01c-.614-.263-1.58-.351-2.809-.351z" fill="#A4AEB6"/></svg>