<svg width="68" height="68" fill="none" xmlns="http://www.w3.org/2000/svg"><g clip-path="url(#clip0)"><circle cx="39" cy="39" r="3" fill="#F8FBFD"/><circle cx="25" cy="25" r="20" fill="#C3DBEF"/><path d="M52.69 58.54l-4.432-3.701-4.43 3.7 2.078 2.081-2.035 6.283h8.774l-2.034-6.283 2.078-2.08z" fill="#FFCF27"/><path d="M39.18 23.04l.247-.098.165-.208a11.126 11.126 0 018.666-4.186c6.705 0 12.161 5.456 12.161 12.162v6.14a4.283 4.283 0 00-3.387-1.657h-.256A3.194 3.194 0 0053.742 33H49.81c-.866 0-1.72-.202-2.495-.59h0l-2.436-1.217-.002-.001a3.662 3.662 0 00-5.298 3.276v.725h-.096a4.283 4.283 0 00-3.387 1.657v-9.253a4.901 4.901 0 013.084-4.556z" fill="#fff" stroke="#333" stroke-width="2"/><path d="M62.45 52.139l-8.708-2.512v-2.208a8.804 8.804 0 002.644-3.548h.646a4.391 4.391 0 004.387-4.387 4.391 4.391 0 00-4.387-4.387h-.202a3.286 3.286 0 00-3.088-2.194h-3.93c-.846 0-1.694-.2-2.452-.579l-2.436-1.217a3.784 3.784 0 00-1.682-.397 3.764 3.764 0 00-3.758 3.758v.629a4.391 4.391 0 00-4.387 4.387c0 .481.097.938.241 1.372-3.027 1.966-6.5 3.015-10.112 3.015-10.281 0-18.645-8.364-18.645-18.645 0-10.281 8.364-18.645 18.645-18.645 7.947 0 14.866 4.916 17.524 12.32a12.21 12.21 0 012.036-.819C41.796 9.85 34.08 4.387 25.226 4.387c-11.491 0-20.839 9.348-20.839 20.839 0 11.49 9.348 20.839 20.839 20.839 4.035 0 7.915-1.17 11.296-3.365.63.579 1.421.97 2.304 1.104a22.995 22.995 0 01-13.6 4.454c-12.7 0-23.032-10.332-23.032-23.032S12.525 2.194 25.226 2.194c9.79 0 18.521 6.282 21.724 15.43.433-.048.87-.076 1.308-.076.335 0 .662.026.99.05C45.948 7.203 36.196 0 25.226 0 11.316 0 0 11.316 0 25.226c0 13.91 11.316 25.226 25.226 25.226 5.643 0 11.09-1.911 15.513-5.372a8.828 8.828 0 002.035 2.339v2.208l-8.708 2.513a7.711 7.711 0 00-5.55 7.376V68H68v-8.484a7.713 7.713 0 00-5.55-7.377zm-7.83.024l-1.48 5.176-3.24-2.591 3.063-3.064 1.656.479zm4.606-12.68c0 1.21-.984 2.194-2.194 2.194h-.075c.045-.36.075-.725.075-1.096v-3.29c1.21 0 2.194.983 2.194 2.193zm-21.936 0c0-1.209.984-2.193 2.194-2.193v3.29c0 .372.03.738.075 1.097h-.075a2.196 2.196 0 01-2.194-2.193zm4.387 1.098v-6.113a1.567 1.567 0 012.265-1.4l2.436 1.218c1.06.531 2.247.81 3.434.81h3.93a1.1 1.1 0 011.097 1.098v4.387a6.587 6.587 0 01-6.58 6.58 6.587 6.587 0 01-6.582-6.58zm6.581 8.774a8.715 8.715 0 003.29-.646v1.288l-3.29 3.29-3.29-3.29V48.71a8.715 8.715 0 003.29.646zm-4.705 2.33l3.063 3.063-3.24 2.591-1.479-5.176 1.656-.479zm22.253 14.121H61.42v-5.483h-2.193v5.483H37.29v-5.483h-2.193v5.483H30.71v-6.29a5.51 5.51 0 013.963-5.27l5.116-1.474 2.383 8.34 6.086-4.869 6.086 4.87 2.383-8.341 5.116 1.474a5.51 5.51 0 013.963 5.27v6.29z" fill="#333"/><path d="M17.276 35.82l6.634-7.581c.404.176.848.277 1.316.277a3.295 3.295 0 003.29-3.29c0-1.428-.92-2.634-2.193-3.089V8.774h-2.194v13.363a3.286 3.286 0 00-2.194 3.089c0 .544.146 1.05.381 1.504l-6.689 7.645 1.65 1.445zm7.95-11.691c.604 0 1.097.493 1.097 1.097s-.493 1.097-1.097 1.097a1.099 1.099 0 01-1.097-1.097 1.1 1.1 0 011.097-1.097zM2.025 39.83L0 36.623V47.16h2.194v-3.326c5.596 6.947 13.978 11.004 23.032 11.004v-2.194c-9.465 0-18.14-4.79-23.201-12.815zm28.685-15.7h2.193v2.193h-2.194v-2.194z" fill="#333"/><path d="M17.548 24.13h2.194v2.193h-2.194v-2.194z" fill="#333"/></g><defs><clipPath id="clip0"><path fill="#fff" d="M0 0h68v68H0z"/></clipPath></defs></svg>