<svg width="133" height="138" fill="none" xmlns="http://www.w3.org/2000/svg"><g clip-path="url(#clip0)" fill="#fff" fill-opacity=".25"><path d="M118.673 48.887a1.604 1.604 0 00-2.196.57l-38.05 64.746a1.598 1.598 0 00-.218.704l-.653 9.644a1.605 1.605 0 002.474 1.454l8.107-5.263c.209-.136.383-.318.51-.533l38.05-64.745a1.604 1.604 0 00-.57-2.196l-7.454-4.38zm-32.6 69.37l-5.099 3.31.41-6.065 37.047-63.036 4.687 2.755-37.045 63.036zm37.064-53.459L110.17 86.862a1.605 1.605 0 002.766 1.626l12.968-22.064a1.605 1.605 0 00-2.767-1.626zM76.201 76.642L41.185 56.063a1.605 1.605 0 00-1.626 2.766l35.017 20.58a1.604 1.604 0 101.625-2.767zM64.174 97.108l-35.017-20.58a1.604 1.604 0 00-1.626 2.767l35.017 20.58a1.604 1.604 0 101.626-2.767zm17.248-29.349l-35.016-20.58a1.604 1.604 0 00-1.626 2.767l35.016 20.579a1.604 1.604 0 001.626-2.766zM50 41.063L70.788 53.28a1.605 1.605 0 001.626-2.766L51.626 38.297A1.604 1.604 0 1050 41.063zm5.22-8.883l20.788 12.217a1.604 1.604 0 101.626-2.766L56.846 29.414a1.605 1.605 0 00-1.625 2.766z"/><path d="M9.736 85.573l55.986 32.903a1.6 1.6 0 002.19-.569l31.497-53.594.003-.006c.026-.044.05-.09.07-.136.017-.035.03-.072.044-.108l.015-.037c.015-.043.028-.088.04-.132 0-.006.003-.012.004-.018.01-.045.019-.09.026-.136l.003-.018c.006-.043.01-.086.012-.129l.002-.027v-.118l-.001-.039-.012-.108-.005-.048a1.529 1.529 0 00-.027-.129l-.005-.024-7.583-29.2a1.82 1.82 0 00-.047-.148l-.015-.037a1.587 1.587 0 00-.046-.107l-.016-.03a1.674 1.674 0 00-.059-.108l-.012-.019a1.438 1.438 0 00-.076-.11l-.009-.012a1.657 1.657 0 00-.09-.109l-.012-.011a1.476 1.476 0 00-.1-.099l-.03-.024a1.532 1.532 0 00-.225-.162L53.661 10.829a1.6 1.6 0 00-2.19.57L9.167 83.382a1.6 1.6 0 00.57 2.19zM95.51 60.167l-13.682-8.04 8.041-13.683 5.641 21.723zM53.42 14.399l34.837 20.473-9.998 17.014a1.6 1.6 0 00.569 2.19L95.84 64.07l-29.876 50.835-53.227-31.281L53.42 14.399z"/></g><defs><clipPath id="clip0"><path fill="#fff" transform="rotate(30.443 25.513 98.923)" d="M0 0h92.05v104.458H0z"/></clipPath></defs></svg>