<svg width="88" height="17" fill="none" xmlns="http://www.w3.org/2000/svg"><g clip-path="url(#clip0)" fill="#1877F2"><path d="M6.893 2.683c-1.032 0-1.341.453-1.341 1.462v1.668h2.765L8.05 8.531H5.552v8.217H2.229V8.531H0V5.834h2.229V4.207c0-2.76 1.114-4.201 4.19-4.201.64 0 1.3.041 1.94.123v2.554m.185 8.257c0-3.047 1.445-5.354 4.5-5.354 1.65 0 2.661.845 3.157 1.915V5.833h3.178v10.935H16.18v-1.647c-.454 1.05-1.506 1.874-3.157 1.874-3.034 0-4.5-2.286-4.5-5.354l.021-.7zm3.323.742c0 1.627.598 2.718 2.146 2.718 1.362 0 2.043-.988 2.043-2.553v-1.112c0-1.566-.701-2.554-2.043-2.554-1.548 0-2.146 1.07-2.146 2.718v.783zm14.405-6.096c1.28 0 2.518.268 3.178.742l-.743 2.347a5.09 5.09 0 00-2.208-.494c-1.796 0-2.58 1.03-2.58 2.8v.639c0 1.771.784 2.8 2.58 2.8a5.11 5.11 0 002.208-.514l.743 2.347c-.66.454-1.878.742-3.178.742-3.9 0-5.655-2.08-5.655-5.437v-.515c0-3.356 1.754-5.457 5.655-5.457zm3.612 6.116v-.967c0-3.11 1.775-5.149 5.386-5.149 3.405 0 4.912 2.06 4.912 5.107v1.75h-6.976c.062 1.504.743 2.163 2.58 2.163a9.926 9.926 0 003.53-.659l.598 2.265c-.867.453-2.663.803-4.252.803-4.21-.02-5.778-2.1-5.778-5.313zm3.322-1.441h4.004v-.268c0-1.194-.474-2.142-1.94-2.142-1.486 0-2.064.948-2.064 2.41zm19.276 1.379c0 3.048-1.465 5.355-4.52 5.355-1.65 0-2.806-.824-3.26-1.874v1.647h-3.137V.335l3.322-.288v7.31c.475-.968 1.548-1.75 3.096-1.75 3.034 0 4.52 2.286 4.52 5.354l-.021.68zm-3.323-.761c0-1.545-.598-2.698-2.187-2.698-1.363 0-2.085.968-2.085 2.533v1.153c0 1.565.743 2.533 2.085 2.533 1.589 0 2.187-1.153 2.187-2.698v-.823zm4.417.679v-.556c0-3.15 1.796-5.416 5.449-5.416 3.653 0 5.448 2.265 5.448 5.416v.556c0 3.151-1.795 5.416-5.448 5.416-3.653 0-5.449-2.244-5.449-5.416zm7.595-.782c0-1.442-.599-2.595-2.146-2.595-1.548 0-2.147 1.153-2.147 2.595v1.03c0 1.44.599 2.594 2.147 2.594 1.547 0 2.146-1.153 2.146-2.595v-1.03zm4.437.782v-.556c0-3.15 1.795-5.416 5.448-5.416 3.653 0 5.449 2.265 5.449 5.416v.556c0 3.151-1.796 5.416-5.449 5.416-3.653 0-5.448-2.244-5.448-5.416zm7.595-.782c0-1.442-.599-2.595-2.147-2.595-1.547 0-2.146 1.153-2.146 2.595v1.03c0 1.44.599 2.594 2.146 2.594 1.548 0 2.147-1.153 2.147-2.595v-1.03zm7.863.267l3.281-5.23h3.509l-3.426 5.416 3.57 5.54h-3.529l-3.405-5.355v5.354h-3.302V.335l3.302-.31"/></g><defs><clipPath id="clip0"><path fill="#fff" d="M0 0h88v17H0z"/></clipPath></defs></svg>