<svg width="100" height="36" fill="none" xmlns="http://www.w3.org/2000/svg"><path fill-rule="evenodd" clip-rule="evenodd" d="M91.78 22.472l7.902-8.798H90.42l-3.214 3.641-3.338-3.64H66.256v-2.353h8.328V4.266H57.837V31.34h25.8l3.277-3.672 3.308 3.672h9.567l-8.01-8.868zM73.167 19.11H64.84v6.562h8.328v4.356H59.163V5.58h14.094v4.429H64.93v4.979h8.237v4.122zm1.505 11.763V24.18h-8.326V20.6h8.327v-6.458l7.52 8.365-7.52 8.365zM86.91 25.69l-3.87 4.337h-5.65l6.758-7.52-6.758-7.52h5.89l3.945 4.302 3.798-4.302h5.706l-6.727 7.488 6.822 7.551h-6.007L86.91 25.69z" fill="#A4AEB6"/><path fill-rule="evenodd" clip-rule="evenodd" d="M52.154 4.264v11.08h-.072c-1.417-1.613-3.19-2.175-5.244-2.175-4.217 0-7.387 2.845-8.495 6.599-1.268-4.136-4.538-6.675-9.399-6.675-3.947 0-7.057 1.759-8.68 4.62v-3.561h-8.149v-3.853h8.894V4.264H4.849V31.34h7.266V19.958h7.248a10.65 10.65 0 00-.339 2.677c0 5.647 4.358 9.611 9.92 9.611 4.678 0 7.76-2.174 9.39-6.138H32.11c-.841 1.192-1.481 1.545-3.164 1.545-1.952 0-3.635-1.685-3.635-3.685h12.684c.55 4.485 4.072 8.354 8.916 8.354a6.22 6.22 0 005.173-2.735h.071v1.753h6.404V4.264h-6.404zM25.512 20.039c.404-1.719 1.75-2.843 3.433-2.843 1.852 0 3.13 1.089 3.467 2.843h-6.9zm22.754 7.179c-2.36 0-3.826-2.179-3.826-4.451 0-2.431 1.275-4.767 3.826-4.767 2.647 0 3.699 2.336 3.699 4.767 0 2.305-1.116 4.451-3.699 4.451z" fill="#A4AEB6"/></svg>