<svg width="115" height="52" fill="none" xmlns="http://www.w3.org/2000/svg"><path fill-rule="evenodd" clip-rule="evenodd" d="M49.428 19.807c-.33 0-1.027-1.02-.998-2.086l.007-5.404h1.383c.739 0 1.752-.1 2.674.5 0 0-.645-1.896-2.674-1.896h-1.383V9.523s0-1.198-.276-1.598h1.936c1.568 0 2.86 0 4.242.898 0 0-.278-2.295-3.505-2.295h-6.177s1.106.998 1.014 2.994l.092 8.188c0 1.995.737 2.094.737 2.094l2.928.003zM69.796 9.122l-1.804-.001s.795.504.323 2.651h.003l-1.404 6.309s-.144.886-.409.882c-.928-.017-1.348-1.523-1.505-2.036-.105-.336-1.135-6.235-1.177-6.414-.329-1.343-1.11-1.39-1.579-1.392h-1.84s.488.28.74 1.296c.034.133 1.253 6.53 1.253 6.53s.252 1.343 1.044 2.01c.948.8 1.777.85 2.348.85.415 0 .75-.237.75-.237l-.228.897c-.412 1.768-1.713 2.652-1.713 2.652s2.803.002 2.828 0c.174-.015.883-.227 1.445-2.543l2.048-8.753c.509-2.563-.513-2.696-1.123-2.702zM58.739 17.15c0 1.77 1.097 2.656 1.097 2.656h-2.79s-.897.127-.897-2.656V9.184c0-2.15-.896-2.656-.896-2.656h1.693c.598 0 1.793 0 1.793 2.91v7.712zm36.938 27.637c2.094-.341 2.783-1.227 2.783-1.227v-2.562c-1.66 3.015-4.374 1.96-4.978 1.658-1.962-.753-2.114-3.315-2.114-3.315 1.51-1.81 3.32-1.358 5.734-3.92 3.017-3.167.754-6.633-3.47-6.633-4.375 0-6.79 4.07-6.79 8.44 0 3.853 2.227 6.887 5.649 7.553.847.163 2.332.14 3.186.006zM68.89 42.959c-.906 0-1.66-.905-1.66-1.96 0-3.92 3.32-4.522 4.225-5.577v6.633c-.452.45-.755.904-2.565.904zm-51.447-.303h-4.676c-1.508 0-1.358-1.206-1.508-2.26v-6.784h2.262c1.208 0 2.868-.151 4.376.753 0 0-1.057-2.863-4.376-2.863H11.26v-2.11s0-1.808-.453-2.413h3.169c2.564 0 4.676 0 6.94 1.358 0 0-.454-3.468-5.733-3.468H5.074s1.81 1.507 1.66 4.523l.15 12.36c0 2.105.589 2.815.944 3.05h11.197c1.55-.392 2.192-1.686 2.192-2.447v-1.206s-.756 1.507-3.773 1.507zm89.013-2.11c0 1.054-1.057 2.563-3.169 2.563-2.263 0-3.017-2.26-3.017-2.26v2.862s.986.79 2.641 1.091h2.419c2.335-.468 4.477-2.324 4.595-4.734v-.426c0-1.056-.301-1.96-.905-2.864-1.056-1.206-2.867-2.11-4.225-3.015-.754-.453-1.206-1.356-1.206-1.659 0-.602.301-1.657 2.413-1.657 2.112 0 3.018 2.262 3.018 2.262v-2.714s-1.659-1.206-4.073-1.206c-2.564 0-4.829 1.658-4.829 3.768.152 1.96.906 3.166 2.415 4.22.604.453 1.357.905 2.262 1.358 1.207.753 1.661 1.507 1.661 2.412zm-35.001-6.632c-1.057 1.657-8.6 1.959-7.393 7.99.353 1.766 1.353 2.613 2.708 2.897h2.278c1.292-.298 2.044-1.118 2.406-1.843.302 1.808 1.206 1.808 1.206 1.808h4.225s-1.659-1.055-1.659-3.166v-8.892c0-2.112-2.414-3.92-4.829-3.92-2.413 0-4.072 1.206-4.072 1.206v2.864s.904-2.262 3.168-2.262c2.112 0 2.263 1.055 2.263 1.658 0 0 .15.605-.301 1.66zm-21.877-6.33c1.056 0 1.962-.907 1.962-1.962 0-1.054-.905-1.959-1.961-1.959s-1.962.905-1.962 1.96c0 1.054.906 1.96 1.962 1.96zm44.958 6.933c.605-1.356 1.208-4.674-1.206-4.522-2.715.3-2.263 7.687-2.263 7.687.905-1.054 2.414-1.205 3.469-3.165zm-10.259-3.92c1.359 0 2.415.755 2.415.755V28.94h-3.47v-3.769s-.903 1.657-2.866 3.167c-1.207 1.055-3.77 2.26-3.77 2.26H79.3v11.156c0 3.014 1.358 3.014 1.358 3.014h4.225s-1.661-1.056-1.661-3.014V30.598l1.055-.001zm-19.762-.452s-.302-1.205-2.113-1.205c-2.715 0-3.318 3.165-3.318 3.165-.15-2.563-.906-3.315-2.715-3.315h-2.565s1.508.603 1.508 3.315v9.496c0 3.166 1.207 3.166 1.207 3.166h4.224c-.15 0-1.66-1.055-1.66-3.166v-7.836c.152-.755.604-1.206 1.057-1.66 1.357-.903 3.32-.601 4.375.605v-2.565zM51.54 41.6c0 2.111 1.66 3.167 1.66 3.167h-4.225s-1.358.15-1.358-3.167v-9.496c0-2.562-1.358-3.164-1.358-3.164h2.565c.906 0 2.716 0 2.716 3.467V41.6zm-7.393 0v-8.59c0-3.316-2.715-4.221-4.827-4.221-2.565 0-3.47 2.26-3.771 3.014-.605-2.11-2.717-3.014-4.376-3.014-3.319 0-4.073 3.014-4.073 3.014s-.15-2.863-2.716-2.863H21.82s1.509.602 1.509 3.165v9.496c0 2.224.595 2.96.95 3.202h4.348C28.22 44.455 27.1 43.42 27.1 41.6v-8.44c.151-.452.754-1.658 2.565-1.658 1.056 0 2.112 1.056 2.112 2.262V41.6c0 3.166 1.207 3.166 1.207 3.166h4.224S35.7 43.712 35.7 41.602v-8.44c.151-.452.603-1.658 2.263-1.658 1.207 0 2.262 1.056 2.262 2.262V41.6c0 3.317 1.358 3.166 1.358 3.166h4.224s-1.66-1.056-1.66-3.167z" fill="#A4AEB6"/></svg>