<svg width="74" height="74" fill="none" xmlns="http://www.w3.org/2000/svg"><path d="M17.903 63.258h45.355v5.968H17.903v-5.968z" fill="#C3DBEF"/><path d="M40.58 59.678c-9.871 0-17.903-8.032-17.903-17.904s8.032-17.903 17.904-17.903c9.871 0 17.903 8.032 17.903 17.903 0 9.872-8.032 17.904-17.904 17.904z" fill="#FFCF27"/><path d="M35.218 41.352L34 43.177l6.325 4.882 6.04-12.079L44.4 35l-4.928 9.856-4.255-3.504z" fill="#333"/><path d="M60.871 15.022V4.774h-16.83C43.486 2.054 41.075 0 38.194 0a5.98 5.98 0 00-5.848 4.774H5.968V66.84h7.161V74h54.903V22.183l-7.161-7.161zm-2.387.988l5.473 5.474h-5.473V16.01zm0-3.375l-.7-.7H44.162V7.161h14.323v5.474zM8.354 64.452V7.162h23.872v4.773H13.129v52.517H8.355zm7.162 7.16v-57.29h16.71v3.581a3.585 3.585 0 003.58 3.58 3.585 3.585 0 003.581-3.58V7.161H37v10.742c0 .658-.536 1.194-1.194 1.194a1.196 1.196 0 01-1.193-1.194V5.968a3.585 3.585 0 013.58-3.58 3.585 3.585 0 013.581 3.58v15.516h2.387v-7.161h11.936v9.548h9.548v47.742H15.516z" fill="#333"/><path d="M17.903 62.065h45.355v2.387H17.903v-2.387zm0 4.774h40.581v2.387h-40.58v-2.387zm42.968 0h2.387v2.387h-2.387v-2.387z" fill="#333"/></svg>