<svg width="70" height="70" fill="none" xmlns="http://www.w3.org/2000/svg"><path d="M58 49H12V3h46v46z" stroke="#333" stroke-width="2"/><path d="M64.355 15.806H59v2.258h5.355a3.392 3.392 0 013.387 3.388v30.483H2.258V21.452a3.392 3.392 0 013.387-3.388H11v-2.258H5.645A5.652 5.652 0 000 21.452V57.58a5.652 5.652 0 005.645 5.645h14.678v4.516h-4.517V70h38.388v-2.258h-4.517v-4.516h14.678A5.652 5.652 0 0070 57.58V21.45a5.652 5.652 0 00-5.645-5.645zM47.419 67.742H22.581v-4.516h24.838v4.516zm16.936-6.774H5.645a3.392 3.392 0 01-3.387-3.387v-3.388h65.484v3.388a3.392 3.392 0 01-3.387 3.387z" fill="#333"/><path d="M27.097 56.452h2.258v2.258h-2.258v-2.258zm4.516 0h6.774v2.258h-6.774v-2.258zm9.032 0h2.258v2.258h-2.258v-2.258z" fill="#333"/><path fill="#FFCF27" d="M17 35h36v9H17z"/><path d="M54.194 33.871H15.807v11.29h38.387v-11.29zm-2.258 9.032H18.065V36.13h33.87v6.774z" fill="#333"/><path d="M20.323 38.387h2.258v2.258h-2.258v-2.258zm4.516 0h2.258v2.258h-2.258v-2.258zm4.516 0h2.258v2.258h-2.258v-2.258zm4.516 0h2.258v2.258h-2.258v-2.258zm4.516 0h2.258v2.258h-2.258v-2.258zm4.516 0h2.258v2.258h-2.258v-2.258zm4.517 0h2.258v2.258h-2.259v-2.258zM16 28h38v2H16v-2zm0-5h38v2H16v-2zm0-5h38v2H16v-2zm0-5h38v2H16v-2z" fill="#333"/></svg>