<svg width="116" height="40" fill="none" xmlns="http://www.w3.org/2000/svg"><path d="M92.448 1.847h4.142V29.66h-4.142V1.847zm-52.755 9.468c-5.218 0-9.468 3.98-9.468 9.461 0 5.447 4.25 9.461 9.468 9.461s9.468-4.014 9.468-9.46c0-5.489-4.25-9.462-9.468-9.462zm0 15.193c-2.856 0-5.32-2.363-5.32-5.732 0-3.403 2.464-5.732 5.32-5.732 2.856 0 5.32 2.33 5.32 5.732 0 3.369-2.464 5.732-5.32 5.732zM15.12 14.215v4.014h9.57c-.285 2.255-1.036 3.905-2.18 5.053-1.394 1.4-3.574 2.941-7.39 2.941-5.895 0-10.497-4.768-10.497-10.683 0-5.916 4.602-10.677 10.496-10.677 3.181 0 5.503 1.256 7.215 2.866l2.822-2.832C22.76 2.6 19.586.849 15.12.849 7.045.849.264 7.444.264 15.546c0 8.103 6.788 14.698 14.855 14.698 4.359 0 7.641-1.433 10.213-4.123 2.646-2.655 3.465-6.377 3.465-9.393 0-.93-.074-1.793-.216-2.506H15.119v-.007zm92.826 12.293c-2.105 0-3.607-.964-4.575-2.866l12.609-5.236-.427-1.073c-.785-2.113-3.181-6.025-8.074-6.025-4.859 0-8.893 3.838-8.893 9.461 0 5.305 4 9.461 9.36 9.461 4.325 0 6.822-2.655 7.858-4.19l-3.215-2.153c-1.069 1.582-2.531 2.621-4.643 2.621zm-.318-11.539c1.645 0 3.039.822 3.499 2.01l-8.426 3.512c-.108-3.661 2.816-5.522 4.927-5.522zM85.66 13.427h-.142c-.927-1.114-2.714-2.112-4.968-2.112-4.717 0-9.035 4.157-9.035 9.502 0 5.304 4.325 9.427 9.035 9.427 2.247 0 4.034-1.005 4.968-2.153h.142v1.365c0 3.62-1.929 5.556-5.035 5.556-2.538 0-4.109-1.827-4.751-3.37l-3.608 1.509c1.036 2.506 3.784 5.59 8.359 5.59 4.859 0 8.967-2.867 8.967-9.855v-17H85.66v1.541zm-4.751 13.081c-2.856 0-5.252-2.404-5.252-5.698 0-3.335 2.396-5.773 5.252-5.773 2.822 0 5.035 2.438 5.035 5.773 0 3.3-2.213 5.698-5.035 5.698zM60.335 11.315c-5.218 0-9.468 3.98-9.468 9.461 0 5.447 4.25 9.461 9.468 9.461s9.468-4.014 9.468-9.46c0-5.489-4.25-9.462-9.468-9.462zm0 15.193c-2.856 0-5.32-2.363-5.32-5.732 0-3.403 2.464-5.732 5.32-5.732 2.856 0 5.32 2.33 5.32 5.732.006 3.369-2.457 5.732-5.32 5.732z" fill="#A4AEB6"/></svg>