<svg width="62" height="71" fill="none" xmlns="http://www.w3.org/2000/svg"><path d="M35.377 46.876c8.823 0 15.976-7.153 15.976-15.976 0-8.824-7.153-15.977-15.977-15.977-8.823 0-15.976 7.153-15.976 15.977 0 8.823 7.153 15.976 15.977 15.976z" fill="#FFD027"/><path d="M59.08 4.653A62.417 62.417 0 0135.801.17L35.377 0l-.424.17a62.423 62.423 0 01-23.28 4.482H9.13v23.965H3.423A3.428 3.428 0 000 32.041v19.4a3.428 3.428 0 003.423 3.424H13.7a29.627 29.627 0 0010.883 10.248L35.376 71l10.794-5.887A29.635 29.635 0 0061.623 39.08V4.653H59.08zM2.282 51.44v-19.4c0-.63.511-1.141 1.141-1.141h10.27c.63 0 1.142.512 1.142 1.14V51.44c0 .629-.512 1.141-1.141 1.141H3.424c-.63 0-1.142-.512-1.142-1.141zm14.836-17.128c3.81-.206 6.847-3.372 6.847-7.233V21.2a2.856 2.856 0 012.853-2.853A2.856 2.856 0 0129.67 21.2v7.182a3.663 3.663 0 003.658 3.659h8.366a3.957 3.957 0 013.952 3.952V48.63a3.956 3.956 0 01-3.952 3.952H24.881a2.7 2.7 0 01-2.25-1.203 4.975 4.975 0 00-4.147-2.22h-1.366V34.313zM59.34 39.08a27.356 27.356 0 01-14.263 24.029l-9.7 5.291-9.702-5.292a27.37 27.37 0 01-9.792-9.057 3.4 3.4 0 001.212-2.385 24.98 24.98 0 009.674 9.438l8.608 4.696 8.608-4.696a25.072 25.072 0 0013.074-22.023V21.77h-2.282v17.31A22.79 22.79 0 0142.893 59.1l-7.516 4.1-7.516-4.1a22.713 22.713 0 01-7.947-7.231c.318.2.603.453.82.776a4.976 4.976 0 004.147 2.22h16.815a6.241 6.241 0 006.234-6.235V35.993a6.241 6.241 0 00-6.234-6.234H33.33a1.378 1.378 0 01-1.377-1.377V21.2a5.142 5.142 0 00-5.135-5.136 5.142 5.142 0 00-5.135 5.136v5.88c0 2.601-2.02 4.717-4.57 4.921a3.4 3.4 0 00-1.136-2.493v-18.14a69.19 69.19 0 0019.4-4.033 69.2 69.2 0 0019.4 4.033v1.273h2.282V9.197l-1.089-.05A66.96 66.96 0 0135.772 5.05l-.396-.147-.396.146a66.974 66.974 0 01-20.198 4.097l-1.088.05v19.422H11.41V6.935h.262a64.671 64.671 0 0023.703-4.478A64.671 64.671 0 0059.08 6.935h.26V39.08h.001z" fill="#333"/><path d="M57.059 17.206h-2.283v2.282h2.283v-2.282zM12.553 48.018H4.564V50.3h7.989v-2.282z" fill="#333"/></svg>