<svg width="279" height="128" fill="none" xmlns="http://www.w3.org/2000/svg"><g clip-path="url(#clip0)"><g clip-path="url(#clip1)"><path d="M239.809 110.477l24.813 9.179 13.287-35.811-24.813-9.18-13.287 35.812z" fill="#E8F2FB"/><path d="M211.991 63.18c-.133.347-2.118 6.119-3.008 15.15-.42 4.504-.532 9.847.348 15.537a44.026 44.026 0 002.199 8.612c1.044 2.84 2.456 5.659 4.185 8.132 1.698 2.492 3.682 4.791 5.892 6.722a31.141 31.141 0 007.11 4.689c4.962 2.349 9.944 3.074 14.067 3.115a41.76 41.76 0 009.801-1.083 37.204 37.204 0 002.619-.704c.593-.184.88-.297.87-.297l-1.75-6.895c.246-.062-.583.163-2.281.378a34.842 34.842 0 01-7.08.143c-2.885-.235-6.128-.92-9.095-2.35-2.977-1.42-5.637-3.596-7.754-6.487-.553-.705-1.013-1.502-1.504-2.268-.43-.827-.911-1.655-1.238-2.441a25.266 25.266 0 01-1.616-5.026c-.737-3.463-.839-7.008-.614-10.104a54.711 54.711 0 011.074-7.56c.389-1.838.685-2.87.685-2.87.573-2.196.266-4.423-.716-6.415a9.997 9.997 0 00-4.869-4.7l-7.325-3.279z" fill="#78909C"/><path d="M265.425 113.931l.02.081c.829 4.485-2.148 8.786-6.64 9.613-2.046.378-4-.97-4.378-3.013l-.829-4.505 11.827-2.176z" fill="#F4AF9A"/><path d="M182.742 76.817v76.209h44.206V76.817c0-5.22-1.811-10.021-4.86-13.801a19.125 19.125 0 00-1.616-1.798 24.72 24.72 0 00-1.432-1.318 22.03 22.03 0 00-14.2-5.149 21.98 21.98 0 00-11.56 3.26c-6.323 3.881-10.538 10.858-10.538 18.806z" fill="#78909C"/><path d="M200.481 55.18v82.318h18.558V59.9a22.028 22.028 0 00-14.199-5.149 22.68 22.68 0 00-4.359.43z" fill="#fff"/><path d="M200.481 52.249v.296h12.103a22.576 22.576 0 00-3.744-.317h-7.356c-.338 0-.685.01-1.003.02z" fill="#A1887F"/><path d="M204.85 54.751a21.93 21.93 0 00-4.369.43v22.597h18.558V59.9a21.999 21.999 0 00-14.189-5.149z" fill="#F4AF9A"/><path d="M191.315 53.168h37.116V31.531c0-10.236-8.307-18.531-18.558-18.531s-18.558 8.295-18.558 18.531v21.637z" fill="#AF6F33"/><path d="M216.359 48.888a3.802 3.802 0 00-3.805 3.8v-3.8h4.828-1.023z" fill="#F4AF9A"/><path d="M217.495 49.01h-3.908c-9.504 0-17.218-7.692-17.218-17.193v-.827c0-6.64 5.392-12.034 12.052-12.034h2.097c6.65 0 12.051 5.383 12.051 12.034v12.943a5.059 5.059 0 01-5.074 5.077z" fill="#F4AF9A"/><path d="M212.553 60.973l-12.072-5.547V43.075h12.072v17.898zm11.121-19.328h-1.095v-3.617l1.627 2.687a.615.615 0 01-.532.93z" fill="#F4AF9A"/><path d="M221.188 24.462h-.532c-5.136 0-9.289 4.076-9.289 9.102h-12.89V17.597h22.885l-.174 6.865z" fill="#AF6F33"/><path d="M193.188 23.737h18.353v10.808c0 6.18-5.013 11.186-11.202 11.186h-7.151V23.737z" fill="#AF6F33"/><path d="M192.113 59.348c-.235.144-1.76 1.226-3.98 3.27A65.216 65.216 0 00180 71.74c-2.967 4.015-5.954 9.061-8.143 14.813a57.493 57.493 0 00-3.755 18.531l-.102 2.38.051 2.278.123 4.505c.205 2.994.307 5.915.655 8.745.573 5.649 1.493 10.88 2.741 15.201 1.238 4.331 2.844 7.713 4.256 9.766a12.012 12.012 0 001.791 2.145c.225.195.399.338.501.399.133.092.092.041.102.061l4.041-5.853.225.163.123.092.072.061.041.031.02.02.01.011c-6.905 8.305-1.903 2.298-3.437 4.147.133-.184.297-.388.491-.613.378-.46.89-1.011 1.524-1.594.379-.418.839-.878 1.392-1.368l.214-.184.113-.092c.041-.031.01-.01.02-.01l.011.01-.031-.051a.457.457 0 00-.092-.113 6.12 6.12 0 01-.154-.255c-.061-.102-.133-.164-.204-.327-.614-1.073-1.555-3.381-2.22-6.65-.686-3.269-1.166-7.417-1.289-12.014-.041-1.144-.021-2.339-.031-3.524 0-.603 0-1.196-.01-1.809.02-.613.041-1.225.071-1.838.052-1.236.093-2.483.144-3.729l.276-3.79c.133-2.666.522-4.74.798-6.967.256-1.073.501-2.135.757-3.187l.184-.787.256-.756c.164-.5.337-1.011.501-1.502 1.371-3.953 3.12-7.508 5.034-10.318 1.882-2.82 3.682-5.036 5.064-6.476.337-.368.644-.695.9-.981.276-.276.511-.5.706-.685.378-.377.583-.572.583-.572 1.729-1.654 2.731-3.78 3.089-6.006.338-2.238 0-4.618-1.217-6.733l-4.082-6.967z" fill="#78909C"/></g><g clip-path="url(#clip2)"><path d="M123.742 44.502c-2.581 0-4.672 2.114-4.672 4.723v-4.723h5.92-1.248z" fill="#FFD0C2"/><path d="M142 66.321c0-7.778-6.237-14.084-13.931-14.084H91.931C84.237 52.237 78 58.543 78 66.322V166h64V66.321z" fill="#20354D"/><path d="M128.495 158.121h-24.22V52.149h7.467c9.253 0 16.753 7.582 16.753 16.937v89.035z" fill="#fff"/><path d="M128.003 148.635l-7.066 9.486-8.113-9.486 4.369-84.825h3.524l7.286 84.825z" fill="#1AAECB"/><path d="M125.135 44.661h-4.79c-11.664 0-21.12-9.559-21.12-21.351v-1.03c0-8.254 6.618-14.945 14.784-14.945h2.577c8.165 0 14.783 6.69 14.783 14.945v16.082c-.003 3.48-2.792 6.3-6.234 6.3z" fill="#FFD0C2"/><path d="M127.61 20.105c-11.468 0-18.503-.636-15.946 16.121-8.806 0-15.947-7.219-15.947-16.121 0-8.902 7.141-16.121 15.947-16.121h12.779c6.588 1.98 3.167 8.817 3.167 16.121z" fill="#DDE0E3"/><path d="M115.9 20.829c-1.32-2.24-.592-5.136 1.623-6.47l10.153-6.114c2.215-1.335 5.08-.598 6.401 1.641 1.32 2.24.592 5.135-1.623 6.47l-10.153 6.113c-2.215 1.336-5.08.6-6.401-1.64z" fill="#DDE0E3"/><path d="M114.782 15.415c-1.656-1.997-1.393-4.976.586-6.647l9.066-7.668a4.63 4.63 0 016.575.592c1.656 1.998 1.394 4.977-.586 6.648l-9.065 7.668a4.636 4.636 0 01-6.576-.592z" fill="#DDE0E3"/><path d="M104.342 15.415c-1.656-1.997-1.393-4.976.586-6.647l9.065-7.668a4.63 4.63 0 016.576.592c1.656 1.998 1.393 4.977-.586 6.648l-9.066 7.668a4.635 4.635 0 01-6.575-.592zm-8.313 20.778c-1.656-1.998-1.394-4.977.586-6.648l9.065-7.668a4.63 4.63 0 016.576.593c1.656 1.998 1.393 4.976-.586 6.647l-9.066 7.668a4.636 4.636 0 01-6.575-.592z" fill="#DDE0E3"/><path d="M97.763 44.472c-1.656-1.998-1.393-4.977.586-6.648l9.066-7.668a4.63 4.63 0 016.575.593c1.656 1.998 1.393 4.976-.586 6.647l-9.065 7.668a4.636 4.636 0 01-6.576-.592z" fill="#DDE0E3"/><path d="M119.07 59.518l-14.813-6.81V37.28h14.813v22.238zm14.233-24.004h-1.934v-6.458l2.868 4.787c.438.733-.085 1.671-.934 1.671z" fill="#FFD0C2"/><path d="M104.257 42.202c-9.032-13.146-8.489-23.298-8.489-23.298l9.782-4.347c6.724 0 12.067 1.851 12.067 8.649l-1.931.278c1.928 20.609-11.429 18.718-11.429 18.718z" fill="#DDE0E3"/><path d="M115.634 35.676h-3.617c-1.997 0-3.617-1.637-3.617-3.657V29.16c0-2.02 1.62-3.657 3.617-3.657 1.998 0 3.617 1.638 3.617 3.657v6.516z" fill="#FFD0C2"/><path d="M118.804 21.446h-3.218v16.11h3.218v-16.11z" fill="#B0B4B9"/><path d="M131.366 24.193h-11.314c-2.414 0-4.369-1.977-4.369-4.418 0-2.44 1.955-4.417 4.369-4.417h6.887c2.445 0 4.427 2.004 4.427 4.475v4.36z" fill="#FFD0C2"/><path d="M119.481 24.797h-5.285V14.56h10.247v5.221c0 2.768-2.221 5.017-4.962 5.017z" fill="#DDE0E3"/><path d="M131.68 35.508v9.468c0 1.607-1.287 2.911-2.879 2.911h-4.627c-4.744 0-8.591-3.889-8.591-8.685v-3.694h3.221v1.662c0 .917.735 1.662 1.644 1.662h2.808c.906 0 1.643-.742 1.643-1.662 0-.916.735-1.662 1.644-1.662h5.137z" fill="#B0B4B9"/><path d="M119.07 73.381l-6.766-6.84 6.766-6.84 5.31 6.84-5.31 6.84z" fill="#1AAECB"/></g><g clip-path="url(#clip3)"><path d="M38.799 56.054h39.747v-23.19C78.546 21.89 69.646 13 58.672 13 47.698 13 38.8 21.89 38.8 32.863v23.19z" fill="#20354D"/><path d="M43.808 67.804c0 17.402 2.88 31.509 17.733 31.509 14.853 0 26.895-14.107 26.895-31.51 0-17.402-12.042-31.508-26.895-31.508S43.808 50.401 43.808 67.804z" fill="#20354D"/><path d="M95.98 152.584l-9.17 3.417-24.333-65.262 17.234-6.422 16.27 68.267z" fill="#FFC3B0"/><path d="M41.392 95.854c14.854 0 26.896-9.29 26.896-20.75 0-11.459-12.041-20.749-26.895-20.749s-26.896 9.29-26.896 20.75c0 11.459 12.042 20.749 26.895 20.749z" fill="#20354D"/><path d="M65.621 51.461a4.075 4.075 0 00-4.076 4.074v-4.074h5.168-1.092z" fill="#A1887F"/><path d="M25.692 82.119V167h55.862V82.119c0-9.309-5.303-17.38-13.06-21.349a23.337 23.337 0 00-6.918-2.294 23.74 23.74 0 00-4.022-.34h-7.866c-.356 0-.724.007-1.072.022-12.751.565-22.924 11.073-22.924 23.96z" fill="#FFC3B0"/><path d="M48.615 58.476v91.044h19.878V60.77a23.336 23.336 0 00-6.918-2.294h-12.96z" fill="#fff"/><path d="M48.615 58.158V85.52h19.878V60.77a23.333 23.333 0 00-6.918-2.294 23.74 23.74 0 00-4.022-.34h-7.865c-.357-.005-.724.007-1.073.022zM66.836 51.6h-4.18c-10.18 0-18.434-8.248-18.434-18.423v-.886c0-7.123 5.776-12.896 12.902-12.896h2.25c7.126 0 12.901 5.773 12.901 12.896v13.878a5.436 5.436 0 01-5.439 5.432z" fill="#A1887F"/><path d="M61.544 64.418l-12.929-6.26v-12.93h12.93v19.19zm11.908-20.714h-1.177V39.82l1.746 2.878a.663.663 0 01-.569 1.006z" fill="#A1887F"/><path d="M70.788 25.288h-.572c-5.493 0-9.949 4.368-9.949 9.761H46.463V17.921h24.511l-.186 7.367z" fill="#20354D"/><path d="M40.812 24.51h19.653v11.584c0 6.62-5.37 11.986-11.992 11.986h-7.661V24.51z" fill="#20354D"/><path d="M35.528 63.076a1253.861 1253.861 0 00-18.085 23.52c-2.965 3.961-5.903 7.946-8.783 12.012a228.023 228.023 0 00-4.266 6.206l-.523.805a31.36 31.36 0 01-.577.874l-1.32 2.047c-.82 1.377-1.51 2.743-1.916 4.209-.251 1.931.38 3.85.976 5.641.15.449.321.894.491 1.327.163.426.349.898.507 1.242.318.728.647 1.436.98 2.144 1.335 2.82 2.752 5.556 4.2 8.268a453.577 453.577 0 009.03 16.006l9.403-3.858c-2.194-5.401-4.374-11.018-6.344-16.489-.983-2.739-1.924-5.475-2.725-8.082l-.623-2.136.158-.182a133.345 133.345 0 013.712-4.105c2.602-2.789 5.346-5.598 8.11-8.396 5.543-5.594 11.234-11.154 16.955-16.67 3.968-3.827 3.314-10.989-1.479-16.06l-7.881-8.323z" fill="#FFC3B0"/></g></g><defs><clipPath id="clip0"><path fill="#fff" d="M0 0h279v128H0z"/></clipPath><clipPath id="clip1"><path fill="#fff" transform="translate(168 13)" d="M0 0h111v115H0z"/></clipPath><clipPath id="clip2"><path fill="#fff" transform="translate(78)" d="M0 0h64v166H0z"/></clipPath><clipPath id="clip3"><path fill="#fff" transform="translate(0 13)" d="M0 0h96v115H0z"/></clipPath></defs></svg>