<svg width="220" height="120" fill="none" xmlns="http://www.w3.org/2000/svg"><g clip-path="url(#clip0)"><path d="M85.739 47.147c13.11 0 23.739-10.555 23.739-23.574C109.478 10.554 98.849 0 85.738 0 72.629 0 62 10.554 62 23.573c0 13.02 10.628 23.574 23.739 23.574z" fill="#20354D"/><path d="M78.04 48.239c2.2 0 3.977 1.77 3.977 3.948v-3.948h-5.043 1.067z" fill="#A1887F"/><path d="M62.488 153H117V66.494c0-6.508-5.31-11.78-11.863-11.78H74.351c-6.553 0-11.863 5.272-11.863 11.78V153z" fill="#64B5F6"/><path d="M74.006 143.301h20.628V54.636h-6.358c-7.88 0-14.27 6.346-14.27 14.171v74.494z" fill="#fff"/><path d="M74.422 135.365l6.02 7.936 6.91-7.936-3.722-70.972h-3l-6.208 70.972z" fill="#3E6896"/><path d="M81.3 71.476l6.495-4.795-5.766-5.725-4.522 5.725 3.794 4.795z" fill="#3E6896"/><path d="M76.85 48.374h4.08c9.937 0 17.993-8 17.993-17.867v-.86c0-6.907-5.636-12.503-12.592-12.503h-2.193c-6.956 0-12.592 5.596-12.592 12.504V43.1c0 2.915 2.376 5.273 5.304 5.273z" fill="#A1887F"/><path d="M71.82 24.717l10.021-.116c2.551-.033 4.633 2.016 4.633 4.549v11.392c8.096 0 14.655-6.042 14.655-13.486 0-7.45-6.56-13.486-14.655-13.486-8.095-.013-14.654 3.696-14.654 11.147z" fill="#20354D"/><path d="M82.017 60.8l12.617-5.699V42.197H82.017V60.8zM69.893 39.941h1.647V34.54l-2.44 4.007a.92.92 0 00.793 1.395z" fill="#A1887F"/><path d="M94.634 46.313c7.692-10.998 7.23-19.49 7.23-19.49l-8.33-3.637c-5.726 0-10.275 1.55-10.275 7.237l1.647.233c-1.647 17.24 9.728 15.657 9.728 15.657z" fill="#20354D"/><path d="M82.329 32.504h3.41v-9.318h-6.904v5.841a3.484 3.484 0 003.494 3.477z" fill="#20354D"/><path d="M82.259 37.241h2.687v-5.24H82.26v5.24z" fill="#20354D"/><path d="M84.945 40.853h3.078c1.698 0 3.078-1.37 3.078-3.057v-2.39c0-1.688-1.38-3.057-3.078-3.057-1.699 0-3.078 1.37-3.078 3.056v5.448z" fill="#A1887F"/><g clip-path="url(#clip1)"><path d="M9.544 37.013c-1.456-6.27 2.41-12.544 8.633-14.01 6.223-1.467 12.448 2.428 13.903 8.7 1.456 6.27-2.41 12.543-8.633 14.01-6.223 1.467-12.448-2.428-13.903-8.7z" fill="#FEF1C3"/><path d="M0 83.872h9.88c23.747 0 42.996-19.398 42.996-43.327v-9.957H23.768C10.64 30.588 0 41.311 0 54.539v29.333z" fill="#FEF1C3"/><path d="M23.878 48.786c2.32 0 4.2 1.894 4.2 4.232v-4.232h-5.324 1.124z" fill="#FFD0C2"/><path d="M7.462 80.629v94.194H65V80.628c0-13.377-10.476-24.29-23.603-24.878-.369-.011-.733-.028-1.113-.028h-8.106c-.425 0-.843.011-1.268.028a24.542 24.542 0 00-11.958 3.837 24.922 24.922 0 00-11.49 21.041z" fill="#3E6896"/><path d="M18.957 59.587v54.678c0 6.253 5.02 11.306 11.22 11.306 6.19 0 11.22-5.059 11.22-11.306V55.75H30.91a24.541 24.541 0 00-11.953 3.837z" fill="#fff"/><path d="M22.622 48.93h4.304c10.487 0 18.99-8.568 18.99-19.136v-.922c0-7.397-5.952-13.389-13.286-13.389h-2.315c-7.34 0-13.287 5.998-13.287 13.39v14.41c-.005 3.12 2.502 5.648 5.594 5.648z" fill="#FFD0C2"/><path d="M28.078 62.242l13.314-6.498V42.316H28.077v19.926zM15.81 40.734h1.213v-4.032l-1.797 2.988a.688.688 0 00.585 1.044z" fill="#FFD0C2"/><path d="M41.392 46.726c8.123-11.784 7.632-20.875 7.632-20.875l-8.795-3.893c-6.045 0-10.845 1.66-10.845 7.753l1.735.25C29.384 48.42 41.392 46.725 41.392 46.725z" fill="#FEF1C3"/><path d="M34.388 36.352h18.439v-4.27C52.827 22.647 45.233 15 35.875 15H17.436v4.27c0 9.436 7.589 17.082 16.952 17.082z" fill="#FEF1C3"/><path d="M18.957 59.587v7.891c0 6.248 5.026 11.307 11.22 11.307 6.2 0 11.22-5.065 11.22-11.307V55.75H30.91a24.541 24.541 0 00-11.953 3.837z" fill="#FFD0C2"/></g><g clip-path="url(#clip2)"><path d="M178.545 48.497c2.339 0 4.232 1.917 4.232 4.276v-4.276h-5.362 1.13z" fill="#F4AF9A"/><path d="M162 161.903h58V68.256c0-7.044-5.651-12.753-12.622-12.753h-32.756c-6.971 0-12.622 5.71-12.622 12.753v93.647z" fill="#78909C"/><path d="M174.255 151.4h21.948V55.42h-6.769c-8.385 0-15.179 6.867-15.179 15.336V151.4z" fill="#fff"/><path d="M174.701 142.811l6.402 8.589 7.354-8.589-3.964-76.827H181.3l-6.599 76.827z" fill="#1AAECB"/><path d="M182.794 74.653l6.133-6.197-6.133-6.194-4.81 6.194 4.81 6.197z" fill="#1AAECB"/><path d="M177.282 48.643h4.34c10.572 0 19.139-8.657 19.139-19.338v-.93c0-7.476-5.997-13.536-13.397-13.536h-2.335c-7.4 0-13.398 6.06-13.398 13.536v14.566c.004 3.147 2.533 5.702 5.651 5.702z" fill="#F4AF9A"/><path d="M175.039 25.558c10.391 0 16.768-.575 14.45 14.6 7.981 0 14.449-6.54 14.449-14.6 0-8.064-6.468-14.6-14.449-14.6-7.978 0-14.45 6.536-14.45 14.6z" fill="#675752"/><path d="M182.777 62.096l13.426-6.168V41.954h-13.426v20.142zm-12.894-21.739h1.753v-5.851l-2.599 4.334c-.4.667.074 1.517.846 1.517z" fill="#F4AF9A"/><path d="M196.204 46.413c8.183-11.907 7.693-21.097 7.693-21.097l-8.865-3.938c-6.092 0-10.935 1.675-10.935 7.83l1.749.251c-1.749 18.667 10.358 16.954 10.358 16.954z" fill="#675752"/><path d="M185.892 40.503h3.275c1.811 0 3.275-1.483 3.275-3.309v-2.592c0-1.83-1.469-3.31-3.275-3.31-1.811 0-3.275 1.484-3.275 3.31v5.901z" fill="#F4AF9A"/><path d="M179.65 25.558h6.2c0-7.702-6.179-13.945-13.802-13.945h-6.199c0 7.702 6.179 13.945 13.801 13.945z" fill="#675752"/><path d="M187.694 25.062l6.113 1.038c1.262-7.598-3.807-14.787-11.327-16.062L176.367 9c-1.262 7.598 3.811 14.787 11.327 16.062zm-4.673 14.549c1.608 0 2.916-1.32 2.916-2.946v-9.052h-2.916V39.61z" fill="#675752"/><path d="M171.636 30.1h10.254c2.186 0 3.96-1.791 3.96-4s-1.774-4.001-3.96-4.001h-6.245c-2.215 0-4.009 1.813-4.009 4.05v3.952z" fill="#F4AF9A"/></g></g><defs><clipPath id="clip0"><path fill="#fff" d="M0 0h220v120H0z"/></clipPath><clipPath id="clip1"><path fill="#fff" transform="matrix(-1 0 0 1 65 15)" d="M0 0h65v105H0z"/></clipPath><clipPath id="clip2"><path fill="#fff" transform="translate(162 9)" d="M0 0h58v111H0z"/></clipPath></defs></svg>