<svg width="63" height="63" fill="none" xmlns="http://www.w3.org/2000/svg"><g clip-path="url(#clip0)" fill="#fff" fill-opacity=".25"><path d="M23.83 28.215l-3.965 1.616 4.854 11.904 3.963-1.616-4.853-11.904zm13.452-4.217c-1.204-.57-2.49-.575-3.86-.017a5.145 5.145 0 00-1.3.747 3.373 3.373 0 00-.831.949c-.193.34-.335.64-.424.901a5.574 5.574 0 00-.21.827l-.69-1.693-3.952 1.611.247.572c.165.381.652 1.565 1.462 3.55.81 1.987 1.858 4.58 3.144 7.782l3.952-1.61-2.708-6.644c-.166-.408-.255-.75-.265-1.027a2.76 2.76 0 01.345-1.338c.227-.415.593-.725 1.098-.93.689-.282 1.292-.25 1.811.094.519.345.95.937 1.292 1.778l2.596 6.366 3.952-1.61-2.782-6.823c-.715-1.754-1.674-2.916-2.877-3.485zm-17.747-.715c-.665.271-1.124.685-1.378 1.241-.254.557-.26 1.131-.019 1.724.238.584.638.991 1.198 1.22.56.23 1.17.21 1.826-.057l.024-.01c.673-.274 1.135-.692 1.388-1.252.252-.56.255-1.132.009-1.713-.25-.59-.654-.997-1.213-1.222-.558-.225-1.17-.202-1.835.07z"/></g><rect x="1.955" y="18.98" width="45.096" height="44.408" rx="4.5" transform="rotate(-22.18 1.955 18.98)" stroke="#fff" stroke-opacity=".25" stroke-width="3"/><defs><clipPath id="clip0"><path transform="rotate(-22.18 17.134 23.785)" fill="#fff" d="M17.134 23.785h19.925V43.71H17.134z"/></clipPath></defs></svg>