<svg width="212" height="33" fill="none" xmlns="http://www.w3.org/2000/svg"><rect x="130.493" y="5.785" width="37.926" height="21.856" rx="2" fill="#fff"/><path fill-rule="evenodd" clip-rule="evenodd" d="M136.981 13.243h-1.27v4.42h1.254c.676 0 1.154-.148 1.583-.511a2.235 2.235 0 00.808-1.699c0-1.303-.973-2.21-2.375-2.21zm1.006 3.332c-.28.23-.626.346-1.187.346h-.231v-2.919h.231c.561 0 .89.099 1.187.346.297.264.479.676.479 1.105 0 .429-.182.858-.479 1.122zm1.765 1.088h.858v-4.42h-.858v4.42zm2.968-2.72c-.527-.199-.676-.314-.676-.562 0-.28.281-.478.643-.478.264 0 .479.1.693.346l.462-.577a1.949 1.949 0 00-1.303-.494c-.791 0-1.385.544-1.385 1.27 0 .61.28.907 1.088 1.203.347.116.512.198.594.248a.53.53 0 01.264.461c0 .363-.28.627-.676.627s-.742-.214-.94-.593l-.545.544c.396.577.874.84 1.534.84.891 0 1.518-.593 1.518-1.45-.001-.71-.297-1.023-1.271-1.386zm1.534.51c0 1.303 1.023 2.31 2.342 2.31a2.36 2.36 0 001.072-.248v-1.023c-.346.346-.643.495-1.039.495-.857 0-1.484-.643-1.484-1.534 0-.841.643-1.517 1.451-1.517.412 0 .726.148 1.072.495v-1.006a2.068 2.068 0 00-1.055-.28c-1.303 0-2.359 1.039-2.359 2.308z" fill="#000"/><path fill-rule="evenodd" clip-rule="evenodd" d="M150.356 13.145c-1.303 0-2.358 1.022-2.358 2.275 0 1.353 1.006 2.342 2.358 2.342 1.319 0 2.358-1.006 2.358-2.309 0-1.286-1.022-2.308-2.358-2.308z" fill="#ED6500"/><path fill-rule="evenodd" clip-rule="evenodd" d="M154.66 16.211l-1.17-2.968h-.957l1.88 4.535h.462l1.913-4.535h-.94l-1.188 2.968zm2.524 1.452h2.441v-.743h-1.584v-1.187h1.518v-.759h-1.518v-.973h1.584v-.758h-2.441v4.42zm5.854-3.117c0-.825-.56-1.303-1.566-1.303h-1.27v4.42h.857v-1.765h.116l1.187 1.765h1.056l-1.386-1.864c.643-.132 1.006-.577 1.006-1.253zm-1.731.742h-.248v-1.353h.264c.544 0 .825.231.825.66 0 .445-.28.693-.841.693zm-25.399 3.672v.396h.489v.16h-.489v.69h-.176V18.8h.681v.16h-.505zm1.308-.16h.175v1.407h-.175V18.8zm1.025-.067l1.055 1.106V18.8h.175v1.465l-1.056-1.107v1.049h-.174v-1.474zm2.856.96h-.501l.251-.569.25.57zm.073.161l.16.353h.189l-.672-1.467-.672 1.467h.189l.16-.353h.646zm1.053-1.121l1.056 1.106V18.8h.176v1.465l-1.058-1.107v1.049h-.174v-1.474zm3.108.336a.566.566 0 00-.372-.138.564.564 0 00-.555.575c0 .307.238.57.552.57.138 0 .27-.052.375-.145v.207a.76.76 0 01-.37.098.727.727 0 01-.733-.725.74.74 0 011.102-.646v.204h.001zm.807-.269h.175v1.407h-.175V18.8zm1.813.894h-.5l.251-.57.249.57zm.073.16l.16.353h.189l-.671-1.467-.672 1.467h.188l.16-.353h.646zm1.245.193h.427v.16h-.602V18.8h.175v1.247zm2.913-.98a.239.239 0 00-.226-.133c-.112 0-.236.076-.236.2 0 .11.11.168.197.201l.1.04c.2.078.35.188.35.423a.434.434 0 01-.45.439.436.436 0 01-.434-.394l.177-.037a.262.262 0 00.271.267c.151 0 .259-.127.259-.275 0-.15-.121-.216-.242-.267l-.096-.04c-.161-.07-.307-.16-.307-.357 0-.228.202-.364.415-.364a.4.4 0 01.361.213l-.139.084zm.979-.267h.756v.16h-.58v.395h.564v.16h-.564v.532h.58v.16h-.756V18.8zm1.752.157h.045c.175 0 .383.031.383.252 0 .224-.195.257-.374.257h-.054v-.51zm.255.638a.384.384 0 00.338-.394.39.39 0 00-.186-.336c-.111-.063-.246-.065-.37-.065h-.213v1.407h.176v-.595h.072l.414.595h.213l-.444-.612zm1.649.246l.418-1.041h.192l-.61 1.482-.612-1.482h.192l.42 1.041zm1.327-1.041h.175v1.407h-.175V18.8zm2.067.269a.57.57 0 00-.373-.138.563.563 0 00-.555.575c0 .307.238.57.551.57a.565.565 0 00.377-.145v.207a.763.763 0 01-.37.098.729.729 0 01-.734-.725.74.74 0 011.104-.646v.204zm.81-.269h.756v.16h-.58v.395h.564v.16h-.564v.532h.58v.16h-.756V18.8zm2.2.267c-.051-.088-.118-.133-.225-.133-.111 0-.235.076-.235.2 0 .11.109.168.196.201l.101.04c.199.078.348.188.348.423a.433.433 0 01-.449.439.436.436 0 01-.434-.394l.176-.037a.264.264 0 00.273.267c.151 0 .26-.127.26-.275 0-.15-.123-.216-.243-.267l-.097-.04c-.161-.07-.307-.16-.307-.357 0-.228.202-.364.415-.364.156 0 .285.077.362.213l-.141.084zm.321-5.432c0 .034-.023.052-.07.052h-.016v-.102h.017c.047 0 .069.016.069.05zm.138.268l-.128-.162a.107.107 0 00.086-.109c0-.076-.053-.119-.148-.119h-.124v.39h.092v-.151l.109.15h.113zm.164-.196a.339.339 0 00-.576-.24.345.345 0 00-.099.24c0 .19.152.34.34.34a.339.339 0 00.335-.34zm-.068.001c0 .153-.12.278-.268.278a.276.276 0 01-.272-.278c0-.155.122-.278.272-.278.148 0 .268.125.268.278z" fill="#000"/><rect x="86.782" y="5.785" width="37.926" height="21.856" rx="2" fill="#fff"/><g clip-path="url(#clip0)" fill-rule="evenodd" clip-rule="evenodd"><path d="M95.78 6.428h20.571v20.57h-20.57V6.429z" fill="#fff"/><path d="M106.065 21.174a6.02 6.02 0 001.964-4.46 6.034 6.034 0 00-1.964-4.46 5.926 5.926 0 00-4.009-1.558c-3.3 0-5.974 2.694-5.974 6.018 0 3.323 2.675 6.017 5.974 6.017 1.543 0 2.949-.59 4.009-1.557z" fill="#3A9BD9"/><path d="M110.075 10.696c-1.543 0-2.95.59-4.01 1.558-.216.197-.417.41-.603.637h1.206c.166.202.318.415.456.637h-2.117a6.126 6.126 0 00-.344.637h2.805c.096.208.181.42.253.637h-3.311c-.07.21-.128.422-.174.637h3.659c.089.42.134.846.134 1.275a6.04 6.04 0 01-.308 1.911h-3.311c.072.217.156.43.253.637h2.805c-.102.22-.217.432-.344.637h-2.117a6.1 6.1 0 00.455.638h1.206c-.185.226-.386.44-.603.637a5.928 5.928 0 004.01 1.557c3.299 0 5.973-2.694 5.973-6.017 0-3.324-2.674-6.018-5.973-6.018z" fill="#CC2131"/><path d="M115.253 20.068c0-.107.086-.195.193-.195a.194.194 0 11-.137.332.195.195 0 01-.056-.137zm.193.147a.146.146 0 00.146-.147.147.147 0 10-.293 0c0 .082.066.147.147.147zm-.026-.062h-.04v-.17h.072c.015 0 .03 0 .043.008a.05.05 0 01.016.019.05.05 0 01.006.024.046.046 0 01-.03.044l.032.075h-.044l-.026-.067h-.029v.067-.097h.022c.008 0 .017 0 .024-.003a.018.018 0 00.007-.009.022.022 0 00.003-.01.018.018 0 00-.003-.01.024.024 0 00-.007-.008c-.007-.004-.018-.003-.025-.003h-.021v.14z" fill="#CC2131"/><path d="M113.989 18.018c0-.108.087-.195.193-.195.107 0 .193.087.193.195a.193.193 0 11-.386 0zm.193.147a.147.147 0 000-.295.147.147 0 00-.146.148c0 .081.065.147.146.147zm-.026-.062h-.039v-.17h.071c.015 0 .03 0 .043.008a.043.043 0 01.016.018.05.05 0 01.006.024c0 .02-.011.038-.029.044l.031.076h-.044l-.026-.068h-.029v.068-.097h.022c.008 0 .017 0 .024-.003a.03.03 0 00.008-.009.04.04 0 00.002-.01.018.018 0 00-.003-.01c-.001-.004-.004-.006-.006-.008-.007-.004-.018-.003-.026-.003h-.021v.14zm-12.847.109h-.743l.442-2.345-1.017 2.345h-.678l-.124-2.332-.443 2.332h-.675l.576-3.05h1.16l.062 1.888.818-1.889h1.208l-.586 3.051zm8.308-.03c-.203.056-.362.08-.534.08-.38 0-.588-.192-.588-.545 0-.07.008-.144.022-.222l.045-.243.035-.196.345-1.895h.739l-.107.57h.379l-.102.603h-.381l-.196 1.035a.591.591 0 00-.012.103c0 .128.077.184.253.184a.696.696 0 00.201-.023l-.099.549zm2.172-2.43c-.063-.026-.077-.026-.085-.027l-.064-.015a.403.403 0 00-.074-.006c-.245 0-.42.11-.648.403l.066-.376h-.674l-.453 2.48h.744c.266-1.517.38-1.782.737-1.782a.82.82 0 01.094.006l.087.018.27-.702zm-5.119.763c0 .313.176.529.573.691.305.125.352.161.352.274 0 .154-.135.224-.432.224-.224 0-.433-.03-.674-.098l-.103.572.033.006.138.025a5.722 5.722 0 00.611.042c.794 0 1.16-.261 1.16-.827 0-.34-.153-.54-.53-.69-.315-.126-.351-.154-.351-.27 0-.134.125-.202.368-.202.147 0 .349.014.54.037l.107-.575a5.888 5.888 0 00-.662-.048c-.841 0-1.132.381-1.13.839zm-2.944 1.697h-.618l.015-.257c-.188.203-.439.3-.78.3-.403 0-.679-.276-.679-.678 0-.604.48-.957 1.305-.957.085 0 .193.007.303.02a.55.55 0 00.03-.162c0-.164-.13-.225-.477-.225-.212 0-.452.027-.618.069l-.103.026-.067.016.103-.558c.371-.095.616-.131.89-.131.639 0 .977.252.977.727 0 .123-.011.216-.06.492l-.156.88-.026.158-.019.126-.013.087-.007.067zm-.542-1.105a1.34 1.34 0 00-.166-.01c-.422 0-.635.126-.635.377 0 .154.104.253.266.253.304 0 .522-.253.535-.62zm2.981 1.051a2.884 2.884 0 01-.762.101c-.831 0-1.264-.382-1.264-1.111 0-.852.551-1.48 1.299-1.48.612 0 1.003.352 1.003.902 0 .183-.027.362-.091.613h-1.479a.675.675 0 00-.007.078c0 .288.221.434.652.434.266 0 .506-.048.772-.157l-.123.62zm-.396-1.476a1.71 1.71 0 00.006-.127c0-.201-.13-.32-.352-.32-.236 0-.405.16-.474.446l.82.001zm8.33.405c-.111.825-.683 1.191-1.444 1.191-.841 0-1.18-.513-1.18-1.143 0-.88.575-1.475 1.464-1.475.771 0 1.18.49 1.18 1.12 0 .153 0 .163-.02.307zm-.765-.317c0-.26-.105-.505-.41-.505-.379 0-.614.452-.614.85 0 .337.161.563.427.558.161 0 .505-.221.573-.607.016-.09.024-.19.024-.296z" fill="#fff"/></g><rect x="43.712" y="5.785" width="37.926" height="21.856" rx="2" fill="#fff"/><g clip-path="url(#clip1)"><path d="M71.615 23.584v.038h.037a.04.04 0 00.019-.005.019.019 0 00.005-.006.015.015 0 00.002-.009.016.016 0 00-.007-.014.034.034 0 00-.02-.005h-.035zm.037-.027c.015 0 .03.003.043.012a.04.04 0 01.015.034c0 .005 0 .011-.003.016a.04.04 0 01-.009.014.06.06 0 01-.034.014l.048.054h-.037l-.045-.054h-.014v.054h-.031v-.144h.067zm-.01.194a.118.118 0 00.086-.036.12.12 0 00-.086-.204.127.127 0 00-.087.034.123.123 0 00-.026.133.113.113 0 00.026.038.123.123 0 00.087.035zm0-.275a.163.163 0 01.148.095.152.152 0 01-.034.17.16.16 0 01-.113.046.161.161 0 01-.115-.047.162.162 0 01-.046-.11.151.151 0 01.046-.11.161.161 0 01.114-.046v.002zm-14.764-.555c0-.274.182-.5.48-.5.285 0 .477.216.477.5 0 .284-.192.499-.477.499-.298 0-.48-.225-.48-.5zm1.281 0v-.78h-.344v.19a.603.603 0 00-.5-.229c-.443 0-.791.343-.791.82 0 .475.347.818.791.818.225 0 .39-.088.5-.228v.189h.344v-.78zm11.628 0c0-.274.182-.5.48-.5.285 0 .477.216.477.5 0 .284-.192.499-.477.499-.298 0-.48-.225-.48-.5zm1.282 0v-1.407h-.345v.817a.603.603 0 00-.5-.229c-.443 0-.791.343-.791.82 0 .475.348.818.791.818a.603.603 0 00.5-.228v.189h.345v-.78zm-8.639-.516c.222 0 .365.137.4.379h-.82c.037-.226.175-.379.42-.379zm.007-.304c-.463 0-.788.333-.788.82 0 .495.337.818.811.818a.97.97 0 00.65-.218l-.17-.252a.761.761 0 01-.46.163c-.222 0-.424-.1-.473-.381h1.175c.003-.043.007-.085.007-.13-.004-.487-.309-.82-.752-.82zm4.155.82c0-.275.182-.5.48-.5.285 0 .477.215.477.5 0 .283-.192.498-.477.498-.298 0-.48-.225-.48-.499zm1.281 0v-.78h-.344v.19a.604.604 0 00-.5-.229c-.443 0-.791.343-.791.82 0 .475.348.818.791.818.225 0 .39-.088.5-.228v.189h.344v-.78zm-3.224 0c0 .472.334.818.844.818a.835.835 0 00.569-.186l-.165-.274a.702.702 0 01-.415.14c-.275-.003-.477-.199-.477-.499s.202-.496.477-.5c.15 0 .285.05.415.141l.165-.274a.836.836 0 00-.57-.186c-.51 0-.843.346-.843.82zm4.436-.82a.468.468 0 00-.417.229v-.19h-.341v1.56h.344v-.874c0-.258.113-.402.338-.402a.566.566 0 01.215.04l.106-.32a.74.74 0 00-.245-.043zm-9.224.164c-.166-.108-.394-.164-.646-.164-.4 0-.659.19-.659.5 0 .254.192.41.546.46l.163.023c.188.026.278.075.278.163 0 .12-.126.19-.361.19a.851.851 0 01-.526-.164l-.162.264c.188.137.427.203.685.203.457 0 .722-.212.722-.51 0-.273-.209-.417-.553-.466l-.162-.023c-.15-.019-.269-.049-.269-.153 0-.114.113-.183.302-.183.202 0 .397.075.493.134l.15-.274h-.001zm4.44-.163a.467.467 0 00-.417.228v-.19h-.34v1.56h.343v-.874c0-.258.113-.402.338-.402a.565.565 0 01.215.04l.106-.32a.74.74 0 00-.245-.043zm-2.937.039h-.562v-.473h-.348v.473h-.321v.31h.32v.71c0 .363.143.578.55.578a.81.81 0 00.43-.12l-.099-.29a.644.644 0 01-.304.087c-.172 0-.228-.104-.228-.26v-.705h.562v-.31zM56.22 23.7v-.98c0-.368-.238-.616-.622-.62a.616.616 0 00-.557.278.583.583 0 00-.523-.277.526.526 0 00-.463.231v-.192h-.345v1.56h.348v-.865c0-.27.152-.414.387-.414.229 0 .344.147.344.41v.869h.348v-.865c0-.27.16-.414.387-.414.235 0 .348.146.348.41v.869h.348z" fill="#231F20"/><path d="M71.812 18.513v-.228h-.06l-.07.156-.07-.156h-.06v.228h.043v-.172l.065.148h.044l.066-.148v.172h.042zm-.382 0v-.189h.077v-.039h-.197v.039h.077v.189h.042z" fill="#F79410"/><path d="M64.962 19.49h-5.215v-9.235h5.215v9.236z" fill="#FF5F00"/><path d="M60.078 14.873c0-1.873.89-3.542 2.276-4.618A5.99 5.99 0 0058.671 9c-3.292 0-5.96 2.63-5.96 5.874 0 3.244 2.668 5.874 5.96 5.874a5.99 5.99 0 003.683-1.256 5.834 5.834 0 01-2.276-4.618z" fill="#EB001B"/><path d="M71.998 14.873c0 3.244-2.669 5.874-5.96 5.874a5.992 5.992 0 01-3.684-1.256 5.833 5.833 0 002.277-4.618c0-1.873-.89-3.542-2.277-4.618A5.992 5.992 0 0166.038 9c3.291 0 5.96 2.63 5.96 5.873" fill="#F79E1B"/></g><rect y="5.785" width="37.926" height="21.856" rx="2" fill="#fff"/><path d="M16.303 20.855h-2.266l1.416-8.704h2.266l-1.416 8.704zm-4.173-8.704l-2.16 5.987-.256-1.29v.001l-.762-3.914s-.092-.784-1.075-.784H4.305l-.042.148s1.092.227 2.37.994l1.97 7.563h2.36l3.606-8.705H12.13zm17.825 8.704h2.08l-1.814-8.704H28.4c-.842 0-1.046.649-1.046.649l-3.38 8.055h2.362l.473-1.293h2.88l.266 1.293zm-2.494-3.079l1.19-3.257.67 3.257h-1.86zm-3.31-3.532l.323-1.869s-.998-.38-2.038-.38c-1.125 0-3.795.492-3.795 2.882 0 2.249 3.134 2.277 3.134 3.458s-2.811.97-3.739.225l-.337 1.954s1.012.492 2.558.492c1.546 0 3.88-.801 3.88-2.98 0-2.264-3.163-2.474-3.163-3.458s2.207-.858 3.177-.324z" fill="#2566AF"/><path d="M9.714 16.849l-.762-3.915s-.092-.783-1.075-.783H4.305l-.042.147s1.717.356 3.363 1.689c1.575 1.274 2.088 2.862 2.088 2.862z" fill="#E6A540"/><rect x="173.562" y="5.785" width="37.926" height="21.856" rx="2" fill="#fff"/><path d="M181.399 12.856l-3.337 7.062h3.995l.495-1.126h1.132l.495 1.126h4.398v-.86l.392.86h2.274l.392-.877v.877h9.146l1.112-1.097 1.041 1.097 4.697.01-3.347-3.521 3.347-3.55h-4.624l-1.083 1.076-1.008-1.077h-9.949l-.855 1.823-.874-1.823h-3.987v.83l-.443-.83h-3.409zm.773 1.003h1.947l2.214 4.789v-4.789h2.133l1.71 3.434 1.575-3.434h2.123v5.067h-1.292l-.01-3.97-1.883 3.97h-1.155l-1.894-3.97v3.97h-2.657l-.504-1.136h-2.721l-.503 1.135h-1.424l2.341-5.066zm12.884 0h5.251l1.607 1.66 1.658-1.66h1.606l-2.44 2.547 2.44 2.517h-1.679l-1.606-1.678-1.667 1.678h-5.17V13.86zm-11.937.857l-.897 2.024h1.793l-.896-2.024zm13.234.192v.925h2.865v1.031h-2.865v1.01h3.213l1.493-1.487-1.429-1.48h-3.277v.001z" fill="#3A9BD9"/><defs><clipPath id="clip0"><path fill="#fff" d="M95.78 6.428h20.57v20.57H95.78z"/></clipPath><clipPath id="clip1"><path fill="#fff" d="M52.711 9h19.285v14.785H52.711z"/></clipPath></defs></svg>