<svg width="16" height="15" fill="none" xmlns="http://www.w3.org/2000/svg"><path d="M7.57 7.197c-1.354 0-2.645-1.328-2.645-3.223 0-1.407.351-2.175.774-2.597C6.123.954 6.747.75 7.57.75c.824 0 1.448.204 1.871.627.424.422.774 1.19.774 2.597L7.57 7.197zm0 0c1.355 0 2.645-1.328 2.645-3.223L7.57 7.197zM.76 14.1h0a.104.104 0 00.007.102c.02.03.052.048.09.048h13.428a.103.103 0 00.089-.048h0a.103.103 0 00.008-.101h0l-1.713-3.859s0 0 0 0a.109.109 0 00-.048-.051h0l-2.346-1.222a4.938 4.938 0 01-5.408 0L2.52 10.191a.11.11 0 00-.048.05v.001L.76 14.1zm3.802-5.345l.002.002-.002-.002h0z" stroke="#36A2B7" stroke-width="1.5"/></svg>