<svg width="194" height="26" fill="none" xmlns="http://www.w3.org/2000/svg"><path d="M12.203 5.13v16.258H7.707V5.131H2V1.234h15.91V5.13h-5.707zm12.752 7.899v8.359H20.63V0h4.324v7.61c1.303-1.326 2.767-1.995 4.38-1.995 1.638 0 3.01.577 4.128 1.73 1.119 1.153 1.672 2.686 1.672 4.612v9.431h-4.323v-8.475c0-2.386-.877-3.574-2.629-3.574-.865 0-1.626.323-2.271.946-.634.622-.957 1.533-.957 2.744zM53.34 17.93c-1.43 1.925-3.32 3.1-5.65 3.516-2.305.403-4.346.034-6.11-1.119-1.764-1.176-2.86-2.963-3.286-5.361-.426-2.398 0-4.45 1.291-6.134 1.303-1.695 2.998-2.721 5.108-3.09 2.098-.369 3.989-.046 5.672.957 1.695 1.003 2.744 2.617 3.136 4.83l.404 2.272-11.126 1.96c.277.808.83 1.419 1.672 1.81.83.404 1.706.52 2.64.358 1.499-.265 2.64-.98 3.424-2.156l2.825 2.156zm-4.3-6.423c-.254-.888-.715-1.534-1.396-1.926-.668-.392-1.44-.507-2.282-.357-.83.15-1.557.542-2.168 1.176a2.943 2.943 0 00-.853 2.283l6.698-1.176z" fill="#36A2B8"/><path d="M93.436 7.921c0 3.228-1.28 5.315-3.827 6.25l8.554 11.817H92.63l-7.932-11.034h-3.113v6.422h-4.496V1.235h7.644c3.136 0 5.36.53 6.687 1.59 1.349 1.062 2.017 2.756 2.017 5.097zM84.87 11.07c1.533 0 2.583-.254 3.136-.75.553-.496.83-1.291.83-2.363 0-1.096-.288-1.845-.864-2.249-.577-.403-1.591-.61-3.033-.61h-3.378v5.972h3.31zm27.024 6.86c-1.429 1.925-3.32 3.1-5.649 3.516-2.306.403-4.346.034-6.11-1.119-1.764-1.176-2.86-2.963-3.286-5.361-.427-2.398 0-4.45 1.291-6.134 1.303-1.695 2.998-2.721 5.107-3.09 2.099-.369 3.99-.046 5.673.957 1.695 1.003 2.744 2.617 3.136 4.83l.403 2.272-11.125 1.96c.276.808.83 1.419 1.671 1.81.83.404 1.707.52 2.641.358 1.498-.265 2.64-.98 3.424-2.156l2.824 2.156zm-4.288-6.423c-.254-.888-.715-1.534-1.395-1.926-.681-.38-1.442-.495-2.295-.346-.83.15-1.556.542-2.167 1.177a2.94 2.94 0 00-.853 2.282l6.71-1.187zm19.484 5.062c0 1.521-.565 2.744-1.695 3.666-1.118.922-2.536 1.384-4.265 1.384-1.153 0-2.352-.208-3.609-.611a10.877 10.877 0 01-3.367-1.845l1.903-2.71c1.614 1.245 3.332 1.88 5.165 1.88.553 0 1.003-.104 1.326-.312.322-.23.495-.53.495-.9 0-.368-.23-.702-.691-1.014-.439-.311-1.096-.6-1.96-.864-.842-.266-1.499-.496-1.96-.692a13.165 13.165 0 01-1.522-.83c-1.176-.727-1.764-1.81-1.764-3.229 0-1.441.576-2.617 1.729-3.516 1.153-.9 2.64-1.36 4.474-1.36 1.821 0 3.654.61 5.476 1.844l-1.614 2.882c-1.349-.922-2.686-1.383-4.035-1.383-1.326 0-1.983.369-1.983 1.095 0 .404.207.726.634.945.426.231 1.13.496 2.11.808.98.31 1.671.553 2.075.726.426.15.922.404 1.499.75 1.049.657 1.579 1.752 1.579 3.286zm13.305-2.329V5.88h4.347v15.508h-4.347v-2.04c-1.072 1.521-2.467 2.282-4.185 2.282-1.695 0-3.113-.53-4.266-1.591-1.153-1.072-1.729-2.663-1.729-4.762V5.88h4.358v8.44c0 2.387.876 3.574 2.629 3.574.864 0 1.614-.31 2.248-.922.634-.634.945-1.545.945-2.733zm22.678-1.211v8.359h-4.358v-8.475c0-1.233-.196-2.133-.576-2.709-.369-.577-.969-.865-1.811-.865-.83 0-1.567.323-2.225.946-.634.61-.945 1.522-.945 2.732v8.36h-4.324V5.88h4.324v1.753c1.187-1.35 2.559-2.018 4.093-2.018.98 0 1.868.288 2.652.865.807.576 1.406 1.28 1.81 2.11a6.145 6.145 0 012.386-2.19c1.015-.52 2.041-.785 3.055-.785 1.822 0 3.298.553 4.405 1.649 1.118 1.072 1.671 2.64 1.671 4.692v9.432h-4.346v-8.475c0-2.386-.876-3.574-2.629-3.574-.864 0-1.614.323-2.248.946-.623.622-.934 1.533-.934 2.744zm28.362 4.819c-1.441 1.926-3.32 3.102-5.649 3.517-2.306.404-4.347.035-6.111-1.118-1.764-1.177-2.859-2.964-3.286-5.362-.426-2.398 0-4.45 1.292-6.134 1.302-1.695 2.997-2.72 5.107-3.09 2.098-.369 3.989-.046 5.672.957 1.695 1.003 2.744 2.617 3.136 4.831l.404 2.272-11.126 1.96c.277.807.83 1.418 1.672 1.81.83.403 1.706.519 2.64.357 1.499-.265 2.64-.98 3.424-2.156l2.825 2.156zm-4.289-6.422c-.254-.888-.715-1.533-1.395-1.925-.669-.392-1.441-.508-2.283-.358-.83.15-1.556.542-2.167 1.176a2.94 2.94 0 00-.853 2.283l6.698-1.176zM68 13a3 3 0 11-6 0 3 3 0 016 0z" fill="#333"/></svg>