<svg width="156" height="21" fill="none" xmlns="http://www.w3.org/2000/svg"><path d="M9.813 4.144v13.131H6.198V4.145h-4.59V.996h12.794v3.147H9.813zm10.254 6.379v6.752H16.59V0h3.477v6.146c1.048-1.07 2.225-1.61 3.523-1.61 1.316 0 2.42.465 3.319 1.396.9.931 1.344 2.17 1.344 3.725v7.618h-3.476V10.43c0-1.928-.705-2.887-2.114-2.887-.695 0-1.307.261-1.827.764-.51.503-.77 1.238-.77 2.216zm22.825 3.958c-1.15 1.555-2.67 2.505-4.543 2.84-1.854.326-3.495.028-4.914-.903-1.418-.95-2.299-2.393-2.642-4.33-.343-1.937 0-3.595 1.038-4.955 1.048-1.368 2.41-2.197 4.107-2.495 1.688-.298 3.208-.038 4.562.773 1.363.81 2.206 2.114 2.521 3.902l.325 1.834-8.947 1.583c.223.652.668 1.146 1.345 1.463a3.39 3.39 0 002.123.288c1.205-.214 2.123-.791 2.753-1.741l2.272 1.741zm-3.458-5.187c-.204-.717-.575-1.239-1.122-1.555-.538-.317-1.16-.41-1.836-.289a3.15 3.15 0 00-1.743.95 2.383 2.383 0 00-.686 1.844l5.387-.95z" fill="#555454"/><path d="M75.135 6.398c0 2.607-1.03 4.293-3.079 5.047l6.88 9.546h-4.45l-6.379-8.912h-2.503v5.187h-3.616V.996h6.147c2.522 0 4.31.429 5.377 1.286 1.085.856 1.623 2.225 1.623 4.116zM68.246 8.94c1.233 0 2.077-.205 2.522-.605.445-.4.667-1.043.667-1.91 0-.884-.231-1.49-.695-1.815-.463-.326-1.28-.494-2.438-.494h-2.717V8.94h2.661zm21.731 5.541c-1.15 1.555-2.67 2.505-4.543 2.84-1.854.326-3.495.028-4.913-.903-1.419-.95-2.3-2.393-2.642-4.33-.344-1.937 0-3.595 1.038-4.955 1.047-1.368 2.41-2.197 4.107-2.495 1.687-.298 3.208-.038 4.561.773 1.363.81 2.207 2.114 2.522 3.902l.324 1.834-8.946 1.583c.222.652.667 1.146 1.344 1.463a3.389 3.389 0 002.123.288c1.206-.214 2.123-.791 2.754-1.741l2.271 1.741zm-3.449-5.187c-.204-.717-.575-1.239-1.122-1.555-.547-.308-1.158-.4-1.844-.28a3.15 3.15 0 00-1.743.95 2.383 2.383 0 00-.686 1.844l5.395-.959zm15.668 4.088c0 1.23-.454 2.217-1.363 2.962-.9.745-2.04 1.117-3.43 1.117-.927 0-1.891-.167-2.902-.493a8.726 8.726 0 01-2.707-1.49l1.53-2.189c1.298 1.006 2.679 1.518 4.153 1.518.445 0 .807-.084 1.066-.251.26-.187.399-.429.399-.727s-.186-.568-.556-.82c-.353-.25-.881-.484-1.576-.698-.677-.214-1.206-.4-1.576-.559-.353-.158-.76-.381-1.224-.67-.946-.587-1.419-1.462-1.419-2.608 0-1.164.464-2.114 1.39-2.84.928-.726 2.124-1.099 3.598-1.099 1.465 0 2.939.494 4.404 1.49l-1.298 2.328c-1.085-.745-2.16-1.117-3.245-1.117-1.066 0-1.595.298-1.595.885 0 .325.167.586.51.763.343.186.909.4 1.697.652.788.251 1.344.447 1.669.587.343.12.741.326 1.205.605.843.53 1.27 1.416 1.27 2.654zm10.699-1.881V4.75h3.495v12.525h-3.495v-1.648c-.862 1.229-1.984 1.844-3.365 1.844-1.363 0-2.503-.429-3.43-1.286-.927-.866-1.391-2.15-1.391-3.846V4.75h3.504v6.817c0 1.928.705 2.887 2.114 2.887.696 0 1.298-.251 1.808-.745.51-.512.76-1.248.76-2.207zm18.236-.978v6.752h-3.505V10.43c0-.996-.157-1.723-.463-2.188-.297-.466-.779-.699-1.456-.699-.667 0-1.261.26-1.789.764-.51.493-.76 1.229-.76 2.207v6.752h-3.477V4.748h3.477v1.416c.955-1.09 2.058-1.63 3.291-1.63.788 0 1.502.233 2.132.699a4.484 4.484 0 011.456 1.704 4.952 4.952 0 011.919-1.77c.816-.419 1.641-.633 2.457-.633 1.465 0 2.651.447 3.541 1.332.899.866 1.344 2.132 1.344 3.79v7.618h-3.495V10.43c0-1.928-.704-2.887-2.113-2.887-.696 0-1.298.26-1.808.764-.501.503-.751 1.238-.751 2.216zm22.807 3.893c-1.159 1.555-2.671 2.505-4.543 2.84-1.854.326-3.495.028-4.914-.903-1.418-.95-2.299-2.393-2.642-4.33-.343-1.937 0-3.595 1.038-4.955 1.048-1.369 2.411-2.197 4.107-2.495 1.688-.299 3.208-.038 4.562.772 1.362.81 2.206 2.114 2.521 3.902l.325 1.835-8.947 1.583c.223.652.668 1.146 1.345 1.462a3.389 3.389 0 002.123.289c1.205-.214 2.123-.792 2.753-1.742l2.272 1.742zm-3.449-5.187c-.204-.717-.575-1.239-1.122-1.555-.538-.317-1.159-.41-1.836-.29a3.154 3.154 0 00-1.743.95 2.384 2.384 0 00-.686 1.845l5.387-.95zM54.68 10.5a2.418 2.418 0 01-2.412 2.423 2.418 2.418 0 01-2.413-2.423 2.418 2.418 0 012.413-2.423A2.418 2.418 0 0154.68 10.5z" fill="#7B7B7B"/></svg>