<svg width="120" height="120" fill="none" xmlns="http://www.w3.org/2000/svg"><g clip-path="url(#clip0)" fill="#fff" fill-opacity=".25"><path d="M33.957 116.882l.001.004c.019.053.04.104.063.155l.036.07.043.08c.015.026.032.051.048.075l.045.068.054.069.053.064c.018.02.038.04.058.059.02.021.04.043.061.062.02.019.042.036.063.053.022.019.044.039.068.056.024.019.05.036.076.053.021.014.042.03.064.043.048.03.098.057.15.082v.001c.052.025.105.047.158.067.025.009.05.016.076.024.029.009.057.019.087.026.029.008.059.014.088.02l.078.015c.03.005.06.007.089.01.027.003.054.007.08.008.029.002.057.001.085.002h.086l.083-.006c.029-.003.058-.004.086-.009.031-.004.062-.011.093-.017.024-.005.05-.008.074-.014a1.65 1.65 0 00.165-.048l78.33-27.203c.055-.019.108-.04.159-.064.024-.011.046-.024.068-.035.028-.015.056-.028.083-.044.025-.015.05-.032.074-.048.023-.015.046-.029.068-.045.024-.017.046-.036.069-.055l.064-.052a1.08 1.08 0 00.059-.058c.021-.02.043-.04.063-.062l.052-.061c.019-.023.039-.046.057-.07.018-.023.035-.05.052-.075l.044-.064c.029-.047.056-.097.081-.147l.001-.004.003-.005c.024-.05.045-.102.064-.153.01-.025.017-.051.025-.077.009-.028.019-.056.026-.085.008-.03.013-.06.019-.09.005-.025.012-.051.016-.077l.01-.089c.003-.027.007-.053.008-.08.002-.029.002-.057.002-.086v-.085c-.001-.028-.005-.056-.007-.084-.003-.029-.004-.057-.008-.086l-.018-.096c-.005-.023-.008-.047-.014-.07a1.676 1.676 0 00-.048-.166v-.001L99.434 42.075c0-.003-.002-.006-.003-.008-.017-.05-.037-.1-.059-.148l-.002-.004-.005-.009c-.008-.019-.02-.038-.029-.056a3.316 3.316 0 00-.037-.07l-.008-.016c-.014-.025-.03-.048-.046-.072l-.04-.062-.007-.009c-.01-.014-.022-.027-.033-.04a1.5 1.5 0 00-.02-.026.945.945 0 00-.045-.057l-.01-.01c-.017-.02-.037-.038-.056-.057l-.019-.02-.034-.035-.01-.009-.06-.051a.987.987 0 00-.061-.052l-.009-.006c-.012-.01-.025-.017-.038-.026l-.037-.026c-.02-.013-.039-.028-.06-.04l-.005-.004c-.028-.017-.058-.032-.087-.048-.021-.011-.041-.024-.064-.034l-13.946-6.758-1.626-4.68a1.739 1.739 0 00-2.212-1.073l-4.68 1.626-30.301-14.678a1.739 1.739 0 00-2.323.807L28.784 46.622 24.1 48.248a1.739 1.739 0 00-1.072 2.213l1.627 4.685L17.9 69.088a1.81 1.81 0 00-.067.159c-.01.024-.016.049-.024.074-.01.029-.02.058-.027.088-.008.029-.013.058-.019.087-.005.026-.012.053-.016.08a.983.983 0 00-.006.053l-.004.033c-.003.028-.007.055-.008.083-.002.027-.001.055-.002.082v.088l.005.06.002.022c.002.03.004.058.008.088l.001.007c.004.028.01.055.016.083l.015.077v.001a.01.01 0 010 .004l.031.104.016.053v.003h.001l16.136 46.464v.001zm-.66-38.401l.003.001 15.142 7.336-12.577 25.958-13.383-38.535 10.815 5.24zm5.697 34.811l12.577-25.958 19.901 9.642a1.739 1.739 0 002.323-.807l9.641-19.901 25.958 12.576-70.4 24.448zM97.528 47.18l13.382 38.534-25.958-12.576L97.528 47.18zm-2.058-3.73l-4.482 9.253-4.77-13.735 9.252 4.483zM45.834 19.405L71.44 31.808l-38.011 13.2 12.405-25.604zm-18.95 31.559l3.72-1.293 49.66-17.245 1.247 3.589c.022.084.05.166.085.246l7.248 20.869-17.42 35.96-35.962-17.423-8.578-24.703zm-.616 8.827l4.769 13.732-9.251-4.482 4.482-9.25z"/><path d="M43.038 56.959l28.266-9.817a1.739 1.739 0 10-1.141-3.284l-28.266 9.816a1.739 1.739 0 001.141 3.285zM38.825 67.64L81.23 52.914a1.739 1.739 0 00-1.14-3.285L37.684 64.355a1.739 1.739 0 101.141 3.285zm46.333-8.714a1.739 1.739 0 00-2.213-1.072L40.541 72.58a1.739 1.739 0 101.14 3.285l42.405-14.726a1.739 1.739 0 001.072-2.213zM79.923 69.96a1.739 1.739 0 00-2.213-1.072l-26.22 9.106a1.739 1.739 0 101.14 3.285l26.221-9.105a1.738 1.738 0 001.072-2.213z"/></g><defs><clipPath id="clip0"><path fill="#fff" transform="rotate(-19.151 91.518 15.439)" d="M0 0h94.123v94.123H0z"/></clipPath></defs></svg>