<svg width="29" height="29" fill="none" xmlns="http://www.w3.org/2000/svg"><g clip-path="url(#clip0)"><path d="M14.005 23.908a9.838 9.838 0 01-7.003-2.9 9.838 9.838 0 01-2.9-7.003 9.838 9.838 0 012.9-7.003 9.838 9.838 0 017.003-2.9 9.838 9.838 0 017.002 2.9 9.838 9.838 0 012.9 7.003 9.838 9.838 0 01-2.9 7.002 9.838 9.838 0 01-7.002 2.9zm5.908-15.812c-3.258-3.257-8.559-3.257-11.816 0-3.258 3.258-3.258 8.56 0 11.817 3.257 3.258 8.558 3.258 11.816 0 3.258-3.258 3.258-8.559 0-11.817zM14.004 15.1l2.462 2.462 1.094-1.094-2.462-2.462 2.462-2.462-1.094-1.094-2.462 2.462-2.461-2.462-1.095 1.095 2.462 2.461-2.462 2.462 1.095 1.094 2.461-2.462z" fill="#EE9283"/></g><defs><clipPath id="clip0"><path fill="#fff" transform="scale(1 -1) rotate(-45 -16.905 -7.002)" d="M0 0h19.806v19.806H0z"/></clipPath></defs></svg>