<svg width="68" height="68" fill="none" xmlns="http://www.w3.org/2000/svg"><path fill="#FFCF27" d="M50.999 2h4v59h-4z"/><circle cx="50.999" cy="5" r="4" fill="#FFCF27"/><path d="M40.58 15.355H10.127v2.193h30.451v-2.193z" fill="#333"/><path d="M18.999 56v-4.5h38.5v5l-38.5-.5z" fill="#C3DBEF" stroke="#000"/><path d="M42.773 19.742H10.128v2.193h32.645v-2.193zm4.387 6.581H10.128v2.193H47.16v-2.193zM28.515 30.71H10.128v2.193h18.387V30.71zm18.645 0H30.71v2.193h16.45V30.71zm0 6.58H10.128v2.194H47.16V37.29zm-6.58 4.387H10.127v2.194h30.451v-2.194zm6.58 0h-4.387v2.194h4.387v-2.194zm0-26.322h-4.387v2.193h4.387v-2.193z" fill="#333"/><path d="M64.71 50.451h-8.776V5.484A5.49 5.49 0 0050.451 0H5.484A5.49 5.49 0 000 5.484a5.49 5.49 0 005.484 5.484V68h46.064v-6.58h4.387v-4.388h8.775a3.294 3.294 0 003.29-3.29 3.294 3.294 0 00-3.29-3.29zM53.741 5.484v44.968h-2.194V8.774H50.45a3.294 3.294 0 01-3.29-3.29 3.294 3.294 0 013.29-3.29 3.295 3.295 0 013.29 3.29zm-51.548 0a3.294 3.294 0 013.29-3.29h40.609a5.426 5.426 0 00-1.126 3.29c0 1.24.43 2.371 1.126 3.29H5.484a3.295 3.295 0 01-3.29-3.29zm5.484 60.322V10.968h41.677V50.45H18.467l-9.87 3.29 9.87 3.291h30.888v8.775H7.678zm7.855-12.064l2.015-.673v1.344l-2.015-.671zm38.209 5.484h-2.194v-2.194h2.194v2.194zm2.193-4.387H19.742v-2.194h36.193v2.194zm4.387 0H58.13v-2.194h2.193v2.194zm4.387 0h-2.193v-2.194h2.193a1.098 1.098 0 010 2.194z" fill="#333"/></svg>