<svg width="111" height="22" fill="none" xmlns="http://www.w3.org/2000/svg"><path d="M38.117 14.055c0 1.015-.38 1.812-1.137 2.39-.758.578-1.804.867-3.137.867s-2.424-.2-3.273-.601v-1.766a9.114 9.114 0 001.71.578 7.506 7.506 0 001.692.211c.764 0 1.325-.14 1.685-.421.366-.282.549-.66.549-1.133a1.4 1.4 0 00-.5-1.086c-.333-.297-1.021-.649-2.064-1.055-1.075-.422-1.833-.904-2.274-1.445-.44-.542-.661-1.193-.661-1.953 0-.954.35-1.704 1.048-2.25.699-.547 1.637-.82 2.814-.82 1.129 0 2.252.239 3.37.718l-.612 1.524c-1.049-.428-1.984-.641-2.806-.641-.624 0-1.097.133-1.42.398-.322.26-.483.607-.483 1.04 0 .296.064.551.193.765.13.208.342.406.637.594.296.187.828.435 1.597.742.865.349 1.5.674 1.903.976.403.303.698.644.886 1.024.189.38.283.828.283 1.344zm3.975 3.101h-1.895v-8.64h1.895v8.64zm-2.008-10.93c0-.328.091-.58.274-.757.188-.177.454-.266.798-.266.334 0 .592.089.774.266.189.177.283.43.283.758 0 .312-.094.56-.283.742-.182.177-.44.265-.774.265-.344 0-.61-.088-.798-.265-.183-.183-.274-.43-.274-.742zm8.046 9.602c.463 0 .925-.07 1.388-.21V17c-.21.088-.482.162-.815.219a5.501 5.501 0 01-1.024.093c-1.795 0-2.693-.916-2.693-2.75V9.907H43.77v-.812l1.306-.672.645-1.828h1.17v1.922h2.539v1.39h-2.54v4.625c0 .443.113.771.339.985.23.208.532.312.903.312zm7.072 1.485c-1.387 0-2.473-.391-3.258-1.172-.779-.787-1.169-1.868-1.169-3.243 0-1.411.363-2.52 1.089-3.328.726-.807 1.723-1.21 2.991-1.21 1.177 0 2.107.346 2.79 1.038.683.693 1.024 1.646 1.024 2.86v.992h-5.942c.027.838.26 1.484.701 1.938.44.447 1.062.671 1.863.671a7.2 7.2 0 001.467-.14 8.09 8.09 0 001.467-.485v1.493c-.462.213-.93.364-1.402.453a8.874 8.874 0 01-1.621.133zm-.347-7.563c-.602 0-1.086.185-1.451.555-.36.37-.575.909-.645 1.617h4.047c-.01-.714-.188-1.253-.532-1.617-.344-.37-.817-.555-1.419-.555zM59.91 21c-.57 0-1.042-.065-1.418-.195v-1.453c.365.093.739.14 1.12.14.807 0 1.21-.443 1.21-1.328V8.516h1.895v9.773c0 .89-.242 1.565-.726 2.023-.478.459-1.172.688-2.08.688zm.799-14.773c0-.329.091-.581.274-.758.188-.177.454-.266.798-.266.334 0 .592.089.774.266.188.177.282.43.282.758 0 .312-.094.56-.282.742-.182.177-.44.265-.774.265-.344 0-.61-.088-.798-.265-.183-.183-.274-.43-.274-.742zm10.304 10.929l-.379-1.203h-.064c-.43.526-.863.886-1.298 1.078-.436.188-.995.282-1.677.282-.876 0-1.562-.23-2.056-.688-.49-.458-.734-1.107-.734-1.945 0-.89.341-1.563 1.024-2.016.683-.453 1.723-.7 3.12-.742l1.54-.047v-.46c0-.553-.134-.964-.403-1.235-.263-.276-.674-.414-1.234-.414-.457 0-.895.065-1.314.195-.42.13-.822.284-1.21.46l-.612-1.312a6.61 6.61 0 011.588-.554 7.388 7.388 0 011.63-.196c1.133 0 1.988.24 2.563.72.58.478.87 1.23.87 2.257v5.82h-1.354zm-2.822-1.25c.688 0 1.24-.185 1.653-.554.42-.375.63-.899.63-1.57v-.75l-1.146.046c-.892.031-1.543.177-1.951.438-.403.255-.605.648-.605 1.18 0 .385.118.684.355.898.237.208.591.312 1.064.312zM79.568 8.36c1.113 0 1.978.39 2.596 1.171.624.781.936 1.878.936 3.29 0 1.416-.315 2.52-.944 3.312-.629.786-1.502 1.18-2.62 1.18-1.129 0-2.005-.394-2.629-1.18h-.129l-.347 1.023h-1.418V5h1.894v2.89c0 .214-.01.532-.032.954-.022.422-.038.69-.048.804h.08c.602-.859 1.49-1.289 2.661-1.289zm-.492 1.5c-.763 0-1.314.218-1.653.656-.333.432-.505 1.159-.516 2.18v.124c0 1.052.172 1.815.516 2.29.344.468.906.703 1.685.703.672 0 1.18-.258 1.524-.774.35-.516.524-1.26.524-2.234 0-1.964-.693-2.946-2.08-2.946zm10.78-1.5c1.113 0 1.978.39 2.597 1.171.623.781.935 1.878.935 3.29 0 1.416-.315 2.52-.944 3.312-.629.786-1.502 1.18-2.62 1.18-1.129 0-2.005-.394-2.629-1.18h-.128l-.347 1.023H85.3V5h1.895v2.89c0 .214-.01.532-.032.954-.021.422-.037.69-.048.804h.08c.603-.859 1.49-1.289 2.661-1.289zm-.492 1.5c-.763 0-1.314.218-1.653.656-.333.432-.505 1.159-.516 2.18v.124c0 1.052.173 1.815.517 2.29.343.468.905.703 1.685.703.672 0 1.18-.258 1.524-.774.349-.516.524-1.26.524-2.234 0-1.964-.694-2.946-2.08-2.946zm10.119 7.453c-1.386 0-2.472-.391-3.257-1.172-.78-.787-1.17-1.868-1.17-3.243 0-1.411.364-2.52 1.09-3.328.725-.807 1.722-1.21 2.99-1.21 1.178 0 2.108.346 2.79 1.038.683.693 1.024 1.646 1.024 2.86v.992h-5.942c.027.838.26 1.484.702 1.938.44.447 1.061.671 1.862.671.527 0 1.016-.046 1.467-.14.457-.1.947-.26 1.468-.485v1.493a5.95 5.95 0 01-1.403.453 8.873 8.873 0 01-1.62.133zm-.346-7.563c-.602 0-1.086.185-1.452.555-.36.37-.575.909-.645 1.617h4.048c-.011-.714-.188-1.253-.532-1.617-.344-.37-.817-.555-1.42-.555zm10.489-1.39c.382 0 .697.025.944.078l-.186 1.71a3.683 3.683 0 00-.838-.093c-.758 0-1.374.24-1.847.718-.467.48-.701 1.102-.701 1.868v4.515h-1.895v-8.64h1.484l.25 1.523h.096c.296-.516.68-.924 1.153-1.226a2.835 2.835 0 011.54-.454z" fill="#000"/><circle cx="10.07" cy="11.5" r="6.5" fill="#fff"/><path fill-rule="evenodd" clip-rule="evenodd" d="M0 10.965C0 5.24 4.658.583 10.382.583c5.725 0 10.382 4.657 10.382 10.382 0 2.393-.814 4.6-2.18 6.358l3.219 4.024H10.478a10.201 10.201 0 01-.192 0h-.422l.017-.012C4.388 21.073 0 16.521 0 10.966zm13.112 1.416l3.006-2.175a.56.56 0 00-.329-1.012h-3.72l-1.151-3.522a.56.56 0 00-1.07 0L8.694 9.194h-3.72a.559.559 0 00-.328 1.012l3.005 2.175-1.158 3.538a.56.56 0 00.859.629l3.029-2.192 3.03 2.192a.56.56 0 00.859-.629l-1.159-3.538z" fill="#EF6A23"/></svg>