<svg width="97" height="23" fill="none" xmlns="http://www.w3.org/2000/svg"><path d="M29.834 19.095h-1.81v-9.54H24.77V7.999h8.318v1.556h-3.255v9.54zm9.014-8.546c.358 0 .653.025.885.076l-.174 1.662a3.354 3.354 0 00-.787-.091c-.711 0-1.289.233-1.733.698-.439.466-.659 1.07-.659 1.814v4.387h-1.778V10.7h1.393l.234 1.48h.09c.278-.501.64-.898 1.083-1.192a2.6 2.6 0 011.446-.44zm8.348 8.546l-.25-1.1h-.09c-.248.389-.6.695-1.06.917-.454.223-.974.334-1.56.334-1.013 0-1.77-.253-2.27-.759-.5-.505-.75-1.272-.75-2.3v-5.486h1.795v5.176c0 .642.13 1.126.393 1.45.263.318.674.477 1.234.477.747 0 1.294-.222 1.642-.667.354-.45.53-1.202.53-2.255v-4.181h1.786v8.394h-1.4zm9.56-2.391c0 .82-.298 1.45-.894 1.89-.595.435-1.448.652-2.558.652-1.115 0-2.01-.17-2.687-.508v-1.54c.984.455 1.9.682 2.748.682 1.095 0 1.642-.331 1.642-.994a.79.79 0 00-.181-.531c-.122-.142-.32-.288-.598-.44a10.277 10.277 0 00-1.158-.516c-.964-.375-1.618-.75-1.96-1.124-.339-.374-.508-.86-.508-1.457 0-.718.288-1.275.863-1.67.58-.4 1.367-.599 2.361-.599.984 0 1.915.2 2.793.6l-.575 1.343c-.903-.375-1.662-.562-2.278-.562-.939 0-1.408.268-1.408.805 0 .263.121.486.363.668.248.182.783.432 1.605.751.691.268 1.193.514 1.506.736.313.223.545.48.697.774.15.289.227.635.227 1.04zm5.048 1.1c.434 0 .868-.068 1.302-.204v1.343a3.46 3.46 0 01-.765.212 4.931 4.931 0 01-.96.091c-1.686 0-2.529-.89-2.529-2.671v-4.523H57.71v-.79l1.226-.652.606-1.776h1.097V10.7h2.385v1.35h-2.385v4.494c0 .43.106.748.318.956.217.202.5.303.848.303zm7.228 1.442c-1.06 0-1.882-.382-2.467-1.146h-.106c.07.709.106 1.139.106 1.29v3.438h-1.779V10.701h1.438c.04.157.124.531.25 1.123h.09c.556-.85 1.388-1.275 2.498-1.275 1.045 0 1.857.38 2.438 1.138.585.76.877 1.824.877 3.196 0 1.37-.297 2.44-.893 3.21-.59.769-1.407 1.153-2.452 1.153zm-.431-7.24c-.707 0-1.224.208-1.552.623-.323.414-.484 1.077-.484 1.988v.265c0 1.023.161 1.764.484 2.224.323.455.85.683 1.582.683.615 0 1.09-.253 1.423-.759.333-.506.5-1.227.5-2.163 0-.94-.167-1.652-.5-2.132-.328-.486-.813-.729-1.453-.729zm7.621 7.089h-1.778V10.7h1.778v8.394zM74.338 8.477c0-.319.086-.564.257-.736.177-.172.427-.258.75-.258.312 0 .555.086.726.258.177.172.265.417.265.736 0 .304-.088.544-.265.721-.171.172-.414.258-.727.258-.322 0-.572-.086-.749-.258-.171-.177-.257-.417-.257-.72zm6.214 10.618h-1.779V7.285h1.779v11.81zm9.975-4.212c0 1.37-.35 2.44-1.052 3.21-.701.769-1.677 1.153-2.929 1.153-.782 0-1.473-.177-2.074-.53a3.503 3.503 0 01-1.385-1.526c-.323-.663-.484-1.432-.484-2.308 0-1.36.348-2.423 1.044-3.187.697-.764 1.678-1.146 2.945-1.146 1.21 0 2.17.392 2.876 1.176.706.78 1.06 1.832 1.06 3.158zm-6.093 0c0 1.937.715 2.906 2.142 2.906 1.413 0 2.12-.969 2.12-2.907 0-1.917-.712-2.876-2.135-2.876-.746 0-1.289.248-1.627.744-.333.496-.5 1.207-.5 2.133zm11.263 2.921c.434 0 .868-.068 1.302-.204v1.343a3.457 3.457 0 01-.765.212 4.934 4.934 0 01-.961.091c-1.685 0-2.528-.89-2.528-2.671v-4.523h-1.143v-.79l1.226-.652.606-1.776h1.097V10.7h2.384v1.35h-2.384v4.494c0 .43.106.748.318.956.217.202.5.303.848.303z" fill="#000"/><g clip-path="url(#clip0)"><path d="M21.955 8.498H13.95L11.484.886 9.005 8.498.999 8.484l6.475 4.71-2.48 7.613 6.476-4.71 6.475 4.71-2.465-7.613 6.475-4.696z" fill="#00B67A"/><path d="M16.035 14.915l-.555-1.72-3.996 2.901 4.55-1.18z" fill="#005128"/></g><defs><clipPath id="clip0"><path fill="#fff" transform="translate(.999 .886)" d="M0 0h21.029v20.114H0z"/></clipPath></defs></svg>