<svg width="57" height="57" fill="none" xmlns="http://www.w3.org/2000/svg"><g clip-path="url(#clip0)" fill="#1AAECB"><path d="M41.408 24.675V13.888c0-.309-.143-.594-.344-.82L28.97.368A1.206 1.206 0 0028.103 0H8.927C5.387 0 2.56 2.887 2.56 6.427v36.258c0 3.54 2.827 6.38 6.367 6.38h15.135C26.926 53.815 32.13 57 38.058 57c9.005 0 16.358-7.318 16.358-16.335.013-7.876-5.642-14.458-13.008-15.99zM29.291 4.17l8.113 8.541h-5.262c-1.569 0-2.851-1.294-2.851-2.862V4.17zM8.928 46.688a3.98 3.98 0 01-3.991-4.003V6.427c0-2.233 1.77-4.05 3.991-4.05h17.986v7.472c0 2.886 2.34 5.239 5.228 5.239h6.89v9.278c-.356-.012-.642-.048-.95-.048-4.147 0-7.96 1.592-10.835 4.087H12.16c-.654 0-1.188.535-1.188 1.188a1.19 1.19 0 001.188 1.188h12.878c-.844 1.188-1.545 2.376-2.091 3.683H12.16a1.19 1.19 0 00-1.188 1.188c0 .653.534 1.188 1.188 1.188h10.014a15.993 15.993 0 00-.451 3.825c0 2.139.416 4.253 1.164 6.035H8.928v-.012zm29.142 7.948c-7.698 0-13.96-6.26-13.96-13.96 0-7.697 6.25-13.958 13.96-13.958 7.71 0 13.959 6.26 13.959 13.959 0 7.698-6.261 13.959-13.96 13.959z"/><path d="M12.16 24.83h12.034c.653 0 1.188-.536 1.188-1.189s-.535-1.188-1.188-1.188H12.159c-.653 0-1.188.535-1.188 1.188 0 .653.535 1.188 1.188 1.188zm26.753 7.08a1.196 1.196 0 00-.867-.38c-.332 0-.641.142-.867.38l-6.962 7.472a1.184 1.184 0 00.06 1.675c.475.451 1.247.416 1.698-.06l4.919-5.262v12.973c0 .653.534 1.188 1.188 1.188.653 0 1.188-.535 1.188-1.188V35.735l4.882 5.263c.238.25.547.38.868.38a1.2 1.2 0 00.807-.321c.476-.451.511-1.2.06-1.675l-6.974-7.473z"/></g><defs><clipPath id="clip0"><path fill="#fff" d="M0 0h57v57H0z"/></clipPath></defs></svg>