<svg width="141" height="34" fill="none" xmlns="http://www.w3.org/2000/svg"><g clip-path="url(#clip0)" fill="#A4AEB6"><path d="M123.835 11.446c.785 0 1.431-.414 1.518-.95l.775-8.895c0-.88-1.015-1.601-2.291-1.601-1.275 0-2.289.722-2.289 1.601l.775 8.895c.085.535.731.95 1.514.95h-.002zm-4.737 2.778c.393-.689.364-1.463-.051-1.807l-7.205-5.13c-.749-.44-1.872.09-2.509 1.212-.64 1.12-.527 2.372.22 2.813l7.978 3.77c.498.187 1.178-.174 1.569-.863l-.002.005zm9.478-.005c.393.69 1.07 1.05 1.569.863l7.977-3.77c.752-.44.859-1.692.225-2.812-.64-1.121-1.766-1.652-2.513-1.212l-7.204 5.13c-.412.343-.443 1.118-.051 1.807l-.003-.005zm-4.741 8.339c.785 0 1.431.41 1.518.946l.775 8.894c0 .882-1.015 1.602-2.291 1.602-1.275 0-2.289-.72-2.289-1.602l.775-8.894c.085-.536.731-.947 1.514-.947h-.002zm4.741-2.78c.393-.69 1.07-1.048 1.569-.858l7.977 3.767c.752.44.859 1.693.225 2.814-.64 1.118-1.766 1.65-2.513 1.21l-7.204-5.124c-.412-.346-.443-1.122-.051-1.81h-.004l.001.001zm-9.478 0c.393.688.364 1.463-.051 1.81l-7.205 5.124c-.749.44-1.872-.093-2.509-1.21-.64-1.121-.527-2.374.22-2.815l7.978-3.767c.498-.19 1.178.168 1.569.86h-.002m-40.706 1.791c0 .273-.024.555-.098.802-.306 1.027-1.353 1.895-2.664 1.895-1.093 0-1.961-.63-1.961-1.96 0-2.037 2.209-2.6 4.723-2.585v1.848zm3.943-3.55c0-3.357-1.413-6.313-6.191-6.313-2.453 0-4.4.7-5.462 1.323l.779 2.7c.97-.623 2.518-1.138 3.983-1.138 2.423-.006 2.82 1.393 2.82 2.289v.212c-5.283-.008-8.622 1.848-8.622 5.63 0 2.31 1.7 4.475 4.657 4.475 1.817 0 3.338-.736 4.249-1.916h.09s.602 2.562 3.929 1.582c-.174-1.066-.23-2.203-.23-3.57l-.001-5.273zM.027 7.136S3.479 21.49 4.03 23.82c.643 2.72 1.802 3.72 5.142 3.045l2.155-8.9c.547-2.212.912-3.789 1.265-6.036h.061c.247 2.271.598 3.831 1.048 6.043 0 0 .877 4.04 1.327 6.162.45 2.121 1.704 3.459 4.975 2.73l5.136-19.73h-4.145l-1.755 8.531c-.471 2.482-.899 4.424-1.229 6.694h-.058c-.3-2.25-.682-4.113-1.16-6.532l-1.826-8.693h-4.32l-1.953 8.474c-.553 2.576-1.071 4.655-1.4 6.85h-.06a240.59 240.59 0 00-1.271-7.173s-1.16-6.061-1.567-8.15H.027zM32.98 21.57c0 .273-.024.555-.099.802-.304 1.027-1.353 1.895-2.664 1.895-1.093 0-1.96-.63-1.96-1.96 0-2.037 2.209-2.6 4.724-2.585v1.848zm3.944-3.55c0-3.357-1.414-6.313-6.191-6.313-2.453 0-4.401.7-5.463 1.323l.777 2.7c.97-.623 2.518-1.138 3.983-1.138 2.425-.006 2.822 1.393 2.822 2.289v.212c-5.284-.008-8.622 1.848-8.622 5.63 0 2.31 1.7 4.475 4.654 4.475 1.82 0 3.34-.736 4.251-1.916h.09s.604 2.562 3.929 1.582c-.174-1.066-.23-2.203-.23-3.57v-5.273zm6.58 4.656V7.135h-3.948v19.73h3.949v-4.188zM95.16 7.135V21.69c0 2.007.373 3.412 1.168 4.272.697.752 1.842 1.239 3.215 1.239 1.168 0 2.316-.227 2.858-.43l-.051-3.131c-.403.1-.866.18-1.5.18-1.345 0-1.795-.874-1.795-2.675v-5.57h3.438V11.8h-3.438V7.135H95.16zm-10.192 4.908v14.822h4.074v-7.589c0-.41.024-.767.088-1.094.301-1.591 1.5-2.606 3.22-2.606.471 0 .809.052 1.175.104V11.8a3.915 3.915 0 00-.897-.091c-1.52 0-3.25.995-3.975 3.13h-.11v-2.796h-3.575zm-38.697 0v14.822h3.968v-8.691c0-.408.047-.84.187-1.213.328-.876 1.13-1.9 2.411-1.9 1.602 0 2.35 1.373 2.35 3.356v8.447h3.966v-8.797c0-.39.052-.859.166-1.202.325-.996 1.19-1.806 2.38-1.806 1.624 0 2.403 1.35 2.403 3.684v8.12h3.968v-8.73c0-4.603-2.303-6.425-4.904-6.425-1.15 0-2.06.292-2.882.803-.69.432-1.31 1.044-1.85 1.848h-.059c-.627-1.598-2.102-2.65-4.025-2.65-2.47 0-3.58 1.27-4.253 2.348h-.06v-2.014h-3.766"/></g><defs><clipPath id="clip0"><path fill="#fff" d="M0 0h141v34H0z"/></clipPath></defs></svg>