<svg width="105" height="32" viewBox="0 0 105 32" fill="none" xmlns="http://www.w3.org/2000/svg">
<g clip-path="url(#clip0)">
<path fill-rule="evenodd" clip-rule="evenodd" d="M65.1053 25.024C59.0132 29.5796 50.1789 32 42.575 32C31.9144 32 22.3164 28.007 15.0519 21.3651C14.483 20.8435 14.9902 20.1305 15.6748 20.5349C23.5121 25.1549 33.2026 27.9367 43.2133 27.9367C49.9649 27.9367 57.3875 26.5165 64.2182 23.5823C65.2499 23.1389 66.1139 24.268 65.1053 25.024Z" fill="#A4AEB6"/>
<path fill-rule="evenodd" clip-rule="evenodd" d="M67.6782 22.1733C66.8961 21.1601 62.5203 21.6932 60.5545 21.9323C59.9597 22.0067 59.867 21.4776 60.4039 21.0935C63.8952 18.6045 69.617 19.3238 70.2832 20.1567C70.9533 20.9974 70.1075 26.82 66.8343 29.599C66.3303 30.0263 65.8533 29.7989 66.0754 29.2345C66.8092 27.3668 68.4603 23.1885 67.6782 22.1733ZM60.6916 3.50806V1.09162C60.6955 0.721211 60.9658 0.476234 61.296 0.478194L71.9787 0.476235C72.3205 0.476235 72.5947 0.72905 72.5947 1.08574V3.16118C72.5909 3.50806 72.3012 3.96274 71.7895 4.68395L66.2569 12.7015C68.3097 12.6525 70.4841 12.9661 72.3495 14.0283C72.7704 14.2694 72.8844 14.6241 72.9172 14.973V17.554C72.9172 17.9088 72.5329 18.3223 72.1293 18.1067C68.8426 16.3586 64.4784 16.1685 60.8442 18.1283C60.4734 18.3282 60.0833 17.9225 60.0833 17.5678V15.1141C60.0833 14.7221 60.091 14.0499 60.4811 13.4522L66.8923 4.11953H61.3095C60.9677 4.11953 60.6955 3.87063 60.6916 3.50806ZM21.7265 18.6163H18.4784C18.1694 18.5947 17.9223 18.3595 17.8972 18.0597L17.901 1.13277C17.901 0.793724 18.181 0.52327 18.5286 0.52327L21.5565 0.52131C21.8732 0.536989 22.1262 0.780005 22.1455 1.08966V3.29836H22.2073C22.9952 1.16217 24.4821 0.164624 26.4846 0.164624C28.518 0.164624 29.7925 1.16217 30.7002 3.29836C31.49 1.16217 33.2781 0.164624 35.1918 0.164624C36.5571 0.164624 38.0421 0.73493 38.9516 2.01665C39.9847 3.44339 39.7723 5.50707 39.7723 7.32382L39.7685 18.0068C39.7685 18.3438 39.4884 18.6143 39.1409 18.6143H35.8947C35.5703 18.5927 35.3135 18.3321 35.3135 18.0068L35.3115 9.03082C35.3115 8.3194 35.3733 6.53793 35.2208 5.8618C34.9775 4.72119 34.2514 4.40174 33.311 4.40174C32.5231 4.40174 31.7043 4.93481 31.3702 5.78929C31.0362 6.64572 31.0671 8.06855 31.0671 9.03082V18.0048C31.0671 18.3419 30.7871 18.6123 30.4395 18.6123H27.1953C26.8689 18.5908 26.6121 18.3301 26.6121 18.0048L26.6082 9.02886C26.6082 7.14156 26.9095 4.3645 24.6057 4.3645C22.2691 4.3645 22.3618 7.071 22.3618 9.02886L22.3599 18.0028C22.3541 18.3458 22.0741 18.6163 21.7265 18.6163ZM81.8214 3.61977C79.4249 3.61977 79.2724 6.93186 79.2724 8.9975C79.2724 11.0631 79.2415 15.4806 81.7905 15.4806C84.3086 15.4806 84.4302 11.9176 84.4302 9.74615C84.4302 8.32136 84.3684 6.61241 83.9436 5.25818C83.5786 4.08229 82.8506 3.61977 81.8214 3.61977ZM81.7905 0.164624C86.6143 0.164624 89.2232 4.36842 89.2232 9.71087C89.2232 14.875 86.342 18.971 81.7905 18.971C77.0593 18.971 74.4794 14.7672 74.4794 9.53253C74.4775 4.26063 77.0883 0.164624 81.7905 0.164624ZM95.4779 18.6163H92.2395C91.9151 18.5947 91.6563 18.334 91.6563 18.0087L91.6525 1.07594C91.6795 0.764327 91.9479 0.52327 92.2762 0.52327L95.2906 0.52131C95.5744 0.536989 95.8081 0.73297 95.868 0.995585V3.5845H95.9298C96.8393 1.268 98.1138 0.164624 100.358 0.164624C101.814 0.164624 103.239 0.699653 104.15 2.15971C105 3.51198 105 5.79125 105 7.43161V18.0812C104.963 18.3811 104.699 18.6143 104.376 18.6143H101.119C100.817 18.5947 100.574 18.3693 100.541 18.0812V8.89167C100.541 7.03965 100.754 4.33315 98.5077 4.33315C97.7179 4.33315 96.9899 4.86621 96.6269 5.68542C96.1731 6.71824 96.1113 7.75106 96.1113 8.89167V18.0068C96.1036 18.3458 95.8235 18.6163 95.4779 18.6163ZM55.4526 18.5731C55.2383 18.7691 54.9274 18.7828 54.684 18.6496C53.6046 17.7402 53.4115 17.3189 52.8206 16.4526C51.0382 18.2968 49.7753 18.8495 47.4638 18.8495C44.7274 18.8495 42.5994 17.1366 42.5994 13.7089C42.5994 11.0318 44.0303 9.21112 46.0657 8.3194C47.8287 7.53352 50.2928 7.39045 52.1775 7.17683V6.74763C52.1775 5.96175 52.2393 5.03476 51.7816 4.35666C51.3858 3.74912 50.6269 3.49827 49.9568 3.49827C48.719 3.49827 47.6163 4.14304 47.344 5.47964C47.288 5.77753 47.0737 6.0715 46.7802 6.08718L43.6306 5.74029C43.3641 5.67758 43.0687 5.46396 43.1459 5.05044C43.87 1.17197 47.3209 0 50.4125 0C51.9941 0 54.0603 0.427239 55.3078 1.64232C56.8893 3.14158 56.7368 5.14059 56.7368 7.31794V12.4566C56.7368 14.0029 57.3702 14.681 57.963 15.5119C58.1716 15.8118 58.2179 16.1685 57.9533 16.388C57.2891 16.9524 56.1111 17.9911 55.4623 18.5771L55.4526 18.5731ZM52.1775 10.532C52.1775 11.8177 52.2084 12.8877 51.5692 14.0303C51.0517 14.9592 50.231 15.5296 49.3195 15.5296C48.074 15.5296 47.344 14.5653 47.344 13.1366C47.344 10.3282 49.8274 9.81866 52.1775 9.81866V10.532ZM12.8532 18.5731C12.6389 18.7691 12.328 18.7828 12.0846 18.6496C11.0052 17.7402 10.8121 17.3189 10.2212 16.4526C8.43684 18.2968 7.17392 18.8495 4.86437 18.8495C2.12611 18.8495 0 17.1366 0 13.7089C0 11.0318 1.42899 9.21112 3.46627 8.3194C5.22934 7.53352 7.69145 7.39045 9.57618 7.17683V6.74763C9.57618 5.96175 9.63797 5.03476 9.18031 4.35666C8.78444 3.74912 8.02553 3.49827 7.35738 3.49827C6.11763 3.49827 5.01499 4.14304 4.74464 5.47964C4.68864 5.77753 4.47429 6.0715 4.18077 6.08718L1.03119 5.74029C0.764704 5.67758 0.46925 5.46396 0.544562 5.05044C1.26871 1.17197 4.71954 0.00195993 7.81311 0.00195993C9.39466 0.00195993 11.4609 0.429199 12.7084 1.64428C14.2899 3.14354 14.1374 5.14255 14.1374 7.3199V12.4585C14.1374 14.0048 14.7708 14.6829 15.3636 15.5139C15.5721 15.8137 15.6185 16.1704 15.3539 16.3899C14.6896 16.9543 13.5098 17.993 12.8609 18.579L12.8532 18.5731ZM9.57618 10.532C9.57618 11.8177 9.60707 12.8877 8.96789 14.0303C8.45229 14.9592 7.63159 15.5296 6.71819 15.5296C5.47265 15.5296 4.74271 14.5653 4.74271 13.1366C4.74271 10.3282 7.22606 9.81866 9.57618 9.81866V10.532Z" fill="#A4AEB6"/>
</g>
<defs>
<clipPath id="clip0">
<rect width="105" height="32" fill="white"/>
</clipPath>
</defs>
</svg>
