<svg width="39" height="23" viewBox="0 0 39 23" fill="none" xmlns="http://www.w3.org/2000/svg">
<rect x="0.5625" y="0.7854" width="37.9265" height="21.8559" rx="2" fill="white"/>
<path d="M8.39871 7.8562L5.06152 14.9182H9.05661L9.55188 13.7922H10.684L11.1792 14.9182H15.5767V14.0588L15.9685 14.9182H18.2433L18.6351 14.0406V14.9182H27.7806L28.8927 13.8214L29.934 14.9182L34.6313 14.9272L31.2836 11.4069L34.6313 7.8562H30.0068L28.9243 8.93266L27.9158 7.8562H17.9667L17.1123 9.67895L16.238 7.8562H12.2512V8.68633L11.8077 7.8562C11.8077 7.8562 8.39871 7.8562 8.39871 7.8562ZM9.17174 8.85901H11.1191L13.3327 13.6478V8.85901H15.466L17.1757 12.2925L18.7514 8.85901H20.874V13.9264H19.5824L19.5719 9.95563L17.6889 13.9264H16.5335L14.64 9.95563V13.9264H11.983L11.4792 12.7904H8.75777L8.25509 13.9254H6.83147L9.17174 8.85901ZM22.0557 8.85901H27.3075L28.9138 10.5182L30.5718 8.85901H32.1781L29.7375 11.4059L32.1781 13.9234H30.499L28.8927 12.245L27.2262 13.9234H22.0557V8.85901ZM10.1191 9.71639L9.22247 11.7402H11.0147L10.1191 9.71639ZM23.3526 9.90822V10.8333H26.2177V11.8643H23.3526V12.8742H26.5662L28.0594 11.3867L26.6296 9.90733H23.3526V9.90822Z" fill="#3A9BD9"/>
</svg>
