<svg width="68" height="68" viewBox="0 0 68 68" fill="none" xmlns="http://www.w3.org/2000/svg">
<path d="M51.5484 37.2903C44.8965 37.2903 39.4839 31.8777 39.4839 25.2258C39.4839 18.5739 44.8965 13.1613 51.5484 13.1613C58.2003 13.1613 63.6129 18.5739 63.6129 25.2258C63.6129 31.8777 58.2003 37.2903 51.5484 37.2903Z" fill="#FFCF27"/>
<path d="M52.6452 62.5161C52.6452 63.1218 52.1541 63.6129 51.5484 63.6129C50.9427 63.6129 50.4517 63.1218 50.4517 62.5161C50.4517 61.9104 50.9427 61.4194 51.5484 61.4194C52.1541 61.4194 52.6452 61.9104 52.6452 62.5161Z" fill="#333333"/>
<path d="M21.9356 54.8387H4.38721V39.4839H21.9356V54.8387Z" fill="#C3DBEF"/>
<path d="M21.9356 34H4.38721V18.6452H21.9356V34Z" fill="#C3DBEF"/>
<path d="M68 25.2258C68 16.5239 61.2057 9.39809 52.6452 8.82989V0H0V59.2258H46.0645V62.5161C46.0645 65.5398 48.5248 68 51.5484 68C54.572 68 57.0323 65.5398 57.0323 62.5161V46.0645H54.8387V41.3465C62.3383 39.8175 68 33.171 68 25.2258ZM65.8064 25.2258C65.8064 33.0875 59.41 39.4839 51.5484 39.4839C43.6867 39.4839 37.2903 33.0875 37.2903 25.2258C37.2903 17.3642 43.6867 10.9677 51.5484 10.9677C59.41 10.9677 65.8064 17.3642 65.8064 25.2258ZM46.0645 46.0645V57.0323H2.19355V2.19355H50.4516V8.82989C41.8911 9.39809 35.0968 16.5239 35.0968 25.2258C35.0968 33.171 40.7584 39.8175 48.2581 41.3465V46.0645H46.0645ZM54.8387 62.5161C54.8387 64.33 53.3622 65.8064 51.5484 65.8064C49.7345 65.8064 48.2581 64.33 48.2581 62.5161V48.2581H54.8387V62.5161ZM52.6452 46.0645H50.4516V41.6217C50.8158 41.6458 51.1778 41.6774 51.5484 41.6774C51.919 41.6774 52.281 41.6458 52.6452 41.6217V46.0645Z" fill="#333333"/>
<path d="M47.7701 27.6036L46.5522 29.4287L50.8772 32.3109L56.917 20.232L54.9537 19.2519L50.0257 29.1084L47.7701 27.6036Z" fill="#333333"/>
<path d="M12.7786 47.421L10.6466 45.2891L9.0957 46.84L13.5444 51.2887L19.6575 36.6156L17.6332 35.7716L12.7786 47.421Z" fill="#333333"/>
<path d="M12.7786 26.5823L10.6466 24.4504L9.0957 26.0013L13.5444 30.45L19.6575 15.7768L17.6332 14.9328L12.7786 26.5823Z" fill="#333333"/>
<path d="M30.7095 8.7742H32.903V10.9677H30.7095V8.7742Z" fill="#333333"/>
<path d="M4.38721 8.7742H28.5162V10.9677H4.38721V8.7742Z" fill="#333333"/>
<path d="M24.1289 39.4839H37.2902V41.6774H24.1289V39.4839Z" fill="#333333"/>
<path d="M24.1289 43.871H37.2902V46.0645H24.1289V43.871Z" fill="#333333"/>
<path d="M24.1289 48.2581H37.2902V50.4516H24.1289V48.2581Z" fill="#333333"/>
<path d="M24.1289 52.6452H37.2902V54.8387H24.1289V52.6452Z" fill="#333333"/>
<path d="M24.1289 18.6452H32.9031V20.8387H24.1289V18.6452Z" fill="#333333"/>
<path d="M24.1289 23.0323H32.9031V25.2258H24.1289V23.0323Z" fill="#333333"/>
<path d="M24.1289 27.4194H32.9031V29.6129H24.1289V27.4194Z" fill="#333333"/>
<path d="M24.1289 31.8065H32.9031V34H24.1289V31.8065Z" fill="#333333"/>
<path d="M4.38721 4.3871H32.9033V6.58065H4.38721V4.3871Z" fill="#333333"/>
</svg>
