<svg width="89" height="27" viewBox="0 0 89 27" fill="none" xmlns="http://www.w3.org/2000/svg">
<path fill-rule="evenodd" clip-rule="evenodd" d="M87.6916 26.3387V0.661316H60.9162V26.3387H87.6916ZM81.5899 8.0355C79.5274 6.85026 77.4639 6.2357 75.5325 6.2357C73.47 6.2357 71.7575 6.89412 70.4411 8.21096C69.0804 9.48393 68.3786 11.0639 68.3786 13.0392C68.3786 14.9263 69.0804 16.5501 70.3977 17.8679C71.8018 19.0961 73.47 19.7111 75.4891 19.7111C77.6398 19.7111 79.7467 19.0527 81.8097 17.7354V20.5011C79.8778 21.5543 77.7271 22.0811 75.3571 22.0811C73.3379 22.0811 71.6697 21.6864 70.2647 20.8963C68.9203 20.0775 67.7916 18.9485 66.9731 17.6038C66.1831 16.1124 65.744 14.6197 65.744 13.0392C65.744 10.4055 66.6656 8.25482 68.5531 6.49888C70.3972 4.74295 72.68 3.82135 75.3571 3.82135C77.288 3.82135 79.351 4.30432 81.5894 5.31364V8.0355H81.5899ZM57.9321 0.661316H31.1567V26.3387H57.9321V0.661316ZM39.3648 4.47977H44.0176C45.5099 4.47977 46.6517 4.65523 47.4847 5.05046C48.319 5.48956 48.9331 6.01592 49.3288 6.6748C49.767 7.37708 49.9872 8.16709 49.9872 9.08869C49.9872 10.8442 49.109 12.0733 47.2653 12.8199C48.5822 13.0392 49.6354 13.566 50.382 14.4438C51.1277 15.2338 51.4795 16.2436 51.5229 17.3845C51.4795 18.2627 51.2597 19.0961 50.8211 19.7988C50.3377 20.5011 49.6792 21.0723 48.7576 21.5548C47.836 21.9939 46.7385 22.2132 45.3778 22.2132H39.3648V4.47977Z" fill="#A4AEB6"/>
<path fill-rule="evenodd" clip-rule="evenodd" d="M43.5785 12.0737C44.9387 12.0737 45.9046 11.8106 46.4753 11.3276C47.046 10.7569 47.3526 10.0985 47.3526 9.26461C47.3526 7.59687 46.256 6.71867 44.1048 6.71867H41.9107V12.0737H43.5785ZM44.2807 14.356H41.9107V19.93H44.4567C45.6414 19.93 46.6074 19.8427 47.2215 19.6668C47.7922 19.3593 48.1874 19.0084 48.4506 18.6136C48.7138 18.1745 48.8897 17.692 48.8897 17.1652C48.8453 16.6383 48.7138 16.1549 48.4062 15.7167C48.1431 15.2333 47.7044 14.8824 47.0894 14.6626C46.5196 14.4438 45.5537 14.3122 44.2807 14.356ZM28.0839 0.661316H1.30859V26.3387H28.0839V0.661316ZM9.47325 22.2127V4.47977H14.126C15.6183 4.47977 16.7158 4.65523 17.5497 5.05046C18.3836 5.44523 19.042 6.01592 19.4372 6.71821C19.8759 7.37662 20.0957 8.16663 20.1395 9.08823C20.0957 10.8437 19.2179 12.0728 17.3743 12.8628C18.735 13.0826 19.7443 13.609 20.4909 14.4428C21.237 15.2328 21.6323 16.2426 21.6323 17.3836C21.6323 18.3052 21.413 19.1395 20.93 19.7979C20.447 20.5436 19.7886 21.1147 18.9109 21.5538C17.9893 21.9929 16.8479 22.2123 15.4872 22.2123H9.47325V22.2127Z" fill="#A4AEB6"/>
<path fill-rule="evenodd" clip-rule="evenodd" d="M14.2136 6.71866H12.019V12.0737H13.7307C15.0475 12.0737 16.013 11.8105 16.5841 11.3276C17.1543 10.8008 17.4618 10.0985 17.4618 9.30847C17.4614 7.5964 16.3643 6.71866 14.2136 6.71866ZM14.3891 14.356H12.019V19.93H14.5207C15.8375 19.93 16.803 19.8427 17.3736 19.6668C17.8566 19.4474 18.2514 19.1399 18.5584 18.7008C18.8221 18.2183 18.9537 17.7349 18.9975 17.1652C18.9537 16.5501 18.7778 16.0676 18.5146 15.7167C18.2134 15.2307 17.7451 14.8715 17.1977 14.7065C16.5836 14.4438 15.6182 14.356 14.3891 14.356Z" fill="#A4AEB6"/>
</svg>
