<svg width="16" height="16" viewBox="0 0 16 16" fill="none" xmlns="http://www.w3.org/2000/svg">
<path d="M0.184615 8.61542C0.0615385 8.49234 0 8.30773 0 8.18465C0 8.06158 0.0615385 7.87696 0.184615 7.75388L1.04615 6.89234C1.29231 6.64619 1.66154 6.64619 1.90769 6.89234L1.96923 6.95388L5.35385 10.5847C5.47692 10.7077 5.66154 10.7077 5.78462 10.5847L14.0308 2.03081H14.0923C14.3385 1.78465 14.7077 1.78465 14.9538 2.03081L15.8154 2.89235C16.0615 3.1385 16.0615 3.50773 15.8154 3.75388L5.96923 13.9693C5.84615 14.0923 5.72308 14.1539 5.53846 14.1539C5.35385 14.1539 5.23077 14.0923 5.10769 13.9693L0.307692 8.80004L0.184615 8.61542Z" fill="#1AAECB"/>
</svg>
