<svg width="68" height="68" viewBox="0 0 68 68" fill="none" xmlns="http://www.w3.org/2000/svg">
<g clip-path="url(#clip0)">
<circle cx="39" cy="39" r="3" fill="#F8FBFD"/>
<circle cx="25" cy="25" r="20" fill="#C3DBEF"/>
<path d="M52.6892 58.5394L48.2582 54.8389L43.8271 58.5394L45.9056 60.62L43.8711 66.9034H52.6452L50.6108 60.62L52.6892 58.5394Z" fill="#FFCF27"/>
<path d="M39.1805 23.0406L39.4268 22.942L39.5919 22.7343C41.6788 20.1082 44.8976 18.5483 48.258 18.5483C54.9632 18.5483 60.4193 24.0044 60.4193 30.7096V36.8498C59.6343 35.8418 58.4091 35.1935 57.0322 35.1935H56.7758C56.3563 33.9193 55.1567 33 53.7418 33H49.811C48.9449 33 48.0903 32.7983 47.3159 32.4106L47.3155 32.4104L44.8799 31.1926L44.8783 31.1918C44.3709 30.9392 43.812 30.8064 43.2422 30.8064C41.2204 30.8064 39.5805 32.4462 39.5805 34.468V35.1935H39.4838C38.1069 35.1935 36.8817 35.8418 36.0967 36.8498V27.5971C36.0967 25.5774 37.3243 23.7833 39.1805 23.0406Z" fill="white" stroke="#333333" stroke-width="2"/>
<path d="M62.4503 52.1385L53.7419 49.6269V47.4189C54.9014 46.4881 55.8182 45.2692 56.3864 43.871H57.0323C59.4518 43.871 61.4194 41.9034 61.4194 39.4839C61.4194 37.0643 59.4518 35.0968 57.0323 35.0968H56.8304C56.3762 33.8233 55.1697 32.9032 53.7419 32.9032H49.8122C48.9655 32.9032 48.1178 32.7024 47.36 32.3243L44.9238 31.1065C44.4028 30.8468 43.8228 30.7097 43.2423 30.7097C41.1708 30.7097 39.4839 32.3966 39.4839 34.4681V35.0968C37.0643 35.0968 35.0968 37.0643 35.0968 39.4839C35.0968 39.9653 35.1942 40.4216 35.3383 40.8559C32.3109 42.8224 28.8375 43.871 25.2258 43.871C14.9446 43.871 6.58065 35.507 6.58065 25.2258C6.58065 14.9446 14.9446 6.58065 25.2258 6.58065C33.1731 6.58065 40.0917 11.4974 42.7501 18.9006C43.4013 18.5664 44.0825 18.2955 44.7857 18.0823C41.7958 9.84901 34.0814 4.3871 25.2258 4.3871C13.7348 4.3871 4.3871 13.7348 4.3871 25.2258C4.3871 36.7168 13.7348 46.0645 25.2258 46.0645C29.2611 46.0645 33.141 44.8954 36.5224 42.6998C37.1511 43.2787 37.9431 43.6701 38.8257 43.804C34.8927 46.6873 30.1361 48.2581 25.2258 48.2581C12.5251 48.2581 2.19355 37.9265 2.19355 25.2258C2.19355 12.5251 12.5251 2.19355 25.2258 2.19355C35.0154 2.19355 43.7473 8.4759 46.9498 17.6239C47.383 17.5757 47.8195 17.5484 48.2581 17.5484C48.5928 17.5484 48.9205 17.5736 49.2483 17.5987C45.9483 7.2024 36.1957 0 25.2258 0C11.3164 0 0 11.3164 0 25.2258C0 39.1352 11.3164 50.4516 25.2258 50.4516C30.8687 50.4516 36.3151 48.5408 40.7386 45.0797C41.2758 45.9745 41.9639 46.7677 42.7742 47.4189V49.6269L34.0659 52.1396C30.7986 53.0806 28.5161 56.1144 28.5161 59.5155V68H68V59.5155C68 56.1144 65.7176 53.0806 62.4503 52.1385ZM54.6191 52.1626L53.14 57.3391L49.9 54.7477L52.9633 51.6844L54.6191 52.1626ZM59.2258 39.4839C59.2258 40.6936 58.242 41.6774 57.0323 41.6774H56.9567C57.0017 41.3175 57.0323 40.9523 57.0323 40.5806V37.2903C58.242 37.2903 59.2258 38.2741 59.2258 39.4839ZM37.2903 39.4839C37.2903 38.2741 38.2741 37.2903 39.4839 37.2903V40.5806C39.4839 40.9523 39.5144 41.3175 39.5594 41.6774H39.4839C38.2741 41.6774 37.2903 40.6936 37.2903 39.4839ZM41.6774 40.5806V34.4681C41.6774 33.6053 42.3795 32.9032 43.2423 32.9032C43.4838 32.9032 43.7264 32.96 43.9422 33.0687L46.3783 34.2865C47.4387 34.8172 48.6254 35.0968 49.8122 35.0968H53.7419C54.346 35.0968 54.8387 35.5895 54.8387 36.1936V40.5806C54.8387 44.21 51.8874 47.1613 48.2581 47.1613C44.6287 47.1613 41.6774 44.21 41.6774 40.5806ZM48.2581 49.3548C49.4218 49.3548 50.5319 49.1224 51.5484 48.709V49.9975L48.2581 53.2878L44.9677 49.9975V48.709C45.9842 49.1224 47.0943 49.3548 48.2581 49.3548ZM43.5529 51.6844L46.6161 54.7477L43.3761 57.3391L41.897 52.1626L43.5529 51.6844ZM65.8064 65.8064H61.4194V60.3226H59.2258V65.8064H37.2903V60.3226H35.0968V65.8064H30.7097V59.5155C30.7097 57.0858 32.3393 54.9201 34.6732 54.2464L39.7886 52.7715L42.1723 61.1125L48.2581 56.2434L54.3439 61.1125L56.7275 52.7715L61.843 54.2464C64.1768 54.9201 65.8064 57.0858 65.8064 59.5155V65.8064Z" fill="#333333"/>
<path d="M17.2764 35.8197L23.9095 28.2387C24.3144 28.4154 24.7578 28.5161 25.2259 28.5161C27.0397 28.5161 28.5162 27.0396 28.5162 25.2258C28.5162 23.798 27.5961 22.5915 26.3226 22.1374V8.77417H24.1291V22.1374C22.8556 22.5915 21.9355 23.798 21.9355 25.2258C21.9355 25.7699 22.0812 26.2765 22.3163 26.7296L15.627 34.3749L17.2764 35.8197ZM25.2259 24.129C25.8299 24.129 26.3226 24.6217 26.3226 25.2258C26.3226 25.8299 25.8299 26.3226 25.2259 26.3226C24.6218 26.3226 24.1291 25.8299 24.1291 25.2258C24.1291 24.6217 24.6218 24.129 25.2259 24.129Z" fill="#333333"/>
<path d="M2.02486 39.8304L0 36.6226V47.1613H2.19355V43.8346C7.79042 50.7815 16.1721 54.8388 25.2258 54.8388V52.6452C15.7608 52.6452 7.08619 47.8543 2.02486 39.8304Z" fill="#333333"/>
<path d="M30.7095 24.1292H32.903V26.3227H30.7095V24.1292Z" fill="#333333"/>
<path d="M17.5483 24.1292H19.7419V26.3227H17.5483V24.1292Z" fill="#333333"/>
</g>
<defs>
<clipPath id="clip0">
<rect width="68" height="68" fill="white"/>
</clipPath>
</defs>
</svg>
