<svg width="133" height="138" viewBox="0 0 133 138" fill="none" xmlns="http://www.w3.org/2000/svg">
<g clip-path="url(#clip0)">
<path d="M118.673 48.8872C117.909 48.4383 116.926 48.6936 116.477 49.4574L78.4264 114.203C78.3003 114.418 78.2259 114.659 78.209 114.907L77.5559 124.551C77.5148 125.157 77.8196 125.735 78.3436 126.043C78.8674 126.35 79.5202 126.336 80.03 126.005L88.137 120.742C88.346 120.606 88.5202 120.424 88.6465 120.209L126.697 55.4637C127.146 54.6999 126.891 53.7167 126.127 53.2678L118.673 48.8872ZM86.0725 118.257L80.9741 121.567L81.3848 115.502L118.431 52.4662L123.118 55.2211L86.0725 118.257Z" fill="white" fill-opacity="0.25"/>
<path d="M123.137 64.7979L110.17 86.8624C109.721 87.6262 109.977 88.6094 110.74 89.0583C111.504 89.5072 112.487 89.2519 112.936 88.488L125.904 66.4236C126.352 65.6598 126.097 64.6765 125.333 64.2276C124.569 63.7787 123.586 64.0341 123.137 64.7979Z" fill="white" fill-opacity="0.25"/>
<path d="M76.2014 76.6423L41.1849 56.0632C40.421 55.6143 39.4377 55.8699 38.9888 56.6337C38.5399 57.3975 38.7954 58.3805 39.5592 58.8294L74.5757 79.4084C75.3395 79.8573 76.3226 79.6022 76.7715 78.8384C77.2204 78.0746 76.9652 77.0911 76.2014 76.6423Z" fill="white" fill-opacity="0.25"/>
<path d="M64.1735 97.108L29.157 76.5289C28.3932 76.08 27.41 76.3354 26.9611 77.0992C26.5122 77.863 26.7675 78.8462 27.5313 79.2951L62.5479 99.8742C63.3117 100.323 64.2949 100.068 64.7438 99.3039C65.1927 98.5401 64.9374 97.5568 64.1735 97.108Z" fill="white" fill-opacity="0.25"/>
<path d="M81.4221 67.7587L46.4056 47.1797C45.6418 46.7308 44.6585 46.9861 44.2096 47.7499C43.7607 48.5137 44.0161 49.497 44.7799 49.9459L79.7964 70.5249C80.5602 70.9738 81.5435 70.7185 81.9923 69.9547C82.4412 69.1909 82.1859 68.2076 81.4221 67.7587Z" fill="white" fill-opacity="0.25"/>
<path d="M50.0001 41.0632L70.7878 53.28C71.5516 53.7289 72.535 53.4733 72.9839 52.7095C73.4327 51.9457 73.1773 50.9627 72.4135 50.5138L51.6258 38.297C50.862 37.8481 49.8789 38.1032 49.43 38.867C48.9811 39.6308 49.2363 40.6143 50.0001 41.0632Z" fill="white" fill-opacity="0.25"/>
<path d="M55.2208 32.18L76.0085 44.3968C76.7723 44.8457 77.7554 44.5906 78.2043 43.8268C78.6532 43.063 78.398 42.0795 77.6342 41.6306L56.8465 29.4138C56.0827 28.9649 55.0993 29.2205 54.6504 29.9843C54.2015 30.7481 54.457 31.7311 55.2208 32.18Z" fill="white" fill-opacity="0.25"/>
<path d="M9.73607 85.5729L65.722 118.476C66.4838 118.923 67.4642 118.669 67.912 117.907L99.4089 64.3129C99.4101 64.3109 99.4108 64.309 99.4119 64.3072C99.4378 64.2626 99.4615 64.217 99.4826 64.1713C99.4992 64.1357 99.5127 64.0993 99.5263 64.063C99.5309 64.0505 99.5367 64.0384 99.5414 64.0259C99.5563 63.9826 99.569 63.938 99.5803 63.8935C99.5817 63.8876 99.5837 63.882 99.5852 63.8758C99.5956 63.8312 99.6038 63.7856 99.6109 63.7401C99.6117 63.7342 99.6132 63.7282 99.6142 63.7224C99.6203 63.6793 99.6236 63.6363 99.6256 63.5932C99.626 63.5843 99.6277 63.5752 99.6279 63.5662C99.6294 63.5268 99.6283 63.4873 99.6272 63.4477C99.6266 63.4349 99.6273 63.4217 99.6266 63.4091C99.6244 63.373 99.6197 63.3368 99.615 63.3005C99.613 63.2849 99.612 63.2687 99.6098 63.2529C99.6029 63.2099 99.5936 63.1672 99.5829 63.1244C99.5809 63.1162 99.5802 63.1083 99.5778 63.1002L91.9949 33.9008C91.9818 33.8501 91.9659 33.8006 91.9482 33.7519C91.9434 33.7393 91.9374 33.727 91.9325 33.7147C91.9183 33.6786 91.9037 33.6423 91.8871 33.6078C91.8822 33.5978 91.8762 33.5879 91.871 33.5777C91.8526 33.5412 91.8333 33.5049 91.8123 33.4699C91.8085 33.4636 91.8036 33.4577 91.7998 33.4514C91.7759 33.4133 91.7513 33.3758 91.7241 33.3403C91.7211 33.3362 91.7179 33.3325 91.715 33.3288C91.6863 33.2913 91.656 33.2549 91.6243 33.2201C91.6206 33.2162 91.6167 33.2129 91.6129 33.209C91.5813 33.1748 91.548 33.1417 91.513 33.1104C91.5034 33.102 91.4924 33.0942 91.4828 33.0858C91.4527 33.0604 91.4229 33.0347 91.3911 33.0117C91.3484 32.9802 91.3038 32.9509 91.2575 32.9237L53.6625 10.8293C52.9006 10.3818 51.9201 10.6365 51.4724 11.3983L9.16737 83.3829C8.71967 84.1447 8.97428 85.1252 9.73607 85.5729ZM95.5104 60.1667L81.8284 52.1279L89.869 38.4445L95.5104 60.1667ZM53.4203 14.3991L88.2566 34.8722L78.259 51.8862C78.0439 52.2521 77.983 52.6884 78.0896 53.099C78.1964 53.5094 78.4621 53.861 78.8278 54.0759L95.8399 64.0711L65.9642 114.906L12.7367 83.6248L53.4203 14.3991Z" fill="white" fill-opacity="0.25"/>
</g>
<defs>
<clipPath id="clip0">
<rect width="92.0498" height="104.458" fill="white" transform="translate(53.6392 0.710938) rotate(30.4426)"/>
</clipPath>
</defs>
</svg>
