<svg width="19" height="19" viewBox="0 0 19 19" fill="none" xmlns="http://www.w3.org/2000/svg">
<g clip-path="url(#clip0)">
<path d="M4.6441 12.5246C5.07378 12.0801 5.78237 12.0681 6.22685 12.4978C6.67132 12.9275 6.68332 13.636 6.25364 14.0805C5.82396 14.525 5.11537 14.537 4.67089 14.1073C4.22642 13.6776 4.21442 12.969 4.6441 12.5246Z" fill="#66727D"/>
<path d="M6.92242 5.44784C7.3521 5.00337 8.06069 4.99137 8.50517 5.42105C8.94965 5.85073 8.96164 6.55932 8.53196 7.0038C8.10228 7.44828 7.39369 7.46027 6.94921 7.03059C6.50474 6.60095 6.49274 5.89232 6.92242 5.44784Z" fill="#66727D"/>
<path d="M13.9302 11.0886C14.3599 10.6441 15.0685 10.6321 15.513 11.0618C15.9575 11.4914 15.9695 12.2 15.5398 12.6445C15.1101 13.089 14.4015 13.101 13.957 12.6713C13.5125 12.2416 13.5006 11.533 13.9302 11.0886Z" fill="#66727D"/>
<path d="M10.3479 13.2549C10.5627 13.0327 10.9171 13.0267 11.1393 13.2415C11.3615 13.4564 11.3675 13.8107 11.1527 14.0329C10.9379 14.2551 10.5835 14.2611 10.3613 14.0463C10.1391 13.8315 10.1331 13.4772 10.3479 13.2549Z" fill="#66727D"/>
<path d="M9.13796 9.82012C9.35278 9.5979 9.70711 9.5919 9.92933 9.80673C10.1516 10.0215 10.1575 10.3759 9.94273 10.5981C9.7279 10.8203 9.37357 10.8263 9.15135 10.6115C8.92913 10.3966 8.92313 10.0423 9.13796 9.82012Z" fill="#66727D"/>
<path d="M4.49342 7.59472C4.70825 7.3725 5.06258 7.3665 5.2848 7.58133C5.50702 7.79615 5.51302 8.15048 5.2982 8.3727C5.08337 8.59492 4.72904 8.60092 4.50682 8.3861C4.2846 8.17128 4.2786 7.81695 4.49342 7.59472" fill="#66727D"/>
<path d="M0.915816 10.0205C0.999388 14.9573 5.08396 18.9059 10.0207 18.8223C14.9575 18.7388 18.9061 14.6542 18.8225 9.71741C18.8197 9.54637 18.8053 9.3788 18.7829 9.11789C18.7583 8.82697 18.5134 8.60316 18.221 8.60539C17.3952 8.61117 16.6364 8.15555 16.2413 7.4172C16.1679 7.28068 16.0416 7.18059 15.8917 7.1405C15.7418 7.1004 15.582 7.12496 15.4506 7.20701C15.093 7.43116 14.7085 7.54809 14.308 7.55487C13.0735 7.57577 12.0526 6.5889 12.0317 5.35442C12.025 4.95387 12.1288 4.56564 12.3407 4.20072C12.4188 4.06657 12.4374 3.90554 12.3923 3.75762C12.3471 3.60915 12.2428 3.48629 12.1039 3.41757C11.3526 3.04765 10.8716 2.30472 10.8494 1.47916C10.8417 1.1874 10.5157 0.945834 10.2246 0.929979C10.0566 0.921345 9.88869 0.912713 9.71765 0.915608C4.78079 0.999149 0.832243 5.08372 0.915816 10.0205H0.915816ZM9.78629 2.03448C9.94549 2.88125 10.4278 3.63399 11.1338 4.13802C10.9809 4.53528 10.9055 4.95473 10.9126 5.37333C10.9439 7.22478 12.4755 8.70534 14.3269 8.674C14.7455 8.66691 15.1622 8.57732 15.554 8.41107C16.0817 9.09962 16.8503 9.55617 17.702 9.68661C17.7028 9.703 17.7031 9.71992 17.7034 9.73632C17.7765 14.0562 14.3217 17.63 10.0018 17.7031C5.68195 17.7763 2.1081 14.3215 2.03497 10.0016C1.96185 5.68174 5.4167 2.1079 9.73656 2.03477C9.75296 2.03449 9.76991 2.0342 9.78629 2.03448Z" fill="#66727D"/>
</g>
<defs>
<clipPath id="clip0">
<rect width="17.9093" height="17.9093" fill="white" transform="translate(1.06738 18.9739) rotate(-90.9698)"/>
</clipPath>
</defs>
</svg>
