<svg width="39" height="23" viewBox="0 0 39 23" fill="none" xmlns="http://www.w3.org/2000/svg">
<rect x="0.493164" y="0.7854" width="37.9265" height="21.8559" rx="2" fill="white"/>
<path fill-rule="evenodd" clip-rule="evenodd" d="M6.9813 8.24337H5.71143V12.6632H6.96481C7.64113 12.6632 8.11927 12.5147 8.54812 12.1519C9.04291 11.7397 9.35617 11.1129 9.35617 10.4532C9.35617 9.15052 8.38308 8.24337 6.9813 8.24337ZM7.98737 11.5747C7.70708 11.8057 7.36052 11.9211 6.79994 11.9211H6.56911V9.00197H6.79994C7.36052 9.00197 7.69043 9.10089 7.98737 9.34821C8.28415 9.61201 8.46568 10.0245 8.46568 10.4532C8.46552 10.882 8.28415 11.3109 7.98737 11.5747ZM9.75204 12.6634H10.6096V8.24337H9.75204V12.6634ZM12.7205 9.94209C12.1927 9.74424 12.0443 9.62882 12.0443 9.38135C12.0443 9.10105 12.3246 8.9032 12.6875 8.9032C12.9513 8.9032 13.1658 9.00213 13.3801 9.24944L13.842 8.67237C13.4626 8.34246 13.0174 8.17758 12.5391 8.17758C11.7475 8.17758 11.1538 8.72184 11.1538 9.44746C11.1538 10.0577 11.4341 10.3546 12.2423 10.6514C12.5887 10.7668 12.7536 10.8492 12.836 10.8987C13.0174 11.0143 13.0998 11.179 13.0998 11.3605C13.0998 11.7234 12.8196 11.9872 12.4237 11.9872C12.0278 11.9872 11.6816 11.7729 11.4836 11.3935L10.9395 11.9377C11.3353 12.5148 11.8135 12.7788 12.4732 12.7788C13.3637 12.7788 13.9905 12.1851 13.9905 11.3275C13.9903 10.6182 13.6936 10.3048 12.7205 9.94209ZM14.2543 10.4532C14.2543 11.7561 15.2769 12.7621 16.596 12.7621C16.9589 12.7621 17.2887 12.696 17.6681 12.5147V11.4921C17.3217 11.8383 17.0249 11.9869 16.629 11.9869C15.7715 11.9869 15.1448 11.3437 15.1448 10.453C15.1448 9.61201 15.788 8.93586 16.596 8.93586C17.0084 8.93586 17.3217 9.08425 17.6681 9.43065V8.42458C17.3052 8.22657 16.9919 8.14429 16.6125 8.14429C15.3097 8.14445 14.2543 9.18349 14.2543 10.4532Z" fill="black"/>
<path fill-rule="evenodd" clip-rule="evenodd" d="M20.3561 8.14453C19.0531 8.14453 17.9976 9.16709 17.9976 10.4203C17.9976 11.7728 19.0036 12.7622 20.3561 12.7622C21.6751 12.7622 22.7143 11.7561 22.7143 10.4533C22.7145 9.16709 21.6918 8.14453 20.3561 8.14453Z" fill="#ED6500"/>
<path fill-rule="evenodd" clip-rule="evenodd" d="M24.6605 11.2113L23.4895 8.24268H22.5329L24.4132 12.7779H24.875L26.788 8.24268H25.8479L24.6605 11.2113ZM27.1839 12.6627H29.6247V11.9204H28.0414V10.733H29.5586V9.97437H28.0414V9.00127H29.6247V8.24268H27.1839V12.6627ZM33.0385 9.54553C33.0385 8.72098 32.4776 8.24268 31.4718 8.24268H30.2018V12.6625H31.0593V10.8978H31.1747L32.3622 12.6625H33.4177L32.0324 10.7988C32.6754 10.667 33.0385 10.2217 33.0385 9.54553ZM31.3066 10.2878H31.0593V8.93548H31.3231C31.8674 8.93548 32.1475 9.16631 32.1475 9.59515C32.1477 10.0403 31.8675 10.2878 31.3066 10.2878ZM5.9077 13.9604V14.3564H6.39672V14.5167H5.9077V15.2066H5.73193V13.8H6.41273V13.9604H5.9077ZM7.21551 13.8H7.39143V15.2066H7.21551V13.8ZM8.24063 13.7325L9.29552 14.8394V13.8H9.47129V15.2645L8.41527 14.1582V15.2066H8.24063V13.7325ZM11.0975 14.6939H10.5965L10.8468 14.1243L11.0975 14.6939ZM11.1695 14.8543L11.3299 15.2066H11.5191L10.847 13.7403L10.1751 15.2066H10.3635L10.5244 14.8543H11.1695ZM12.2227 13.7325L13.2787 14.8394V13.8H13.4546V15.2645L12.3973 14.1582V15.2066H12.2227V13.7325ZM15.3307 14.0689C15.2306 13.979 15.092 13.9308 14.9593 13.9308C14.6447 13.9308 14.404 14.1938 14.404 14.5055C14.404 14.8133 14.6423 15.0761 14.9561 15.0761C15.0944 15.0761 15.2263 15.0243 15.3305 14.9306V15.1381C15.2179 15.2019 15.0908 15.2358 14.9614 15.2365C14.5594 15.2365 14.2278 14.9176 14.2278 14.5107C14.2278 14.0945 14.5617 13.7696 14.9767 13.7696C15.1002 13.7696 15.2249 13.8 15.3303 13.8652V14.0689H15.3307ZM16.1379 13.8H16.3127V15.2066H16.1379V13.8ZM17.9514 14.6939H17.4505L17.7022 14.1243L17.9514 14.6939ZM18.0236 14.8543L18.1845 15.2066H18.3729L17.7022 13.7403L17.03 15.2066H17.218L17.3783 14.8543H18.0236ZM19.2687 15.047H19.6962V15.2066H19.0939V13.8H19.2687V15.047ZM22.1816 14.067C22.1307 13.9788 22.0631 13.9341 21.9559 13.9341C21.8436 13.9341 21.7201 14.0105 21.7201 14.1341C21.7201 14.2437 21.8299 14.302 21.917 14.3355L22.017 14.375C22.2174 14.4529 22.3666 14.5634 22.3666 14.7982C22.3666 15.0542 22.1684 15.2365 21.917 15.2365C21.689 15.2365 21.5118 15.0689 21.4827 14.8431L21.6596 14.8061C21.6573 14.9605 21.7806 15.0726 21.9309 15.0726C22.0825 15.0726 22.1904 14.9461 22.1904 14.7982C22.1904 14.6474 22.0693 14.5818 21.9483 14.5311L21.8516 14.4906C21.6906 14.4214 21.5453 14.3302 21.5453 14.1341C21.5453 13.9061 21.7466 13.7696 21.9599 13.7696C22.1159 13.7696 22.2449 13.8466 22.321 13.9825L22.1816 14.067ZM23.1607 13.8H23.9169V13.9604H23.3367V14.3547H23.9011V14.5149H23.3367V15.047H23.9169V15.2066H23.1607V13.8ZM24.9128 13.9567H24.9577C25.1329 13.9567 25.3413 13.9884 25.3413 14.209C25.3413 14.4326 25.1461 14.4659 24.9673 14.4659H24.9126V13.9567H24.9128ZM25.1679 14.5951C25.3712 14.5704 25.5055 14.403 25.5055 14.2011C25.5055 14.067 25.438 13.9341 25.3201 13.865C25.2086 13.8018 25.0741 13.8 24.9497 13.8H24.7372V15.2066H24.9129V14.6122H24.9851L25.3994 15.2066H25.6116L25.1679 14.5951ZM26.8169 14.8411L27.2348 13.8H27.4274L26.8169 15.282L26.2052 13.8H26.3975L26.8169 14.8411ZM28.1437 13.8H28.3193V15.2066H28.1437V13.8ZM30.2109 14.0689C30.1096 13.979 29.9708 13.9308 29.8376 13.9308C29.5234 13.9308 29.2826 14.1938 29.2826 14.5055C29.2826 14.8133 29.5208 15.0761 29.8344 15.0761C29.9729 15.0761 30.1061 15.0243 30.2109 14.9306V15.1381C30.0979 15.2018 29.9705 15.2356 29.8408 15.2365C29.44 15.2365 29.1067 14.9176 29.1067 14.5107C29.1067 14.0945 29.4422 13.7696 29.8556 13.7696C29.979 13.7696 30.1038 13.8 30.2111 13.8652V14.0689H30.2109ZM31.0212 13.8H31.7773V13.9604H31.1973V14.3547H31.7606V14.5149H31.1973V15.047H31.7773V15.2066H31.0212V13.8ZM33.221 14.067C33.1697 13.9788 33.1025 13.9341 32.9962 13.9341C32.8847 13.9341 32.7611 14.0105 32.7611 14.1341C32.7611 14.2437 32.8699 14.302 32.9568 14.3355L33.0585 14.375C33.2573 14.4529 33.4065 14.5634 33.4065 14.7982C33.4065 15.0542 33.2086 15.2365 32.9568 15.2365C32.7299 15.2365 32.5514 15.0689 32.5229 14.8431L32.6993 14.8061C32.697 14.9605 32.8213 15.0726 32.9719 15.0726C33.1232 15.0726 33.2317 14.9461 33.2317 14.7982C33.2317 14.6474 33.1094 14.5818 32.9887 14.5311L32.8919 14.4906C32.7308 14.4214 32.5855 14.3302 32.5855 14.1341C32.5855 13.9061 32.7872 13.7696 33.0001 13.7696C33.1561 13.7696 33.2855 13.8466 33.3625 13.9825L33.221 14.067ZM33.5424 8.6347C33.5424 8.66864 33.5192 8.68656 33.4721 8.68656H33.4561V8.58524H33.4732C33.52 8.5854 33.5424 8.6014 33.5424 8.6347ZM33.6804 8.90251L33.5522 8.74147C33.6069 8.72738 33.6384 8.68737 33.6384 8.6323C33.6384 8.5561 33.585 8.51304 33.4899 8.51304H33.3658V8.90251H33.4577V8.75171L33.5669 8.90251H33.6804ZM33.8441 8.70705C33.8441 8.52105 33.6929 8.3677 33.5093 8.3677C33.4646 8.3674 33.4203 8.37597 33.3789 8.39291C33.3376 8.40985 33.3 8.43482 33.2684 8.46638C33.2367 8.49794 33.2117 8.53546 33.1946 8.57678C33.1776 8.61809 33.1689 8.66237 33.1691 8.70705C33.1691 8.8961 33.321 9.04689 33.5093 9.04689C33.6929 9.04673 33.8441 8.89354 33.8441 8.70705ZM33.7756 8.70801C33.7756 8.86073 33.6556 8.98591 33.5077 8.98591C33.3588 8.98591 33.2363 8.86137 33.2363 8.70801C33.2363 8.5529 33.3577 8.42964 33.5077 8.42964C33.6556 8.42964 33.7756 8.55482 33.7756 8.70801Z" fill="black"/>
</svg>
