<svg width="88" height="17" viewBox="0 0 88 17" fill="none" xmlns="http://www.w3.org/2000/svg">
<g clip-path="url(#clip0)">
<path d="M6.89306 2.68299C5.86116 2.68299 5.55159 3.13604 5.55159 4.14512V5.81318H8.31707L8.04878 8.53149H5.55159V16.7482H2.22889V8.53149H0V5.83377H2.22889V4.2069C2.22889 1.44739 3.34334 0.00585938 6.41839 0.00585938C7.05816 0.00585938 7.71857 0.047046 8.35835 0.129419V2.68299" fill="#1877F2"/>
<path d="M8.54408 10.9404C8.54408 7.89263 9.98873 5.58618 13.0431 5.58618C14.6942 5.58618 15.7054 6.43051 16.2007 7.50136V5.8333H19.379V16.7684H16.1801V15.1209C15.7261 16.1711 14.6735 16.9949 13.0225 16.9949C9.98873 16.9949 8.52344 14.709 8.52344 11.6406L8.54408 10.9404ZM11.8668 11.6818C11.8668 13.3087 12.4653 14.4001 14.0131 14.4001C15.3752 14.4001 16.0563 13.4116 16.0563 11.8466V10.7345C16.0563 9.16942 15.3546 8.18094 14.0131 8.18094C12.4653 8.18094 11.8668 9.25179 11.8668 10.8993V11.6818Z" fill="#1877F2"/>
<path d="M26.272 5.58618C27.5515 5.58618 28.7898 5.85389 29.4502 6.32754L28.7072 8.67518C28.0262 8.34569 27.2626 8.18094 26.499 8.18094C24.7035 8.18094 23.9193 9.21061 23.9193 10.9816V11.62C23.9193 13.391 24.7035 14.4207 26.499 14.4207C27.2626 14.4207 28.0262 14.2354 28.7072 13.9059L29.4502 16.2535C28.7898 16.7066 27.5722 16.9949 26.272 16.9949C22.3714 16.9949 20.6172 14.915 20.6172 11.5582V11.0434C20.6172 7.6867 22.3714 5.58618 26.272 5.58618Z" fill="#1877F2"/>
<path d="M29.8838 11.7024V10.7345C29.8838 7.62492 31.6586 5.58618 35.2703 5.58618C38.6755 5.58618 40.1821 7.64551 40.1821 10.6933V12.4438H33.2065C33.2684 13.9471 33.9495 14.6061 35.7862 14.6061C36.9832 14.6061 38.1802 14.3795 39.3153 13.9471L39.9138 16.2123C39.047 16.6654 37.2515 17.0155 35.6624 17.0155C31.4523 16.9949 29.8838 14.915 29.8838 11.7024ZM33.2065 10.2609H37.2102V9.99315C37.2102 8.79874 36.7356 7.85145 35.2703 7.85145C33.7843 7.85145 33.2065 8.79874 33.2065 10.2609Z" fill="#1877F2"/>
<path d="M52.4819 11.6407C52.4819 14.6885 51.0166 16.9949 47.9622 16.9949C46.3112 16.9949 45.1555 16.1712 44.7014 15.1209V16.7684H41.5645V0.334937L44.8872 0.0466309V7.35726C45.3618 6.38937 46.435 5.60683 47.9828 5.60683C51.0166 5.60683 52.5025 7.89269 52.5025 10.9611L52.4819 11.6407ZM49.1592 10.8787C49.1592 9.33422 48.5607 8.18099 46.9716 8.18099C45.6095 8.18099 44.8872 9.14888 44.8872 10.714V11.8672C44.8872 13.4323 45.6301 14.4002 46.9716 14.4002C48.5607 14.4002 49.1592 13.2469 49.1592 11.7024V10.8787Z" fill="#1877F2"/>
<path d="M53.5762 11.5582V11.0022C53.5762 7.85145 55.3717 5.58618 59.0246 5.58618C62.6775 5.58618 64.473 7.85145 64.473 11.0022V11.5582C64.473 14.709 62.6775 16.9743 59.0246 16.9743C55.3717 16.9743 53.5762 14.7296 53.5762 11.5582ZM61.1709 10.7757C61.1709 9.33417 60.5724 8.18094 59.0246 8.18094C57.4767 8.18094 56.8782 9.33417 56.8782 10.7757V11.8054C56.8782 13.2469 57.4767 14.4001 59.0246 14.4001C60.5724 14.4001 61.1709 13.2469 61.1709 11.8054V10.7757Z" fill="#1877F2"/>
<path d="M65.6079 11.5582V11.0022C65.6079 7.85145 67.4034 5.58618 71.0563 5.58618C74.7092 5.58618 76.5047 7.85145 76.5047 11.0022V11.5582C76.5047 14.709 74.7092 16.9743 71.0563 16.9743C67.4034 16.9743 65.6079 14.7296 65.6079 11.5582ZM73.2027 10.7757C73.2027 9.33417 72.6042 8.18094 71.0563 8.18094C69.5085 8.18094 68.91 9.33417 68.91 10.7757V11.8054C68.91 13.2469 69.5085 14.4001 71.0563 14.4001C72.6042 14.4001 73.2027 13.2469 73.2027 11.8054V10.7757Z" fill="#1877F2"/>
<path d="M81.0657 11.0433L84.3472 5.8126H87.8556L84.4297 11.2286L88.0001 16.7682H84.471L81.0657 11.414V16.7682H77.7637V0.334779L81.0657 0.0258789" fill="#1877F2"/>
</g>
<defs>
<clipPath id="clip0">
<rect width="88" height="17" fill="white"/>
</clipPath>
</defs>
</svg>
