<svg width="10" height="18" viewBox="0 0 10 18" fill="none" xmlns="http://www.w3.org/2000/svg">
<path d="M9.36515 0.0037452L7.03098 0C4.40862 0 2.71393 1.73871 2.71393 4.42982V6.47227H0.367026C0.164226 6.47227 0 6.63668 0 6.83949V9.79876C0 10.0016 0.164413 10.1658 0.367026 10.1658H2.71393V17.633C2.71393 17.8358 2.87816 18 3.08096 18H6.143C6.3458 18 6.51003 17.8356 6.51003 17.633V10.1658H9.25411C9.45691 10.1658 9.62113 10.0016 9.62113 9.79876L9.62226 6.83949C9.62226 6.74211 9.58349 6.64886 9.51477 6.57994C9.44605 6.51103 9.35242 6.47227 9.25504 6.47227H6.51003V4.74086C6.51003 3.90868 6.70833 3.48622 7.79237 3.48622L9.36478 3.48566C9.56739 3.48566 9.73161 3.32124 9.73161 3.11863V0.370775C9.73161 0.168347 9.56758 0.00411972 9.36515 0.0037452Z" fill="white"/>
</svg>
