<svg width="100" height="36" viewBox="0 0 100 36" fill="none" xmlns="http://www.w3.org/2000/svg">
<path fill-rule="evenodd" clip-rule="evenodd" d="M91.7793 22.4724L99.6823 13.6741H90.4204L87.206 17.3154L83.8678 13.6741H66.2559V11.3217H74.5837V4.26608H57.8374V31.3396H83.6374L86.914 27.6679L90.222 31.3396H99.7889L91.7793 22.4724ZM73.1678 19.1089H64.84V25.6711H73.1678V30.0271H59.1632V5.57863H73.2567V10.008H64.9301V14.9867H73.1672L73.1678 19.1089ZM74.6732 30.8722V24.1802H66.3471V20.5999H74.6738V14.1416L82.1941 22.5069L74.6732 30.8722ZM86.91 25.6897L83.0398 30.0271H77.3898L84.1483 22.5074L77.3898 14.9867H83.2804L87.2253 19.289L91.0232 14.9867H96.729L90.0019 22.4747L96.8236 30.0265H90.8173L86.91 25.6897Z" fill="#A4AEB6"/>
<path fill-rule="evenodd" clip-rule="evenodd" d="M52.1535 4.26385V15.3446H52.0822C50.6646 13.7312 48.8928 13.1689 46.8377 13.1689C42.6207 13.1689 39.4508 16.0142 38.3428 19.7678C37.0751 15.632 33.8048 13.0932 28.9441 13.0932C24.9969 13.0932 21.8873 14.8518 20.2633 17.7129V14.1517H12.1151V10.2988H21.0086V4.26385H4.84912V31.3397H12.1151V19.958H19.3635C19.1373 20.8327 19.0233 21.7322 19.0242 22.6351C19.0242 28.2821 23.3825 32.2463 28.9446 32.2463C33.6218 32.2463 36.7045 30.0717 38.3348 26.1081H32.1089C31.2678 27.3004 30.628 27.6533 28.9446 27.6533C26.9927 27.6533 25.3099 25.9675 25.3099 23.9679H37.9938C38.5441 28.4526 42.0659 32.3225 46.9095 32.3225C49 32.3225 50.9132 31.3058 52.0827 29.5868H52.154V31.3397H58.5578V4.26385H52.1535ZM25.5118 20.0388C25.9155 18.3203 27.2619 17.1957 28.9446 17.1957C30.7968 17.1957 32.0758 18.2847 32.4123 20.0388H25.5118ZM48.2661 27.218C45.9065 27.218 44.4398 25.0394 44.4398 22.7666C44.4398 20.3357 45.7149 17.9996 48.2661 17.9996C50.9132 17.9996 51.9647 20.3357 51.9647 22.7666C51.9647 25.0716 50.8493 27.218 48.2661 27.218Z" fill="#A4AEB6"/>
</svg>
