<svg width="88" height="16" viewBox="0 0 88 16" fill="none" xmlns="http://www.w3.org/2000/svg">
<path d="M16 6.1142H9.88727L8.00557 0L6.11274 6.1142L0 6.10249L4.94363 9.8858L3.0508 16L7.99443 12.2167L12.9381 16L11.0564 9.8858L16 6.1142Z" fill="#FFCF27"/>
<path d="M34 6.1142H27.8873L26.0056 0L24.1127 6.1142L18 6.10249L22.9436 9.8858L21.0508 16L25.9944 12.2167L30.9381 16L29.0564 9.8858L34 6.1142Z" fill="#FFCF27"/>
<path d="M52 6.1142H45.8873L44.0056 0L42.1127 6.1142L36 6.10249L40.9436 9.8858L39.0508 16L43.9944 12.2167L48.9381 16L47.0564 9.8858L52 6.1142Z" fill="#FFCF27"/>
<path d="M70 6.1142H63.8873L62.0056 0L60.1127 6.1142L54 6.10249L58.9436 9.8858L57.0508 16L61.9944 12.2167L66.9381 16L65.0564 9.8858L70 6.1142Z" fill="#FFCF27"/>
<path d="M88 6.1142H81.8873L80.0056 0L78.1127 6.1142L72 6.10249L76.9436 9.8858L75.0508 16L79.9944 12.2167L84.9381 16L83.0564 9.8858L88 6.1142Z" fill="#FFCF27"/>
</svg>
