<svg width="115" height="52" viewBox="0 0 115 52" fill="none" xmlns="http://www.w3.org/2000/svg">
<path fill-rule="evenodd" clip-rule="evenodd" d="M49.4285 19.8067C49.0974 19.8067 48.4006 18.7862 48.4298 17.7209L48.437 12.3172H49.8199C50.5585 12.3172 51.5716 12.2177 52.4939 12.8168C52.4939 12.8168 51.849 10.9205 49.8199 10.9205H48.437V9.52267C48.437 9.52267 48.437 8.32509 48.1607 7.92511H50.0967C51.6652 7.92511 52.9563 7.92511 54.3392 8.82344C54.3392 8.82344 54.0612 6.52783 50.8341 6.52783H44.6569C44.6569 6.52783 45.763 7.52571 45.6705 9.52208L45.763 17.7096C45.763 19.7048 46.5004 19.8043 46.5004 19.8043L49.4285 19.8067ZM69.795 9.1215L67.9914 9.1209C67.9914 9.1209 68.7861 9.62521 68.3142 11.7724H68.3166L66.9134 18.081C66.9134 18.081 66.769 18.9674 66.5041 18.9626C65.5764 18.9465 65.1557 17.4396 64.9988 16.9275C64.8938 16.5907 63.8641 10.6922 63.8217 10.5134C63.493 9.16978 62.7126 9.12269 62.2431 9.1215H60.4032C60.4032 9.1215 60.8912 9.40047 61.143 10.4168C61.177 10.5504 62.3958 16.9472 62.3958 16.9472C62.3958 16.9472 62.6476 18.2902 63.4399 18.9579C64.3885 19.7578 65.2172 19.8061 65.7882 19.8061C66.2028 19.8061 66.5375 19.5701 66.5375 19.5701L66.3102 20.4666C65.8979 22.2347 64.5973 23.1187 64.5973 23.1187C64.5973 23.1187 67.3996 23.1205 67.4252 23.1187C67.5989 23.1038 68.3082 22.8916 68.8702 20.5757L70.9178 11.8231C71.4267 9.26039 70.4047 9.12746 69.795 9.1215ZM58.7392 17.1499C58.7392 18.9209 59.8358 19.8061 59.8358 19.8061H57.0454C57.0454 19.8061 56.1487 19.9325 56.1487 17.1499V9.18408C56.1487 7.03393 55.2526 6.52843 55.2526 6.52843H56.9464C57.5442 6.52843 58.7392 6.52843 58.7392 9.43743V17.1499ZM95.6765 44.7866C97.7706 44.4456 98.4603 43.5604 98.4603 43.5604V40.9977C96.7999 44.0134 94.0859 42.9583 93.4821 42.6555C91.5199 41.9032 91.3684 39.3406 91.3684 39.3406C92.8784 37.5302 94.6879 37.9832 97.1024 35.4206C100.119 32.254 97.8565 28.7877 93.6325 28.7877C89.257 28.7877 86.8425 32.8579 86.8425 37.2285C86.8425 41.0812 89.069 44.1154 92.4906 44.7812C93.3378 44.944 94.8227 44.9219 95.6765 44.7866ZM68.8911 42.9589C67.9855 42.9589 67.2308 42.054 67.2308 40.9983C67.2308 37.0795 70.5503 36.4775 71.4559 35.4217V42.0546C71.0037 42.5047 70.7006 42.9589 68.8911 42.9589ZM17.4443 42.6561H12.7681C11.2599 42.6561 11.4102 41.4502 11.2599 40.3951V33.612H13.5222C14.7297 33.612 16.3895 33.4606 17.8977 34.3654C17.8977 34.3654 16.8411 31.5023 13.5222 31.5023H11.2599V29.3915C11.2599 29.3915 11.2599 27.5835 10.807 26.9785H13.9756C16.5399 26.9785 18.6524 26.9785 20.9154 28.337C20.9154 28.337 20.462 24.8695 15.1826 24.8695H5.07422C5.07422 24.8695 6.88493 26.3764 6.73399 29.3915L6.88433 41.7524C6.88433 43.8573 7.47259 44.5666 7.82757 44.8015H19.0247C20.5753 44.4104 21.2173 43.1157 21.2173 42.3545V41.1486C21.2173 41.1486 20.4614 42.6561 17.4443 42.6561ZM106.457 40.5465C106.457 41.6004 105.4 43.1091 103.288 43.1091C101.025 43.1091 100.271 40.8481 100.271 40.8481V43.7112C100.271 43.7112 101.257 44.5005 102.912 44.8021H105.331C107.666 44.3341 109.808 42.4785 109.926 40.0684V39.6422C109.926 38.5865 109.625 37.6816 109.021 36.7779C107.965 35.572 106.154 34.6671 104.796 33.7634C104.042 33.3103 103.59 32.4072 103.59 32.1044C103.59 31.5023 103.891 30.4466 106.003 30.4466C108.115 30.4466 109.021 32.7089 109.021 32.7089V29.9948C109.021 29.9948 107.362 28.7889 104.948 28.7889C102.384 28.7889 100.119 30.4466 100.119 32.5575C100.271 34.5169 101.025 35.7234 102.534 36.7779C103.138 37.2297 103.891 37.6816 104.796 38.1352C106.003 38.8875 106.457 39.6416 106.457 40.5465ZM71.4559 33.9136C70.3993 35.5714 62.8564 35.873 64.0634 41.9038C64.4165 43.6701 65.4165 44.5166 66.7714 44.8015H69.0492C70.3415 44.5034 71.0932 43.6826 71.4553 42.9583C71.7572 44.7663 72.6611 44.7663 72.6611 44.7663H76.8863C76.8863 44.7663 75.2271 43.7106 75.2271 41.5998V32.7083C75.2271 30.5963 72.8126 28.7883 70.3982 28.7883C67.9849 28.7883 66.3257 29.9942 66.3257 29.9942V32.8585C66.3257 32.8585 67.2302 30.5963 69.4943 30.5963C71.6057 30.5963 71.7572 31.6514 71.7572 32.254C71.7572 32.2546 71.9076 32.8585 71.4559 33.9136ZM49.5795 27.5835C50.6355 27.5835 51.5411 26.6775 51.5411 25.6223C51.5411 24.5684 50.6355 23.6635 49.5795 23.6635C48.5235 23.6635 47.6184 24.5684 47.6184 25.6223C47.6184 26.6775 48.5241 27.5835 49.5795 27.5835ZM94.537 34.5169C95.1419 33.1607 95.7451 29.8434 93.3312 29.9948C90.616 30.2952 91.0683 37.6816 91.0683 37.6816C91.9733 36.6277 93.4821 36.4775 94.537 34.5169ZM84.2783 30.5969C85.6367 30.5969 86.6927 31.3515 86.6927 31.3515V28.9403H83.2229V25.1711C83.2229 25.1711 82.3196 26.8283 80.3574 28.3376C79.1504 29.3927 76.5868 30.5975 76.5868 30.5975H79.3008V41.7536C79.3008 44.7681 80.6592 44.7681 80.6592 44.7681H84.8844C84.8844 44.7681 83.2229 43.7124 83.2229 41.7536V30.5975L84.2783 30.5969ZM64.5156 30.145C64.5156 30.145 64.2137 28.9403 62.403 28.9403C59.6878 28.9403 59.0847 32.105 59.0847 32.105C58.9343 29.5423 58.179 28.7895 56.3695 28.7895H53.8053C53.8053 28.7895 55.3129 29.3927 55.3129 32.105V41.601C55.3129 44.7675 56.5204 44.7675 56.5204 44.7675H60.7438C60.5947 44.7675 59.0847 43.7118 59.0847 41.601V33.7646C59.2362 33.0099 59.6884 32.5586 60.1407 32.1056C61.4979 31.2019 63.4602 31.5035 64.5162 32.7101L64.5156 30.145ZM51.5411 41.6004C51.5411 43.7112 53.2009 44.7669 53.2009 44.7669H48.9763C48.9763 44.7669 47.6184 44.9171 47.6184 41.6004V32.1044C47.6184 29.5417 46.2605 28.9397 46.2605 28.9397H48.8254C49.731 28.9397 51.5411 28.9397 51.5411 32.4066V41.6004ZM44.1479 41.6004V33.0093C44.1479 29.6938 41.4334 28.7889 39.3208 28.7889C36.756 28.7889 35.8515 31.0487 35.5496 31.8034C34.9452 29.6938 32.8333 28.7889 31.1735 28.7889C27.8551 28.7889 27.101 31.8034 27.101 31.8034C27.101 31.8034 26.9501 28.9403 24.3853 28.9403H21.8204C21.8204 28.9403 23.3287 29.5423 23.3287 32.105V41.601C23.3287 43.8245 23.9235 44.5619 24.2785 44.8027H28.6266C28.2197 44.4546 27.101 43.4197 27.101 41.601V33.1613C27.252 32.7095 27.8551 31.5035 29.6659 31.5035C30.7218 31.5035 31.7778 32.5586 31.7778 33.7646V41.601C31.7778 44.7675 32.9848 44.7675 32.9848 44.7675H37.2088C37.2088 44.7675 35.7006 43.7118 35.7006 41.601V33.1613C35.8521 32.7095 36.3043 31.5035 37.9635 31.5035C39.171 31.5035 40.2258 32.5586 40.2258 33.7646V41.601C40.2258 44.9177 41.5843 44.7675 41.5843 44.7675H45.8083C45.8083 44.7675 44.1479 43.7112 44.1479 41.6004Z" fill="#A4AEB6"/>
</svg>
