<svg width="74" height="74" viewBox="0 0 74 74" fill="none" xmlns="http://www.w3.org/2000/svg">
<path d="M17.9033 63.2581H63.2582V69.2258H17.9033V63.2581Z" fill="#C3DBEF"/>
<path d="M40.5805 59.6775C30.7086 59.6775 22.6772 51.6462 22.6772 41.7743C22.6772 31.9025 30.7086 23.8711 40.5805 23.8711C50.4523 23.8711 58.4837 31.9025 58.4837 41.7743C58.4837 51.6462 50.4523 59.6775 40.5805 59.6775Z" fill="#FFCF27"/>
<path d="M35.2178 41.3517L34 43.1768L40.325 48.059L46.3647 35.98L44.4015 35L39.4735 44.8565L35.2178 41.3517Z" fill="#333333"/>
<path d="M60.871 15.0219V4.77419H44.0407C43.4859 2.05433 41.0749 0 38.1936 0C35.3123 0 32.9013 2.05433 32.3465 4.77419H5.96777V66.8387H13.1291V74H68.0323V22.1832L60.871 15.0219ZM58.4839 16.0103L63.9574 21.4839H58.4839V16.0103ZM58.4839 12.6348L57.7846 11.9355H44.1613V7.16129H58.4839V12.6348ZM8.35487 64.4516V7.16129H32.2258V11.9355H13.1291V64.4516H8.35487ZM15.5162 71.6129V14.3226H32.2258V17.9032C32.2258 19.8771 33.8326 21.4839 35.8065 21.4839C37.7804 21.4839 39.3871 19.8771 39.3871 17.9032V7.16129H37V17.9032C37 18.5606 36.4639 19.0968 35.8065 19.0968C35.1491 19.0968 34.6129 18.5606 34.6129 17.9032V5.96774C34.6129 3.99384 36.2197 2.3871 38.1936 2.3871C40.1675 2.3871 41.7742 3.99384 41.7742 5.96774V21.4839H44.1613V14.3226H56.0968V23.871H65.6452V71.6129H15.5162Z" fill="#333333"/>
<path d="M17.9033 62.0645H63.2582V64.4516H17.9033V62.0645Z" fill="#333333"/>
<path d="M17.9033 66.8389H58.484V69.226H17.9033V66.8389Z" fill="#333333"/>
<path d="M60.8711 66.8389H63.2582V69.226H60.8711V66.8389Z" fill="#333333"/>
</svg>
