<svg width="70" height="70" viewBox="0 0 70 70" fill="none" xmlns="http://www.w3.org/2000/svg">
<path d="M58 49H12V3H58V49Z" stroke="#333333" stroke-width="2"/>
<path d="M64.3548 15.8064H59V18.0645H64.3548C66.222 18.0645 67.7419 19.5844 67.7419 21.4516V51.9354H2.25806V21.4516C2.25806 19.5844 3.77796 18.0645 5.64516 18.0645H11V15.8064H5.64516C2.5326 15.8064 0 18.339 0 21.4516V57.5806C0 60.6931 2.5326 63.2257 5.64516 63.2257H20.3226V67.7419H15.8065V69.9999H54.1936V67.7419H49.6774V63.2257H64.3548C67.4674 63.2257 70 60.6931 70 57.5806V21.4516C70 18.339 67.4674 15.8064 64.3548 15.8064ZM47.4194 67.7419H22.5806V63.2257H47.4194V67.7419ZM64.3548 60.9677H5.64516C3.77796 60.9677 2.25806 59.4478 2.25806 57.5806V54.1935H67.7419V57.5806C67.7419 59.4478 66.222 60.9677 64.3548 60.9677Z" fill="#333333"/>
<path d="M27.0967 56.4517H29.3547V58.7097H27.0967V56.4517Z" fill="#333333"/>
<path d="M31.6128 56.4517H38.387V58.7097H31.6128V56.4517Z" fill="#333333"/>
<path d="M40.645 56.4517H42.9031V58.7097H40.645V56.4517Z" fill="#333333"/>
<rect x="17" y="35" width="36" height="9" fill="#FFCF27"/>
<path d="M54.1937 33.8711H15.8066V45.1614H54.1937V33.8711ZM51.9357 42.9034H18.0647V36.1292H51.9357V42.9034Z" fill="#333333"/>
<path d="M20.3228 38.387H22.5808V40.645H20.3228V38.387Z" fill="#333333"/>
<path d="M24.8389 38.387H27.0969V40.645H24.8389V38.387Z" fill="#333333"/>
<path d="M29.355 38.387H31.613V40.645H29.355V38.387Z" fill="#333333"/>
<path d="M33.8711 38.387H36.1292V40.645H33.8711V38.387Z" fill="#333333"/>
<path d="M38.3872 38.387H40.6453V40.645H38.3872V38.387Z" fill="#333333"/>
<path d="M42.9033 38.387H45.1614V40.645H42.9033V38.387Z" fill="#333333"/>
<path d="M47.4194 38.387H49.6775V40.645H47.4194V38.387Z" fill="#333333"/>
<path d="M16 28H54V30H16V28Z" fill="#333333"/>
<path d="M16 23H54V25H16V23Z" fill="#333333"/>
<path d="M16 18H54V20H16V18Z" fill="#333333"/>
<path d="M16 13H54V15H16V13Z" fill="#333333"/>
</svg>
