<svg width="116" height="40" viewBox="0 0 116 40" fill="none" xmlns="http://www.w3.org/2000/svg">
<path d="M92.4482 1.84735H96.5901V29.6597H92.4482V1.84735Z" fill="#A4AEB6"/>
<path d="M39.6932 11.3151C34.4753 11.3151 30.2251 15.2951 30.2251 20.7761C30.2251 26.2231 34.4753 30.237 39.6932 30.237C44.9112 30.237 49.1614 26.2231 49.1614 20.7761C49.1614 15.2883 44.9112 11.3151 39.6932 11.3151ZM39.6932 26.5083C36.8372 26.5083 34.3738 24.1448 34.3738 20.7761C34.3738 17.3734 36.8372 15.0438 39.6932 15.0438C42.5492 15.0438 45.0127 17.3734 45.0127 20.7761C45.0127 24.1448 42.5492 26.5083 39.6932 26.5083Z" fill="#A4AEB6"/>
<path d="M15.1194 14.2152V18.2291H24.6891C24.4048 20.484 23.6536 22.1344 22.5099 23.2822C21.1157 24.6813 18.9365 26.2231 15.1194 26.2231C9.2247 26.2231 4.62261 21.4552 4.62261 15.5396C4.62261 9.62395 9.2247 4.86291 15.1194 4.86291C18.3003 4.86291 20.6216 6.11939 22.3339 7.72905L25.1561 4.89687C22.7603 2.60125 19.5862 0.848969 15.1194 0.848969C7.04548 0.848969 0.26416 7.44379 0.26416 15.5464C0.26416 23.649 7.05224 30.2438 15.1194 30.2438C19.4779 30.2438 22.7603 28.8107 25.332 26.1212C27.9782 23.4656 28.7971 19.7437 28.7971 16.7282C28.7971 15.7977 28.7227 14.9351 28.5806 14.222H15.1194V14.2152Z" fill="#A4AEB6"/>
<path d="M107.946 26.5083C105.841 26.5083 104.339 25.5439 103.371 23.6422L115.98 18.4057L115.553 17.3326C114.768 15.2204 112.372 11.3083 107.479 11.3083C102.62 11.3083 98.5864 15.1457 98.5864 20.7693C98.5864 26.0736 102.586 30.2302 107.946 30.2302C112.271 30.2302 114.768 27.5746 115.804 26.0397L112.589 23.8867C111.52 25.4692 110.058 26.5083 107.946 26.5083ZM107.628 14.9691C109.273 14.9691 110.667 15.7909 111.127 16.9795L102.701 20.4908C102.593 16.83 105.517 14.9691 107.628 14.9691Z" fill="#A4AEB6"/>
<path d="M85.6598 13.4274H85.5177C84.5905 12.3135 82.8038 11.3151 80.5501 11.3151C75.833 11.3151 71.5151 15.4717 71.5151 20.8168C71.5151 26.1212 75.8398 30.2438 80.5501 30.2438C82.7971 30.2438 84.5838 29.2386 85.5177 28.0908H85.6598V29.456C85.6598 33.076 83.731 35.0117 80.6246 35.0117C78.0867 35.0117 76.5165 33.1847 75.8736 31.6429L72.2664 33.1507C73.3018 35.6569 76.0496 38.7403 80.6246 38.7403C85.4839 38.7403 89.5919 35.8742 89.5919 28.8855V11.8856H85.6598V13.4274ZM80.9088 26.5083C78.0528 26.5083 75.657 24.104 75.657 20.81C75.657 17.4753 78.0528 15.037 80.9088 15.037C83.731 15.037 85.9441 17.4753 85.9441 20.81C85.9441 24.1108 83.731 26.5083 80.9088 26.5083Z" fill="#A4AEB6"/>
<path d="M60.3348 11.3151C55.1169 11.3151 50.8667 15.2951 50.8667 20.7761C50.8667 26.2231 55.1169 30.237 60.3348 30.237C65.5528 30.237 69.803 26.2231 69.803 20.7761C69.803 15.2883 65.5528 11.3151 60.3348 11.3151ZM60.3348 26.5083C57.4788 26.5083 55.0153 24.1448 55.0153 20.7761C55.0153 17.3734 57.4788 15.0438 60.3348 15.0438C63.1908 15.0438 65.6543 17.3734 65.6543 20.7761C65.6611 24.1448 63.1976 26.5083 60.3348 26.5083Z" fill="#A4AEB6"/>
</svg>
