<svg width="62" height="71" viewBox="0 0 62 71" fill="none" xmlns="http://www.w3.org/2000/svg">
<path d="M35.3765 46.8763C44.2001 46.8763 51.353 39.7233 51.353 30.8997C51.353 22.0761 44.2001 14.9231 35.3765 14.9231C26.5529 14.9231 19.3999 22.0761 19.3999 30.8997C19.3999 39.7233 26.5529 46.8763 35.3765 46.8763Z" fill="#FFD027"/>
<path d="M59.0801 4.65262C51.069 4.65262 43.2372 3.14395 35.8012 0.170173L35.3766 0L34.9532 0.16993C27.5162 3.14395 19.6841 4.65238 11.6731 4.65238H9.12923V28.6174H3.42343C1.53594 28.6174 0 30.1533 0 32.0408V51.441C0 53.3285 1.53594 54.8647 3.42343 54.8647H13.694C13.6962 54.8647 13.6974 54.8647 13.6996 54.8647C16.3951 59.1475 20.1301 62.6851 24.5831 65.1126L35.3763 71L46.1696 65.1126C55.7029 59.9134 61.6234 49.9382 61.6234 39.08V4.65262H59.0801ZM2.28212 51.441V32.0408C2.28212 31.4119 2.79337 30.8997 3.42319 30.8997H13.6937C14.3235 30.8997 14.8348 31.4122 14.8348 32.0408V51.441C14.8348 52.0699 14.3235 52.5823 13.6937 52.5823H3.42343C2.79337 52.5823 2.28212 52.0699 2.28212 51.441ZM17.1176 34.3132C20.9282 34.1067 23.9647 30.9409 23.9647 27.0804V21.1998C23.9647 19.6274 25.2441 18.3468 26.8178 18.3468C28.3914 18.3468 29.6708 19.6271 29.6708 21.1998V28.3824C29.6708 30.3999 31.3119 32.041 33.3294 32.041H41.6954C43.8738 32.041 45.6473 33.8134 45.6473 35.993V48.6304C45.6473 50.81 43.874 52.5823 41.6954 52.5823H24.8811C23.975 52.5823 23.135 52.1315 22.6318 51.3785C21.7053 49.9886 20.1542 49.1589 18.4836 49.1589H17.1176V34.3132ZM59.3413 39.0797C59.3413 49.1017 53.8763 58.3098 45.0777 63.1085L35.3766 68.4002L25.6755 63.1085C21.7053 60.9425 18.3502 57.8236 15.8831 54.0508C16.5757 53.4687 17.0312 52.6244 17.095 51.6657C19.3978 55.6381 22.7141 58.8929 26.7688 61.1044L35.3768 65.8003L43.9848 61.1044C52.0497 56.7062 57.0594 48.2671 57.0594 39.0807V21.7703H54.7771V39.0809C54.7771 47.4309 50.2238 55.1033 42.8927 59.1008L35.3768 63.2L27.861 59.1008C24.6452 57.3467 21.9438 54.8681 19.9137 51.869C20.2321 52.0686 20.5174 52.3221 20.7331 52.6451C21.6597 54.035 23.2108 54.8647 24.8813 54.8647H41.6956C45.1339 54.8647 47.93 52.0677 47.93 48.6304V35.993C47.93 32.5557 45.1341 29.7587 41.6956 29.7587H33.3296C32.5708 29.7587 31.9534 29.1413 31.9534 28.3824V21.1998C31.9534 18.3685 29.6493 16.0645 26.818 16.0645C23.9866 16.0645 21.6826 18.3685 21.6826 21.1998V27.0792C21.6826 29.6812 19.6639 31.7968 17.1133 32.0011C17.1018 31.0095 16.6624 30.126 15.9766 29.5077V11.3685C22.6046 10.9612 29.1242 9.60664 35.3766 7.33547C41.6292 9.60639 48.1476 10.961 54.7766 11.3685V12.641H57.0589V9.19691L55.9702 9.14675C49.0615 8.83075 42.2658 7.45208 35.7724 5.04994L35.3763 4.90265L34.9802 5.04872C28.4856 7.45086 21.6899 8.82954 14.7824 9.14554L13.6937 9.19691V28.6176H11.4113V6.93499H11.6726C19.8241 6.93499 27.7952 5.4285 35.3761 2.45692C42.957 5.4285 50.9281 6.93499 59.0796 6.93499H59.3408V39.0797H59.3413Z" fill="#333333"/>
<path d="M57.0587 17.2055H54.7764V19.4879H57.0587V17.2055Z" fill="#333333"/>
<path d="M12.5526 48.0176H4.56445V50.3H12.5526V48.0176Z" fill="#333333"/>
</svg>
