<svg width="279" height="128" viewBox="0 0 279 128" fill="none" xmlns="http://www.w3.org/2000/svg">
<g clip-path="url(#clip0)">
<g clip-path="url(#clip1)">
<path d="M239.809 110.477L264.622 119.656L277.909 83.8449L253.096 74.6656L239.809 110.477Z" fill="#E8F2FB"/>
<path d="M211.991 63.1793C211.858 63.5267 209.873 69.2985 208.983 78.3292C208.563 82.8343 208.451 88.1771 209.331 93.8672C209.76 96.7071 210.477 99.6186 211.53 102.479C212.574 105.319 213.986 108.138 215.715 110.611C217.413 113.103 219.397 115.402 221.607 117.333C223.817 119.274 226.252 120.847 228.717 122.022C233.679 124.371 238.661 125.096 242.784 125.137C246.938 125.178 250.304 124.575 252.585 124.054C253.731 123.789 254.611 123.533 255.204 123.35C255.797 123.166 256.084 123.053 256.074 123.053L254.324 116.158C254.57 116.096 253.741 116.321 252.043 116.536C250.365 116.74 247.848 116.924 244.963 116.679C242.078 116.444 238.835 115.759 235.868 114.329C232.891 112.909 230.231 110.733 228.114 107.842C227.561 107.137 227.101 106.34 226.61 105.574C226.18 104.747 225.699 103.919 225.372 103.133C224.656 101.529 224.124 99.8331 223.756 98.1067C223.019 94.6436 222.917 91.0987 223.142 88.0034C223.357 84.908 223.827 82.2724 224.216 80.4438C224.605 78.605 224.901 77.5732 224.901 77.5732C225.474 75.3768 225.167 73.1498 224.185 71.1578C223.203 69.1759 221.546 67.4597 219.316 66.4586L211.991 63.1793Z" fill="#78909C"/>
<path d="M265.425 113.931L265.445 114.012C266.274 118.497 263.297 122.798 258.805 123.625C256.759 124.003 254.805 122.655 254.427 120.612L253.598 116.107L265.425 113.931Z" fill="#F4AF9A"/>
<path d="M182.742 76.8172V153.026H226.948V76.8172C226.948 71.597 225.137 66.7957 222.088 63.0159C221.587 62.3927 221.055 61.7798 220.472 61.2179C220.012 60.7582 219.531 60.3189 219.04 59.9001C215.203 56.6822 210.242 54.7514 204.84 54.7514C203.346 54.7514 201.883 54.8944 200.472 55.1805C197.883 55.7015 195.448 56.672 193.28 58.0102C186.957 61.8922 182.742 68.8695 182.742 76.8172Z" fill="#78909C"/>
<path d="M200.481 55.1805V137.498H219.039V59.9001C215.203 56.6822 210.241 54.7514 204.84 54.7514C203.356 54.7514 201.883 54.9046 200.481 55.1805Z" fill="white"/>
<path d="M200.481 52.2486V52.5448H212.584C211.367 52.3405 210.119 52.2281 208.84 52.2281H201.484C201.146 52.2281 200.799 52.2384 200.481 52.2486Z" fill="#A1887F"/>
<path d="M204.85 54.7514C203.356 54.7514 201.893 54.8944 200.481 55.1805V77.7775H219.039V59.9001C215.203 56.6822 210.252 54.7514 204.85 54.7514Z" fill="#F4AF9A"/>
<path d="M191.315 53.168H228.431V31.5312C228.431 21.2951 220.124 13 209.873 13C199.622 13 191.315 21.2951 191.315 31.5312V53.168Z" fill="#AF6F33"/>
<path d="M216.359 48.8876C214.252 48.8876 212.554 50.5936 212.554 52.6879V48.8876H217.382H216.359Z" fill="#F4AF9A"/>
<path d="M217.495 49.0102H213.587C204.083 49.0102 196.369 41.3178 196.369 31.8173V30.9898C196.369 24.3496 201.761 18.9557 208.421 18.9557H210.518C217.168 18.9557 222.569 24.3394 222.569 30.9898V43.933C222.579 46.7424 220.308 49.0102 217.495 49.0102Z" fill="#F4AF9A"/>
<path d="M212.553 60.9728L200.481 55.4257V43.0749H212.553V60.9728Z" fill="#F4AF9A"/>
<path d="M223.674 41.6447H222.579V38.0284L224.206 40.7151C224.451 41.1237 224.155 41.6447 223.674 41.6447Z" fill="#F4AF9A"/>
<path d="M221.188 24.462H220.656C215.52 24.462 211.367 28.538 211.367 33.5641H198.477V17.597H221.362L221.188 24.462Z" fill="#AF6F33"/>
<path d="M193.188 23.7366H211.541V34.5448C211.541 40.7253 206.528 45.731 200.339 45.731H193.188V23.7366Z" fill="#AF6F33"/>
<path d="M192.113 59.3484C191.878 59.4915 190.353 60.5743 188.133 62.6175C185.913 64.6708 182.977 67.7049 180 71.7401C177.033 75.7548 174.046 80.8013 171.857 86.5528C169.647 92.294 168.307 98.7298 168.102 105.084L168 107.464L168.051 109.742C168.092 111.254 168.133 112.756 168.174 114.247C168.379 117.241 168.481 120.162 168.829 122.992C169.402 128.641 170.322 133.872 171.57 138.193C172.808 142.524 174.414 145.906 175.826 147.959C176.512 149.001 177.177 149.686 177.617 150.104C177.842 150.299 178.016 150.442 178.118 150.503C178.251 150.595 178.21 150.544 178.22 150.564L182.261 144.711C182.261 144.711 182.333 144.762 182.486 144.874C182.527 144.905 182.568 144.935 182.609 144.966L182.681 145.027L182.722 145.058L182.742 145.078L182.752 145.089C175.847 153.394 180.849 147.387 179.315 149.236C179.448 149.052 179.612 148.848 179.806 148.623C180.184 148.163 180.696 147.612 181.33 147.029C181.709 146.611 182.169 146.151 182.722 145.661L182.936 145.477L183.049 145.385C183.09 145.354 183.059 145.375 183.069 145.375L183.08 145.385L183.049 145.334C183.028 145.293 182.998 145.262 182.957 145.221C182.906 145.14 182.855 145.058 182.803 144.966C182.742 144.864 182.67 144.802 182.599 144.639C181.985 143.566 181.044 141.258 180.379 137.989C179.693 134.72 179.213 130.572 179.09 125.975C179.049 124.831 179.069 123.636 179.059 122.451C179.059 121.848 179.059 121.255 179.049 120.642C179.069 120.029 179.09 119.417 179.12 118.804C179.172 117.568 179.213 116.321 179.264 115.075C179.356 113.818 179.448 112.552 179.54 111.285C179.673 108.619 180.062 106.545 180.338 104.318C180.594 103.245 180.839 102.183 181.095 101.131L181.279 100.344L181.535 99.588C181.699 99.0874 181.872 98.5766 182.036 98.0863C183.407 94.1328 185.156 90.5777 187.07 87.7684C188.952 84.9489 190.752 82.7321 192.134 81.2917C192.471 80.9239 192.778 80.597 193.034 80.311C193.31 80.0352 193.545 79.8104 193.74 79.6265C194.118 79.2486 194.323 79.0545 194.323 79.0545C196.052 77.3995 197.054 75.2747 197.412 73.0477C197.75 70.8104 197.412 68.4302 196.195 66.3155L192.113 59.3484Z" fill="#78909C"/>
</g>
<g clip-path="url(#clip2)">
<path d="M123.742 44.5023C121.161 44.5023 119.07 46.6164 119.07 49.2253V44.5023H124.99H123.742Z" fill="#FFD0C2"/>
<path d="M142 66.3211C142 58.5431 135.763 52.2375 128.069 52.2375H91.9308C84.2371 52.2375 78 58.5431 78 66.3211V166H142V66.3211Z" fill="#20354D"/>
<path d="M128.495 158.121H104.275V52.149H111.742C120.995 52.149 128.495 59.7315 128.495 69.086V158.121Z" fill="white"/>
<path d="M128.003 148.635L120.937 158.121L112.824 148.635L117.193 63.8099H120.717L128.003 148.635Z" fill="#1AAECB"/>
<path d="M125.135 44.6612H120.345C108.681 44.6612 99.2256 35.1021 99.2256 23.3097V22.2802C99.2256 14.0256 105.843 7.33508 114.009 7.33508H116.586C124.751 7.33508 131.369 14.0256 131.369 22.2802V38.3618C131.366 41.8414 128.577 44.6612 125.135 44.6612Z" fill="#FFD0C2"/>
<path d="M127.61 20.105C116.142 20.105 109.107 19.4695 111.664 36.2263C102.858 36.2263 95.7173 29.0073 95.7173 20.105C95.7173 11.2027 102.858 3.9837 111.664 3.9837C113.247 3.9837 124.443 3.9837 124.443 3.9837C131.031 5.96335 127.61 12.8005 127.61 20.105Z" fill="#DDE0E3"/>
<path d="M115.9 20.829C114.58 18.5897 115.308 15.6935 117.523 14.3585L127.676 8.24542C129.891 6.91038 132.756 7.64664 134.077 9.88596C135.397 12.1253 134.669 15.0214 132.454 16.3565L122.301 22.4695C120.086 23.8046 117.221 23.0683 115.9 20.829Z" fill="#DDE0E3"/>
<path d="M114.782 15.4155C113.126 13.4176 113.389 10.4389 115.368 8.76783L124.434 1.09976C126.41 -0.574386 129.356 -0.3086 131.009 1.69243C132.665 3.69041 132.403 6.66904 130.423 8.34013L121.358 16.0082C119.378 17.6793 116.435 17.4135 114.782 15.4155Z" fill="#DDE0E3"/>
<path d="M104.342 15.4155C102.686 13.4176 102.949 10.4389 104.928 8.76783L113.993 1.09976C115.97 -0.574386 118.916 -0.3086 120.569 1.69243C122.225 3.69041 121.962 6.66904 119.983 8.34013L110.917 16.0082C108.941 17.6793 105.995 17.4135 104.342 15.4155Z" fill="#DDE0E3"/>
<path d="M96.0286 36.1927C94.3726 34.1947 94.6355 31.2161 96.6149 29.545L105.68 21.8769C107.657 20.2028 110.603 20.4686 112.256 22.4696C113.912 24.4676 113.649 27.4462 111.67 29.1173L102.604 36.7854C100.628 38.4564 97.6846 38.1907 96.0286 36.1927Z" fill="#DDE0E3"/>
<path d="M97.763 44.4718C96.107 42.4738 96.3699 39.4951 98.3492 37.824L107.415 30.156C109.391 28.4818 112.337 28.7476 113.99 30.7486C115.646 32.7466 115.383 35.7253 113.404 37.3963L104.339 45.0644C102.362 46.7355 99.419 46.4697 97.763 44.4718Z" fill="#DDE0E3"/>
<path d="M119.07 59.5176L104.257 52.708V37.2802H119.07V59.5176Z" fill="#FFD0C2"/>
<path d="M133.303 35.5144H131.369V29.0562L134.237 33.8433C134.675 34.5765 134.152 35.5144 133.303 35.5144Z" fill="#FFD0C2"/>
<path d="M104.257 42.2018C95.2246 29.0561 95.7685 18.9043 95.7685 18.9043L105.55 14.5571C112.274 14.5571 117.617 16.4084 117.617 23.2058L115.686 23.4838C117.614 44.0929 104.257 42.2018 104.257 42.2018Z" fill="#DDE0E3"/>
<path d="M115.634 35.6763H112.017C110.02 35.6763 108.4 34.0389 108.4 32.0195V29.16C108.4 27.1407 110.02 25.5032 112.017 25.5032C114.015 25.5032 115.634 27.1407 115.634 29.16V35.6763Z" fill="#FFD0C2"/>
<path d="M118.804 21.4461H115.586V37.5552H118.804V21.4461Z" fill="#B0B4B9"/>
<path d="M131.366 24.1926H120.052C117.638 24.1926 115.683 22.216 115.683 19.775C115.683 17.3341 117.638 15.3575 120.052 15.3575H126.939C129.384 15.3575 131.366 17.3616 131.366 19.8331V24.1926Z" fill="#FFD0C2"/>
<path d="M119.481 24.7975H114.196V14.5601H124.443V19.7811C124.443 22.549 122.222 24.7975 119.481 24.7975Z" fill="#DDE0E3"/>
<path d="M131.68 35.5083V44.9758C131.68 46.5827 130.393 47.8872 128.801 47.8872H124.174C119.43 47.8872 115.583 43.9982 115.583 39.2018V35.5083H118.804V37.1702C118.804 38.0867 119.539 38.8321 120.448 38.8321H123.256C124.162 38.8321 124.899 38.0898 124.899 37.1702C124.899 36.2537 125.634 35.5083 126.543 35.5083H131.68Z" fill="#B0B4B9"/>
<path d="M119.07 73.3813L112.304 66.5411L119.07 59.701L124.38 66.5411L119.07 73.3813Z" fill="#1AAECB"/>
</g>
<g clip-path="url(#clip3)">
<path d="M38.7988 56.0538H78.5459V32.8632C78.5459 21.8909 69.6466 13 58.6724 13C47.6982 13 38.7988 21.8909 38.7988 32.8632V56.0538Z" fill="#20354D"/>
<path d="M43.8081 67.8038C43.8081 85.2064 46.6881 99.3126 61.541 99.3126C76.3939 99.3126 88.4365 85.2064 88.4365 67.8038C88.4365 50.4012 76.3939 36.295 61.541 36.295C46.6881 36.295 43.8081 50.4012 43.8081 67.8038Z" fill="#20354D"/>
<path d="M95.9808 152.584L86.8105 156.001L62.4775 90.739L79.7111 84.3165L95.9808 152.584Z" fill="#FFC3B0"/>
<path d="M41.3925 95.8537C56.2465 95.8537 68.288 86.564 68.288 75.1045C68.288 63.645 56.2465 54.3553 41.3925 54.3553C26.5386 54.3553 14.4971 63.645 14.4971 75.1045C14.4971 86.564 26.5386 95.8537 41.3925 95.8537Z" fill="#20354D"/>
<path d="M65.6211 51.4613C63.3681 51.4613 61.5449 53.2874 61.5449 55.5353V51.4613H66.7127H65.6211Z" fill="#A1887F"/>
<path d="M25.6919 82.1189V167H81.5538V82.1189C81.5538 72.8102 76.2506 64.7396 68.4932 60.77C66.3525 59.6635 64.03 58.882 61.5758 58.4757C60.2674 58.2513 58.928 58.1353 57.5538 58.1353H49.688C49.3319 58.1353 48.9642 58.143 48.6158 58.1585C35.8648 58.7233 25.6919 69.2314 25.6919 82.1189Z" fill="#FFC3B0"/>
<path d="M48.6152 58.4757V149.52H68.4926V60.77C66.352 59.6635 64.0294 58.882 61.5752 58.4757H48.6152Z" fill="white"/>
<path d="M48.6152 58.1585V85.5197H68.4926V60.77C66.352 59.6635 64.0294 58.8819 61.5752 58.4757C60.2668 58.2513 58.9275 58.1352 57.5533 58.1352H49.6875C49.3314 58.1314 48.9636 58.143 48.6152 58.1585Z" fill="#A1887F"/>
<path d="M66.8364 51.6006H62.6557C52.4751 51.6006 44.2222 43.352 44.2222 33.1766V32.2906C44.2222 25.1679 49.9977 19.3954 57.1241 19.3954H59.3731C66.4996 19.3954 72.2751 25.1679 72.2751 32.2906V46.1686C72.2751 49.167 69.8402 51.6006 66.8364 51.6006Z" fill="#A1887F"/>
<path d="M61.5443 64.4184L48.6152 58.1585V45.2284H61.5443V64.4184Z" fill="#A1887F"/>
<path d="M73.4522 43.704H72.2754V39.8196L74.0212 42.6981C74.2883 43.1391 73.9709 43.704 73.4522 43.704Z" fill="#A1887F"/>
<path d="M70.7885 25.2878H70.2156C64.7227 25.2878 60.2673 29.6559 60.2673 35.0492H46.4634V17.9213H70.9743L70.7885 25.2878Z" fill="#20354D"/>
<path d="M40.812 24.5101H60.4649V36.0938C60.4649 42.7136 55.0959 48.0798 48.4727 48.0798H40.812V24.5101Z" fill="#20354D"/>
<path d="M35.5279 63.0759C29.377 70.8874 23.3847 78.6717 17.4428 86.5953C14.4776 90.5571 11.5396 94.5422 8.65956 98.6084C7.21956 100.644 5.79117 102.694 4.39375 104.814L3.87117 105.619C3.69698 105.89 3.53827 106.137 3.2944 106.493L1.9744 108.54C1.15375 109.917 0.464721 111.283 0.0582692 112.749C-0.193344 114.68 0.437624 116.599 1.03375 118.39C1.18472 118.839 1.35504 119.284 1.52537 119.717C1.68795 120.143 1.87375 120.615 2.03246 120.959C2.34988 121.687 2.67891 122.395 3.01182 123.103C4.3473 125.923 5.76408 128.659 7.21182 131.371C10.115 136.787 13.146 142.123 16.2428 147.377L25.6454 143.519C23.4505 138.118 21.2712 132.501 19.3009 127.03C18.3176 124.291 17.377 121.555 16.5757 118.948L15.9525 116.812L16.1112 116.63C17.2492 115.311 18.5189 113.914 19.8234 112.525C22.4247 109.736 25.1692 106.927 27.9331 104.129C33.4763 98.5349 39.1667 92.9752 44.8879 87.4581C48.8557 83.6317 48.2015 76.4703 43.4092 71.3981L35.5279 63.0759Z" fill="#FFC3B0"/>
</g>
</g>
<defs>
<clipPath id="clip0">
<rect width="279" height="128" fill="white"/>
</clipPath>
<clipPath id="clip1">
<rect width="111" height="115" fill="white" transform="translate(168 13)"/>
</clipPath>
<clipPath id="clip2">
<rect width="64" height="166" fill="white" transform="translate(78)"/>
</clipPath>
<clipPath id="clip3">
<rect width="96" height="115" fill="white" transform="translate(0 13)"/>
</clipPath>
</defs>
</svg>
