<svg width="25" height="39" viewBox="0 0 25 39" fill="none" xmlns="http://www.w3.org/2000/svg">
<path d="M23.5077 6.70534C23.1976 6.39526 22.6937 6.39526 22.3836 6.70534L12.4999 16.6084L2.59682 6.70534C2.28675 6.39526 1.78287 6.39526 1.47279 6.70534C1.16272 7.01541 1.16272 7.51929 1.47279 7.82937L11.9185 18.2751C12.0736 18.4301 12.2674 18.5077 12.4805 18.5077C12.6743 18.5077 12.8875 18.4301 13.0426 18.2751L23.4883 7.82937C23.8178 7.51929 23.8178 7.01541 23.5077 6.70534Z" fill="#D1DBE3"/>
<g opacity="0.5">
<path d="M23.5077 20.7053C23.1976 20.3953 22.6937 20.3953 22.3836 20.7053L12.4999 30.6084L2.59682 20.7053C2.28675 20.3953 1.78287 20.3953 1.47279 20.7053C1.16272 21.0154 1.16272 21.5193 1.47279 21.8294L11.9185 32.2751C12.0736 32.4301 12.2674 32.5077 12.4805 32.5077C12.6743 32.5077 12.8875 32.4301 13.0426 32.2751L23.4883 21.8294C23.8178 21.5193 23.8178 21.0154 23.5077 20.7053Z" fill="#C2CDD7"/>
</g>
</svg>
