<svg width="212" height="33" viewBox="0 0 212 33" fill="none" xmlns="http://www.w3.org/2000/svg">
<rect x="130.493" y="5.7854" width="37.9265" height="21.8559" rx="2" fill="white"/>
<path fill-rule="evenodd" clip-rule="evenodd" d="M136.981 13.2434H135.711V17.6632H136.965C137.641 17.6632 138.119 17.5147 138.548 17.1519C139.043 16.7397 139.356 16.1129 139.356 15.4532C139.356 14.1505 138.383 13.2434 136.981 13.2434ZM137.987 16.5747C137.707 16.8057 137.361 16.9211 136.8 16.9211H136.569V14.002H136.8C137.361 14.002 137.69 14.1009 137.987 14.3482C138.284 14.612 138.466 15.0245 138.466 15.4532C138.466 15.882 138.284 16.3109 137.987 16.5747ZM139.752 17.6634H140.61V13.2434H139.752V17.6634ZM142.72 14.9421C142.193 14.7442 142.044 14.6288 142.044 14.3813C142.044 14.1011 142.325 13.9032 142.687 13.9032C142.951 13.9032 143.166 14.0021 143.38 14.2494L143.842 13.6724C143.463 13.3425 143.017 13.1776 142.539 13.1776C141.748 13.1776 141.154 13.7218 141.154 14.4475C141.154 15.0577 141.434 15.3546 142.242 15.6514C142.589 15.7668 142.754 15.8492 142.836 15.8987C143.017 16.0143 143.1 16.179 143.1 16.3605C143.1 16.7234 142.82 16.9872 142.424 16.9872C142.028 16.9872 141.682 16.7729 141.484 16.3935L140.939 16.9377C141.335 17.5148 141.813 17.7788 142.473 17.7788C143.364 17.7788 143.991 17.1851 143.991 16.3275C143.99 15.6182 143.694 15.3048 142.72 14.9421ZM144.254 15.4532C144.254 16.7561 145.277 17.7621 146.596 17.7621C146.959 17.7621 147.289 17.696 147.668 17.5147V16.4921C147.322 16.8383 147.025 16.9869 146.629 16.9869C145.772 16.9869 145.145 16.3437 145.145 15.453C145.145 14.612 145.788 13.9359 146.596 13.9359C147.008 13.9359 147.322 14.0842 147.668 14.4306V13.4246C147.305 13.2266 146.992 13.1443 146.613 13.1443C145.31 13.1444 144.254 14.1835 144.254 15.4532Z" fill="black"/>
<path fill-rule="evenodd" clip-rule="evenodd" d="M150.356 13.1445C149.053 13.1445 147.998 14.1671 147.998 15.4203C147.998 16.7728 149.004 17.7622 150.356 17.7622C151.675 17.7622 152.714 16.7561 152.714 15.4533C152.714 14.1671 151.692 13.1445 150.356 13.1445Z" fill="#ED6500"/>
<path fill-rule="evenodd" clip-rule="evenodd" d="M154.66 16.2113L153.49 13.2427H152.533L154.413 17.7779H154.875L156.788 13.2427H155.848L154.66 16.2113ZM157.184 17.6627H159.625V16.9204H158.041V15.733H159.559V14.9744H158.041V14.0013H159.625V13.2427H157.184V17.6627ZM163.038 14.5455C163.038 13.721 162.478 13.2427 161.472 13.2427H160.202V17.6625H161.059V15.8978H161.175L162.362 17.6625H163.418L162.032 15.7988C162.675 15.667 163.038 15.2217 163.038 14.5455ZM161.307 15.2878H161.059V13.9355H161.323C161.867 13.9355 162.148 14.1663 162.148 14.5952C162.148 15.0403 161.868 15.2878 161.307 15.2878ZM135.908 18.9604V19.3564H136.397V19.5167H135.908V20.2066H135.732V18.8H136.413V18.9604H135.908ZM137.216 18.8H137.391V20.2066H137.216V18.8ZM138.241 18.7325L139.296 19.8394V18.8H139.471V20.2645L138.415 19.1582V20.2066H138.241V18.7325ZM141.097 19.6939H140.596L140.847 19.1243L141.097 19.6939ZM141.17 19.8543L141.33 20.2066H141.519L140.847 18.7403L140.175 20.2066H140.364L140.524 19.8543H141.17ZM142.223 18.7325L143.279 19.8394V18.8H143.455V20.2645L142.397 19.1582V20.2066H142.223V18.7325ZM145.331 19.0689C145.231 18.979 145.092 18.9308 144.959 18.9308C144.645 18.9308 144.404 19.1938 144.404 19.5055C144.404 19.8133 144.642 20.0761 144.956 20.0761C145.094 20.0761 145.226 20.0243 145.331 19.9306V20.1381C145.218 20.2019 145.091 20.2358 144.961 20.2365C144.559 20.2365 144.228 19.9176 144.228 19.5107C144.228 19.0945 144.562 18.7696 144.977 18.7696C145.1 18.7696 145.225 18.8 145.33 18.8652V19.0689H145.331ZM146.138 18.8H146.313V20.2066H146.138V18.8ZM147.951 19.6939H147.451L147.702 19.1243L147.951 19.6939ZM148.024 19.8543L148.184 20.2066H148.373L147.702 18.7403L147.03 20.2066H147.218L147.378 19.8543H148.024ZM149.269 20.047H149.696V20.2066H149.094V18.8H149.269V20.047ZM152.182 19.067C152.131 18.9788 152.063 18.9341 151.956 18.9341C151.844 18.9341 151.72 19.0105 151.72 19.1341C151.72 19.2437 151.83 19.302 151.917 19.3355L152.017 19.375C152.217 19.4529 152.367 19.5634 152.367 19.7982C152.367 20.0542 152.168 20.2365 151.917 20.2365C151.689 20.2365 151.512 20.0689 151.483 19.8431L151.66 19.8061C151.657 19.9605 151.781 20.0726 151.931 20.0726C152.082 20.0726 152.19 19.9461 152.19 19.7982C152.19 19.6474 152.069 19.5818 151.948 19.5311L151.852 19.4906C151.691 19.4214 151.545 19.3302 151.545 19.1341C151.545 18.9061 151.747 18.7696 151.96 18.7696C152.116 18.7696 152.245 18.8466 152.321 18.9825L152.182 19.067ZM153.161 18.8H153.917V18.9604H153.337V19.3547H153.901V19.5149H153.337V20.047H153.917V20.2066H153.161V18.8ZM154.913 18.9567H154.958C155.133 18.9567 155.341 18.9884 155.341 19.209C155.341 19.4326 155.146 19.4659 154.967 19.4659H154.913V18.9567H154.913ZM155.168 19.5951C155.371 19.5704 155.506 19.403 155.506 19.2011C155.506 19.067 155.438 18.9341 155.32 18.865C155.209 18.8018 155.074 18.8 154.95 18.8H154.737V20.2066H154.913V19.6122H154.985L155.399 20.2066H155.612L155.168 19.5951ZM156.817 19.8411L157.235 18.8H157.427L156.817 20.282L156.205 18.8H156.397L156.817 19.8411ZM158.144 18.8H158.319V20.2066H158.144V18.8ZM160.211 19.0689C160.11 18.979 159.971 18.9308 159.838 18.9308C159.523 18.9308 159.283 19.1938 159.283 19.5055C159.283 19.8133 159.521 20.0761 159.834 20.0761C159.973 20.0761 160.106 20.0243 160.211 19.9306V20.1381C160.098 20.2018 159.971 20.2356 159.841 20.2365C159.44 20.2365 159.107 19.9176 159.107 19.5107C159.107 19.0945 159.442 18.7696 159.856 18.7696C159.979 18.7696 160.104 18.8 160.211 18.8652V19.0689H160.211ZM161.021 18.8H161.777V18.9604H161.197V19.3547H161.761V19.5149H161.197V20.047H161.777V20.2066H161.021V18.8ZM163.221 19.067C163.17 18.9788 163.103 18.9341 162.996 18.9341C162.885 18.9341 162.761 19.0105 162.761 19.1341C162.761 19.2437 162.87 19.302 162.957 19.3355L163.058 19.375C163.257 19.4529 163.406 19.5634 163.406 19.7982C163.406 20.0542 163.209 20.2365 162.957 20.2365C162.73 20.2365 162.551 20.0689 162.523 19.8431L162.699 19.8061C162.697 19.9605 162.821 20.0726 162.972 20.0726C163.123 20.0726 163.232 19.9461 163.232 19.7982C163.232 19.6474 163.109 19.5818 162.989 19.5311L162.892 19.4906C162.731 19.4214 162.585 19.3302 162.585 19.1341C162.585 18.9061 162.787 18.7696 163 18.7696C163.156 18.7696 163.285 18.8466 163.362 18.9825L163.221 19.067ZM163.542 13.6347C163.542 13.6686 163.519 13.6866 163.472 13.6866H163.456V13.5852H163.473C163.52 13.5854 163.542 13.6014 163.542 13.6347ZM163.68 13.9025L163.552 13.7415C163.607 13.7274 163.638 13.6874 163.638 13.6323C163.638 13.5561 163.585 13.513 163.49 13.513H163.366V13.9025H163.458V13.7517L163.567 13.9025H163.68ZM163.844 13.7071C163.844 13.521 163.693 13.3677 163.509 13.3677C163.465 13.3674 163.42 13.376 163.379 13.3929C163.338 13.4098 163.3 13.4348 163.268 13.4664C163.237 13.4979 163.212 13.5355 163.195 13.5768C163.178 13.6181 163.169 13.6624 163.169 13.7071C163.169 13.8961 163.321 14.0469 163.509 14.0469C163.693 14.0467 163.844 13.8935 163.844 13.7071ZM163.776 13.708C163.776 13.8607 163.656 13.9859 163.508 13.9859C163.359 13.9859 163.236 13.8614 163.236 13.708C163.236 13.5529 163.358 13.4296 163.508 13.4296C163.656 13.4296 163.776 13.5548 163.776 13.708Z" fill="black"/>
<rect x="86.7817" y="5.7854" width="37.9265" height="21.8559" rx="2" fill="white"/>
<g clip-path="url(#clip0)">
<path fill-rule="evenodd" clip-rule="evenodd" d="M95.7803 6.42847H116.351V26.9987H95.7803V6.42847Z" fill="white"/>
<path fill-rule="evenodd" clip-rule="evenodd" d="M106.065 21.1737C106.685 20.6082 107.18 19.9192 107.518 19.1512C107.856 18.3831 108.03 17.5529 108.029 16.7137C108.03 15.8745 107.856 15.0443 107.518 14.2762C107.18 13.5082 106.685 12.8193 106.065 12.2537C105.005 11.286 103.599 10.6963 102.056 10.6963C98.7568 10.6963 96.0825 13.3904 96.0825 16.7137C96.0825 20.037 98.7568 22.7312 102.056 22.7312C103.599 22.7312 105.005 22.1414 106.065 21.1737Z" fill="#3A9BD9"/>
<path fill-rule="evenodd" clip-rule="evenodd" d="M110.075 10.6963C108.532 10.6963 107.125 11.286 106.065 12.2537C105.849 12.4512 105.648 12.6641 105.462 12.8908H106.668C106.834 13.0931 106.986 13.306 107.124 13.528H105.007C104.88 13.7333 104.765 13.9461 104.663 14.1652H107.468C107.564 14.3726 107.649 14.5853 107.721 14.8023H104.41C104.34 15.0113 104.282 15.224 104.236 15.4394H107.895C107.984 15.8583 108.029 16.2854 108.029 16.7137C108.029 17.3818 107.921 18.0245 107.721 18.625H104.41C104.482 18.8421 104.566 19.0548 104.663 19.2622H107.468C107.366 19.4813 107.251 19.6941 107.124 19.8994H105.007C105.145 20.1215 105.297 20.3343 105.462 20.5366H106.668C106.483 20.7634 106.282 20.9764 106.065 21.1738C107.125 22.1415 108.532 22.7313 110.075 22.7313C113.374 22.7313 116.048 20.0371 116.048 16.7138C116.048 13.3904 113.374 10.6963 110.075 10.6963Z" fill="#CC2131"/>
<path fill-rule="evenodd" clip-rule="evenodd" d="M115.253 20.068C115.253 19.9606 115.339 19.8735 115.446 19.8735C115.552 19.8735 115.639 19.9606 115.639 20.068C115.639 20.1751 115.552 20.2622 115.446 20.2622C115.395 20.262 115.345 20.2415 115.309 20.2051C115.273 20.1686 115.253 20.1193 115.253 20.068ZM115.446 20.2155C115.527 20.2155 115.592 20.1496 115.592 20.0679C115.592 19.9861 115.527 19.9201 115.446 19.9201C115.365 19.9201 115.299 19.9861 115.299 20.0679C115.299 20.1496 115.365 20.2155 115.446 20.2155ZM115.42 20.1531H115.38V19.9822H115.452C115.467 19.9822 115.482 19.9826 115.495 19.9909C115.502 19.9957 115.507 20.0021 115.511 20.0096C115.515 20.017 115.517 20.0253 115.517 20.0336C115.517 20.0528 115.506 20.071 115.487 20.0778L115.519 20.153H115.475L115.449 20.0855H115.42V20.1531V20.0564H115.442C115.45 20.0564 115.459 20.0569 115.466 20.0529C115.469 20.0507 115.472 20.0478 115.473 20.0444C115.475 20.041 115.476 20.0371 115.476 20.0333C115.476 20.0299 115.475 20.0265 115.473 20.0235C115.471 20.0205 115.469 20.0179 115.466 20.016C115.459 20.0118 115.448 20.0129 115.441 20.0129H115.42V20.1531H115.42Z" fill="#CC2131"/>
<path fill-rule="evenodd" clip-rule="evenodd" d="M113.989 18.0177C113.989 17.9104 114.076 17.8233 114.182 17.8233C114.289 17.8233 114.375 17.9104 114.375 18.0177C114.375 18.1251 114.289 18.212 114.182 18.212C114.076 18.212 113.989 18.125 113.989 18.0177ZM114.182 18.1652C114.263 18.1652 114.329 18.0992 114.329 18.0176C114.329 17.9359 114.263 17.8698 114.182 17.8698C114.101 17.8698 114.036 17.9359 114.036 18.0176C114.036 18.0992 114.101 18.1652 114.182 18.1652ZM114.156 18.1029H114.117V17.9321H114.188C114.203 17.9321 114.218 17.9324 114.231 17.9409C114.238 17.9457 114.244 17.952 114.247 17.9594C114.251 17.9668 114.253 17.9751 114.253 17.9834C114.253 18.0028 114.242 18.0207 114.224 18.0275L114.255 18.1028H114.211L114.185 18.0352H114.156V18.1029V18.0062H114.178C114.186 18.0062 114.195 18.0068 114.202 18.0029C114.205 18.0007 114.208 17.9977 114.21 17.9943C114.211 17.9909 114.212 17.9871 114.212 17.9833C114.212 17.9798 114.211 17.9764 114.209 17.9733C114.208 17.9703 114.205 17.9677 114.203 17.9658C114.196 17.9618 114.185 17.9627 114.177 17.9627H114.156V18.1029H114.156ZM101.309 18.212H100.566L101.008 15.8667L99.9905 18.212H99.3127L99.1888 15.8802L98.7456 18.212H98.0708L98.6474 15.1612H99.8074L99.8688 17.0499L100.687 15.1612H101.895L101.309 18.212ZM109.617 18.1815C109.414 18.2378 109.255 18.262 109.083 18.262C108.703 18.262 108.495 18.0698 108.495 17.7172C108.495 17.6474 108.503 17.5731 108.517 17.4946L108.562 17.252L108.597 17.0557L108.942 15.1611H109.681L109.574 15.7309H109.953L109.851 16.3341H109.47L109.274 17.3692C109.267 17.403 109.263 17.4374 109.262 17.472C109.262 17.6001 109.339 17.6559 109.515 17.6559C109.6 17.6559 109.666 17.6482 109.716 17.6327L109.617 18.1815ZM111.789 15.7513C111.726 15.7265 111.712 15.7265 111.704 15.7245C111.665 15.7157 111.644 15.7106 111.64 15.71C111.616 15.7057 111.591 15.7036 111.566 15.7038C111.321 15.7038 111.146 15.8133 110.918 16.1066L110.984 15.7307H110.31L109.857 18.2118H110.601C110.867 16.6944 110.981 16.4287 111.338 16.4287C111.365 16.4287 111.396 16.4308 111.432 16.435L111.519 16.4528L111.789 15.7513ZM106.67 16.5147C106.67 16.8282 106.846 17.044 107.243 17.2063C107.548 17.3309 107.595 17.3674 107.595 17.4801C107.595 17.6345 107.46 17.7042 107.163 17.7042C106.939 17.7042 106.73 17.6738 106.489 17.606L106.386 18.1783L106.419 18.184L106.557 18.2094C106.601 18.2171 106.667 18.2244 106.753 18.2311C106.932 18.245 107.071 18.2516 107.168 18.2516C107.962 18.2516 108.328 17.9897 108.328 17.4237C108.328 17.0832 108.175 16.8835 107.798 16.7332C107.483 16.6076 107.447 16.5797 107.447 16.4639C107.447 16.3302 107.572 16.2615 107.815 16.2615C107.962 16.2615 108.164 16.2755 108.355 16.2987L108.462 15.7244C108.267 15.6977 107.972 15.6758 107.8 15.6758C106.959 15.6759 106.668 16.0571 106.67 16.5147ZM103.726 18.212H103.108L103.123 17.9548C102.935 18.1584 102.684 18.2549 102.343 18.2549C101.94 18.2549 101.664 17.9785 101.664 17.5772C101.664 16.9728 102.144 16.6205 102.969 16.6205C103.054 16.6205 103.162 16.6272 103.272 16.6396C103.295 16.5581 103.302 16.5228 103.302 16.4784C103.302 16.3142 103.172 16.2527 102.825 16.2527C102.613 16.2527 102.373 16.2796 102.207 16.3219L102.104 16.3483L102.037 16.3643L102.14 15.8064C102.511 15.7108 102.756 15.6747 103.03 15.6747C103.669 15.6747 104.007 15.9267 104.007 16.4025C104.007 16.5249 103.996 16.6178 103.947 16.894L103.791 17.7742L103.765 17.9321L103.746 18.0583L103.733 18.1446L103.726 18.212ZM103.184 17.1066C103.129 17.0997 103.073 17.0963 103.018 17.0963C102.596 17.0963 102.383 17.2232 102.383 17.4738C102.383 17.6282 102.487 17.7268 102.649 17.7268C102.953 17.7269 103.171 17.4735 103.184 17.1066ZM106.165 18.1584C105.917 18.2258 105.66 18.2596 105.403 18.259C104.572 18.2584 104.139 17.8772 104.139 17.1475C104.139 16.2957 104.69 15.6687 105.438 15.6687C106.05 15.6687 106.441 16.0199 106.441 16.5705C106.441 16.7533 106.414 16.9316 106.35 17.1831H104.871C104.867 17.2088 104.865 17.2349 104.864 17.261C104.864 17.5486 105.085 17.6953 105.516 17.6953C105.782 17.6953 106.022 17.6468 106.288 17.5384L106.165 18.1584ZM105.769 16.6821C105.773 16.6304 105.775 16.5881 105.775 16.5555C105.775 16.354 105.645 16.2358 105.423 16.2358C105.187 16.2358 105.018 16.3944 104.949 16.6806L105.769 16.6821ZM114.099 17.087C113.988 17.9124 113.416 18.2784 112.655 18.2784C111.814 18.2784 111.475 17.7645 111.475 17.1348C111.475 16.2554 112.05 15.6596 112.939 15.6596C113.71 15.6596 114.119 16.1495 114.119 16.7794C114.119 16.9326 114.119 16.9428 114.099 17.087ZM113.334 16.7696C113.334 16.51 113.229 16.265 112.924 16.265C112.545 16.265 112.31 16.7167 112.31 17.1155C112.31 17.4519 112.471 17.6779 112.737 17.6731C112.898 17.6731 113.242 17.452 113.31 17.0658C113.326 16.9757 113.334 16.8769 113.334 16.7696Z" fill="white"/>
</g>
<rect x="43.7124" y="5.7854" width="37.9265" height="21.8559" rx="2" fill="white"/>
<g clip-path="url(#clip1)">
<path d="M71.6155 23.5839V23.6219H71.6515C71.6583 23.622 71.6649 23.6203 71.6708 23.6171C71.6731 23.6154 71.675 23.6132 71.6763 23.6107C71.6776 23.6082 71.6782 23.6054 71.678 23.6025C71.6782 23.5998 71.6775 23.597 71.6763 23.5945C71.675 23.592 71.6731 23.5899 71.6708 23.5884C71.665 23.5849 71.6583 23.5832 71.6515 23.5835H71.6155V23.5839ZM71.6519 23.557C71.6673 23.5561 71.6826 23.5604 71.6951 23.5694C71.7001 23.5734 71.7041 23.5786 71.7067 23.5844C71.7094 23.5903 71.7106 23.5966 71.7102 23.603C71.7105 23.6085 71.7095 23.614 71.7074 23.6191C71.7053 23.6242 71.7021 23.6288 71.6981 23.6326C71.6884 23.6408 71.6763 23.6458 71.6636 23.6467L71.7118 23.7009H71.6747L71.6303 23.6471H71.6159V23.7009H71.5849V23.5571H71.6524L71.6519 23.557ZM71.6423 23.7505C71.6585 23.7506 71.6747 23.7474 71.6896 23.741C71.704 23.7349 71.7171 23.7261 71.7282 23.7152C71.7393 23.7043 71.7482 23.6914 71.7543 23.6772C71.767 23.6471 71.767 23.6133 71.7543 23.5831C71.7481 23.569 71.7392 23.5561 71.7282 23.5451C71.7171 23.5342 71.704 23.5255 71.6896 23.5194C71.6746 23.5133 71.6585 23.5103 71.6423 23.5105C71.6257 23.5103 71.6094 23.5133 71.594 23.5194C71.5793 23.5254 71.5659 23.5341 71.5546 23.5451C71.5375 23.5624 71.526 23.5842 71.5214 23.6078C71.5169 23.6315 71.5194 23.6559 71.5289 23.6782C71.5347 23.6924 71.5435 23.7054 71.5546 23.7162C71.5659 23.7272 71.5793 23.7359 71.594 23.7419C71.6093 23.7483 71.6257 23.7516 71.6423 23.7514V23.7505ZM71.6423 23.4759C71.6846 23.4758 71.7253 23.4922 71.7556 23.5215C71.7701 23.5355 71.7817 23.5523 71.7897 23.5708C71.7979 23.5898 71.8022 23.6102 71.8022 23.6309C71.8022 23.6516 71.7979 23.672 71.7897 23.691C71.7815 23.7094 71.77 23.7261 71.7556 23.7403C71.7408 23.7543 71.7236 23.7655 71.7047 23.7736C71.685 23.7818 71.6637 23.786 71.6423 23.7859C71.6205 23.7861 71.599 23.7819 71.579 23.7736C71.56 23.7657 71.5426 23.7545 71.5278 23.7403C71.5134 23.7256 71.502 23.7083 71.4941 23.6894C71.4859 23.6704 71.4817 23.6499 71.4817 23.6293C71.4817 23.6086 71.4859 23.5882 71.4941 23.5692C71.5021 23.5507 71.5137 23.5339 71.5283 23.5199C71.5429 23.5055 71.5603 23.4942 71.5795 23.4866C71.5995 23.4783 71.621 23.4741 71.6427 23.4743L71.6423 23.4759ZM56.8779 22.9207C56.8779 22.6465 57.0602 22.4214 57.358 22.4214C57.6427 22.4214 57.8347 22.6369 57.8347 22.9207C57.8347 23.2045 57.6427 23.42 57.358 23.42C57.0602 23.42 56.8779 23.1948 56.8779 22.9207ZM58.1592 22.9207V22.1406H57.8151V22.3306C57.7059 22.1902 57.5404 22.1021 57.3152 22.1021C56.8717 22.1021 56.5236 22.4449 56.5236 22.9211C56.5236 23.3972 56.8715 23.74 57.3152 23.74C57.5403 23.74 57.7059 23.6518 57.8151 23.5115V23.7009H58.1588V22.9207H58.1592ZM69.7871 22.9207C69.7871 22.6465 69.9693 22.4214 70.2673 22.4214C70.5522 22.4214 70.744 22.6369 70.744 22.9207C70.744 23.2045 70.5522 23.42 70.2673 23.42C69.9694 23.42 69.7871 23.1948 69.7871 22.9207ZM71.0687 22.9207V21.5144H70.7243V22.3306C70.6152 22.1902 70.4496 22.1021 70.2244 22.1021C69.7809 22.1021 69.4328 22.4449 69.4328 22.9211C69.4328 23.3972 69.7807 23.74 70.2244 23.74C70.4496 23.74 70.6152 23.6518 70.7243 23.5115V23.7009H71.0687V22.9207ZM62.4304 22.4053C62.6521 22.4053 62.7946 22.5423 62.8309 22.7836H62.0098C62.0465 22.5584 62.1853 22.4053 62.4305 22.4053H62.4304ZM62.4373 22.1012C61.9735 22.1012 61.6491 22.4338 61.6491 22.9202C61.6491 23.4161 61.9865 23.7392 62.4604 23.7392C62.6987 23.7392 62.917 23.6805 63.1091 23.5206L62.9404 23.2693C62.8078 23.3738 62.6388 23.4324 62.48 23.4324C62.2583 23.4324 62.0563 23.3313 62.0067 23.0505H63.1818C63.1852 23.0083 63.1886 22.9657 63.1886 22.9201C63.1852 22.4339 62.8801 22.1011 62.4371 22.1011L62.4373 22.1012ZM66.592 22.9201C66.592 22.646 66.7742 22.4208 67.0721 22.4208C67.3567 22.4208 67.5488 22.6363 67.5488 22.9201C67.5488 23.2039 67.3567 23.4194 67.0721 23.4194C66.7742 23.4194 66.5919 23.1942 66.5919 22.9201H66.592ZM67.8732 22.9201V22.1406H67.5292V22.3306C67.4197 22.1902 67.2545 22.1021 67.0294 22.1021C66.5858 22.1021 66.2377 22.4449 66.2377 22.9211C66.2377 23.3972 66.5856 23.74 67.0294 23.74C67.2545 23.74 67.4197 23.6518 67.5292 23.5115V23.7009H67.8733V22.9207L67.8732 22.9201ZM64.6486 22.9201C64.6486 23.3932 64.9828 23.7391 65.4929 23.7391C65.7312 23.7391 65.89 23.6868 66.0618 23.5531L65.8965 23.279C65.7673 23.3705 65.6316 23.4194 65.4819 23.4194C65.2072 23.4161 65.0052 23.2204 65.0052 22.9201C65.0052 22.6198 65.2072 22.4242 65.4819 22.4208C65.6312 22.4208 65.7669 22.4697 65.8965 22.5612L66.0618 22.2871C65.8897 22.1534 65.7309 22.1011 65.4929 22.1011C64.9828 22.1011 64.6486 22.4469 64.6486 22.9201ZM69.085 22.1011C68.8865 22.1011 68.7572 22.1926 68.6678 22.3297V22.1406H68.3267V23.7H68.6713V22.8258C68.6713 22.5678 68.7838 22.4244 69.0087 22.4244C69.0824 22.4233 69.1556 22.4367 69.224 22.4636L69.33 22.144C69.2539 22.1144 69.1545 22.1014 69.0848 22.1014L69.085 22.1011ZM59.8606 22.2646C59.695 22.157 59.4669 22.1014 59.2152 22.1014C58.8143 22.1014 58.5562 22.2908 58.5562 22.6007C58.5562 22.8549 58.7484 23.0118 59.1022 23.0607L59.2648 23.0835C59.4535 23.1097 59.5426 23.1586 59.5426 23.2467C59.5426 23.3673 59.4172 23.4361 59.1819 23.4361C58.9435 23.4361 58.7715 23.361 58.6555 23.2729L58.4938 23.5373C58.6825 23.6744 58.9209 23.7397 59.179 23.7397C59.636 23.7397 59.9009 23.5277 59.9009 23.2307C59.9009 22.9566 59.6924 22.8132 59.348 22.7643L59.1858 22.7411C59.0369 22.7221 58.9175 22.6925 58.9175 22.588C58.9175 22.474 59.03 22.4054 59.2188 22.4054C59.4208 22.4054 59.6164 22.4805 59.7122 22.5391L59.8612 22.265L59.8606 22.2646ZM64.301 22.1017C64.1024 22.1017 63.9731 22.1932 63.8841 22.3302V22.1406H63.5431V23.7H63.8872V22.8258C63.8872 22.5678 63.9998 22.4244 64.2247 22.4244C64.2984 22.4233 64.3715 22.4367 64.4399 22.4636L64.546 22.144C64.4698 22.1144 64.3705 22.1014 64.3008 22.1014L64.301 22.1017ZM61.3643 22.1406H60.8016V21.6675H60.4537V22.1406H60.1327V22.4505H60.4537V23.1619C60.4537 23.5238 60.5962 23.7393 61.0033 23.7393C61.1527 23.7393 61.3247 23.6937 61.4338 23.6187L61.3344 23.3283C61.2317 23.3869 61.1192 23.4165 61.0297 23.4165C60.8577 23.4165 60.8016 23.312 60.8016 23.1555V22.4508H61.3643V22.1406ZM56.2193 23.7004V22.7217C56.2193 22.3531 55.9809 22.1051 55.5967 22.1018C55.3947 22.0985 55.1863 22.1604 55.0404 22.3793C54.9313 22.2063 54.7592 22.1018 54.5174 22.1018C54.3484 22.1018 54.1832 22.1507 54.0539 22.3334V22.1406H53.7095V23.7H54.0566V22.8354C54.0566 22.5646 54.2089 22.4208 54.4442 22.4208C54.6727 22.4208 54.7884 22.5676 54.7884 22.8319V23.6998H55.1362V22.8352C55.1362 22.5645 55.2951 22.4206 55.5235 22.4206C55.7585 22.4206 55.8706 22.5674 55.8706 22.8317V23.6996L56.2193 23.7004Z" fill="#231F20"/>
<path d="M71.8118 18.513V18.2849H71.7516L71.6819 18.4414L71.6125 18.2849H71.5521V18.513H71.5949V18.3412L71.6601 18.4894H71.7044L71.7696 18.3408V18.513H71.812H71.8118ZM71.4295 18.513V18.324H71.5067V18.2855H71.3096V18.324H71.3867V18.513H71.4291H71.4295Z" fill="#F79410"/>
<path d="M64.9622 19.4909H59.7471V10.2551H64.9623L64.9622 19.4909Z" fill="#FF5F00"/>
<path d="M60.0777 14.873C60.0777 12.9996 60.9678 11.3307 62.354 10.2551C61.3048 9.43982 60.007 8.99733 58.6708 8.99927C55.3792 8.99927 52.7109 11.629 52.7109 14.873C52.7109 18.1171 55.3792 20.7468 58.6708 20.7468C60.007 20.7488 61.3048 20.3063 62.3541 19.4909C60.968 18.4156 60.0777 16.7466 60.0777 14.873Z" fill="#EB001B"/>
<path d="M71.9977 14.8733C71.9977 18.1173 69.3294 20.747 66.0379 20.747C64.7015 20.749 63.4035 20.3065 62.354 19.4912C63.7406 18.4157 64.6307 16.7469 64.6307 14.8733C64.6307 12.9997 63.7406 11.3309 62.354 10.2554C63.4035 9.44009 64.7014 8.99761 66.0378 8.99952C69.3294 8.99952 71.9976 11.6293 71.9976 14.8733" fill="#F79E1B"/>
</g>
<rect y="5.7854" width="37.9265" height="21.8559" rx="2" fill="white"/>
<path d="M16.3028 20.8554H14.0366L15.4529 12.1511H17.7193L16.3028 20.8554ZM12.1302 12.1511L9.96971 18.138L9.71406 16.8488L9.71429 16.8493L8.95176 12.9349C8.95176 12.9349 8.85956 12.1511 7.87676 12.1511H4.30509L4.26318 12.2985C4.26318 12.2985 5.35541 12.5258 6.63366 13.2934L8.60251 20.8556H10.9637L14.5691 12.1511H12.1302ZM29.9548 20.8554H32.0356L30.2214 12.1509H28.3997C27.5584 12.1509 27.3535 12.7996 27.3535 12.7996L23.9737 20.8554H26.3361L26.8085 19.5625H29.6893L29.9548 20.8554ZM27.4611 17.7764L28.6518 14.5191L29.3217 17.7764H27.4611ZM24.1509 14.2443L24.4743 12.3751C24.4743 12.3751 23.4764 11.9956 22.4361 11.9956C21.3115 11.9956 18.6409 12.4871 18.6409 14.8772C18.6409 17.1259 21.7753 17.1538 21.7753 18.335C21.7753 19.5161 18.9638 19.3045 18.036 18.5597L17.6991 20.5141C17.6991 20.5141 18.711 21.0056 20.257 21.0056C21.8035 21.0056 24.1365 20.2049 24.1365 18.0255C24.1365 15.7624 20.9739 15.5517 20.9739 14.5677C20.9741 13.5835 23.1812 13.71 24.1509 14.2443Z" fill="#2566AF"/>
<path d="M9.71429 16.8488L8.95176 12.9344C8.95176 12.9344 8.85955 12.1506 7.87676 12.1506H4.30509L4.26318 12.298C4.26318 12.298 5.97987 12.6538 7.62647 13.9868C9.20089 15.2608 9.71429 16.8488 9.71429 16.8488Z" fill="#E6A540"/>
<rect x="173.562" y="5.7854" width="37.9265" height="21.8559" rx="2" fill="white"/>
<path d="M181.399 12.8562L178.062 19.9182H182.057L182.552 18.7922H183.684L184.179 19.9182H188.577V19.0588L188.969 19.9182H191.243L191.635 19.0406V19.9182H200.781L201.893 18.8214L202.934 19.9182L207.631 19.9272L204.284 16.4069L207.631 12.8562H203.007L201.924 13.9327L200.916 12.8562H190.967L190.112 14.679L189.238 12.8562H185.251V13.6863L184.808 12.8562C184.808 12.8562 181.399 12.8562 181.399 12.8562ZM182.172 13.859H184.119L186.333 18.6478V13.859H188.466L190.176 17.2925L191.751 13.859H193.874V18.9264H192.582L192.572 14.9556L190.689 18.9264H189.534L187.64 14.9556V18.9264H184.983L184.479 17.7904H181.758L181.255 18.9254H179.831L182.172 13.859ZM195.056 13.859H200.307L201.914 15.5182L203.572 13.859H205.178L202.738 16.4059L205.178 18.9234H203.499L201.893 17.245L200.226 18.9234H195.056V13.859ZM183.119 14.7164L182.222 16.7402H184.015L183.119 14.7164ZM196.353 14.9082V15.8333H199.218V16.8643H196.353V17.8742H199.566L201.059 16.3867L199.63 14.9073H196.353V14.9082Z" fill="#3A9BD9"/>
<defs>
<clipPath id="clip0">
<rect x="95.7803" y="6.42847" width="20.5703" height="20.5703" fill="white"/>
</clipPath>
<clipPath id="clip1">
<rect x="52.7109" y="8.99951" width="19.2846" height="14.7849" fill="white"/>
</clipPath>
</defs>
</svg>
