<svg width="15" height="15" viewBox="0 0 15 15" fill="none" xmlns="http://www.w3.org/2000/svg">
<g clip-path="url(#clip0)">
<path d="M7.50098 0C3.36531 0 0.000976562 3.36433 0.000976562 7.5C0.000976562 11.6357 3.36531 15 7.50098 15C11.6366 15 15.001 11.6357 15.001 7.5C15.001 3.36433 11.6366 0 7.50098 0ZM11.3022 5.91064L7.23971 9.97307C7.11783 10.0949 6.95784 10.1563 6.79785 10.1563C6.63786 10.1563 6.47787 10.0949 6.356 9.97307L4.32478 7.94186C4.08034 7.69753 4.08034 7.30247 4.32478 7.05814C4.56911 6.8137 4.96405 6.8137 5.2085 7.05814L6.79785 8.6475L10.4185 5.02693C10.6629 4.78249 11.0578 4.78249 11.3022 5.02693C11.5466 5.27126 11.5466 5.6662 11.3022 5.91064Z" fill="#549019"/>
</g>
<defs>
<clipPath id="clip0">
<rect x="0.000976562" width="15" height="15" fill="white"/>
</clipPath>
</defs>
</svg>
