<svg width="63" height="63" viewBox="0 0 63 63" fill="none" xmlns="http://www.w3.org/2000/svg">
<g clip-path="url(#clip0)">
<path d="M23.8292 28.2147L19.8652 29.8308L24.7185 41.7348L28.6825 40.1187L23.8292 28.2147Z" fill="white" fill-opacity="0.25"/>
<path d="M37.2815 23.9981C36.0782 23.4286 34.7916 23.4231 33.4223 23.9813C32.9178 24.187 32.4845 24.4361 32.1226 24.7284C31.7609 25.0207 31.4836 25.3368 31.2906 25.677C31.0979 26.0171 30.9564 26.3176 30.8667 26.5782C30.7813 26.8258 30.7117 27.1021 30.6572 27.4047L29.9671 25.712L26.0149 27.3233L26.2621 27.8951C26.427 28.2763 26.9142 29.4598 27.7239 31.4457C28.5336 33.4318 29.5818 36.0256 30.8684 39.2274L34.8204 37.6162L32.1121 30.9733C31.9456 30.565 31.8572 30.2228 31.8475 29.9464C31.8492 29.4692 31.9637 29.0235 32.1916 28.6085C32.4194 28.1932 32.7854 27.8829 33.2901 27.6771C33.9786 27.3964 34.5824 27.4281 35.101 27.7723C35.6195 28.1165 36.0502 28.7091 36.3931 29.55L38.9886 35.9164L42.9407 34.3051L40.1591 27.4826C39.4437 25.7288 38.4849 24.5672 37.2815 23.9981Z" fill="white" fill-opacity="0.25"/>
<path d="M19.535 23.2831C18.8704 23.554 18.4112 23.9679 18.1569 24.5244C17.9028 25.081 17.8966 25.6553 18.1382 26.2481C18.3765 26.8325 18.7759 27.2395 19.3363 27.4686C19.8965 27.6977 20.5052 27.6785 21.1618 27.4108L21.1858 27.401C21.8586 27.1267 22.3212 26.7093 22.5736 26.1487C22.826 25.5883 22.829 25.0174 22.5827 24.436C22.3331 23.8466 21.9288 23.4395 21.3702 23.2144C20.8116 22.9891 20.1997 23.0121 19.535 23.2831Z" fill="white" fill-opacity="0.25"/>
</g>
<rect x="1.95529" y="18.9803" width="45.0956" height="44.4085" rx="4.5" transform="rotate(-22.1808 1.95529 18.9803)" stroke="white" stroke-opacity="0.25" stroke-width="3"/>
<defs>
<clipPath id="clip0">
<rect x="17.1343" y="23.7855" width="19.9253" height="19.9253" transform="rotate(-22.1808 17.1343 23.7855)" fill="white"/>
</clipPath>
</defs>
</svg>
