<svg width="16" height="15" viewBox="0 0 16 15" fill="none" xmlns="http://www.w3.org/2000/svg">
<path d="M7.57034 7.19736C6.21602 7.19736 4.92535 5.86911 4.92535 3.97366C4.92535 2.56734 5.27606 1.79896 5.69946 1.37651C6.12308 0.953844 6.74715 0.75 7.57034 0.75C8.39357 0.75 9.01764 0.953847 9.44124 1.37651C9.86463 1.79895 10.2153 2.56733 10.2153 3.97365L7.57034 7.19736ZM7.57034 7.19736C8.92474 7.19736 10.2153 5.86914 10.2153 3.97366L7.57034 7.19736Z" stroke="#36A2B7" stroke-width="1.5"/>
<path d="M0.759335 14.1004L0.759281 14.1006C0.744316 14.1343 0.747073 14.1704 0.767426 14.2017C0.787621 14.2327 0.819427 14.25 0.856604 14.25H14.2848C14.3221 14.25 14.3538 14.2327 14.3739 14.2017L14.374 14.2016C14.3943 14.1705 14.3971 14.1345 14.382 14.1005L14.382 14.1004L12.6692 10.2421C12.6692 10.242 12.6692 10.242 12.6692 10.242C12.6597 10.2205 12.6417 10.2015 12.6212 10.1909L12.6211 10.1908L10.2747 8.96926C9.46407 9.49612 8.53552 9.77637 7.57067 9.77637C6.60597 9.77637 5.67739 9.49613 4.86677 8.96929L2.52027 10.1908C2.49958 10.2016 2.48159 10.2207 2.4722 10.2419L2.47215 10.242L0.759335 14.1004ZM4.56172 8.75514C4.56246 8.7557 4.5632 8.75626 4.56394 8.75681C4.56329 8.75632 4.56263 8.75583 4.56197 8.75533L4.56172 8.75514Z" stroke="#36A2B7" stroke-width="1.5"/>
</svg>
