<svg width="194" height="26" viewBox="0 0 194 26" fill="none" xmlns="http://www.w3.org/2000/svg">
<path d="M12.2034 5.13082V21.388H7.70699V5.13082H2V1.2337H17.9104V5.13082H12.2034Z" fill="#36A2B8"/>
<path d="M24.9548 13.0288V21.388H20.6313V0H24.9548V7.60976C26.2576 6.28381 27.7218 5.61508 29.3359 5.61508C30.9731 5.61508 32.3451 6.19158 33.4634 7.34457C34.5818 8.49756 35.1352 10.031 35.1352 11.9565V21.388H30.8117V12.9135C30.8117 10.5268 29.9355 9.33925 28.183 9.33925C27.3183 9.33925 26.5574 9.66208 25.9118 10.2847C25.2776 10.9073 24.9548 11.8182 24.9548 13.0288Z" fill="#36A2B8"/>
<path d="M53.3398 17.9291C51.9101 19.8546 50.0193 21.0306 47.6904 21.4457C45.3846 21.8492 43.3439 21.4803 41.5799 20.3273C39.8159 19.1512 38.7206 17.3641 38.2941 14.9659C37.8675 12.5676 38.2941 10.5153 39.5853 8.83194C40.8882 7.13704 42.583 6.11088 44.6928 5.74192C46.7911 5.37296 48.6819 5.6958 50.3652 6.6989C52.06 7.70201 53.1092 9.3162 53.5012 11.5299L53.9047 13.8013L42.779 15.7614C43.0557 16.5685 43.6091 17.1796 44.4507 17.5716C45.2808 17.9752 46.157 18.0905 47.0909 17.9291C48.5897 17.6639 49.7311 16.949 50.5151 15.773L53.3398 17.9291ZM49.0393 11.5069C48.7857 10.6191 48.3245 9.9734 47.6443 9.58139C46.9756 9.18937 46.2031 9.07407 45.3615 9.22396C44.5314 9.37385 43.8051 9.76587 43.194 10.4C42.583 11.0342 42.2947 11.7951 42.3408 12.6829L49.0393 11.5069Z" fill="#36A2B8"/>
<path d="M93.4364 7.92107C93.4364 11.1494 92.1566 13.2364 89.6087 14.1703L98.1634 25.9885H92.6293L84.6972 14.9543H81.5843V21.3765H77.0879V1.2337H84.7318C87.8678 1.2337 90.0929 1.76408 91.4188 2.82483C92.7677 3.88559 93.4364 5.58049 93.4364 7.92107ZM84.8701 11.0687C86.4035 11.0687 87.4527 10.8151 88.0061 10.3193C88.5595 9.8235 88.8362 9.02794 88.8362 7.95566C88.8362 6.86031 88.548 6.11087 87.9715 5.70732C87.3951 5.30377 86.3805 5.09623 84.9393 5.09623H81.5612V11.0687H84.8701Z" fill="#333333"/>
<path d="M111.894 17.9291C110.465 19.8546 108.574 21.0306 106.245 21.4457C103.939 21.8492 101.899 21.4803 100.135 20.3273C98.3706 19.1512 97.2753 17.3641 96.8488 14.9659C96.4222 12.5676 96.8487 10.5153 98.14 8.83194C99.4428 7.13704 101.138 6.11088 103.247 5.74192C105.346 5.37296 107.237 5.6958 108.92 6.6989C110.615 7.70201 111.664 9.3162 112.056 11.5299L112.459 13.8013L101.334 15.7614C101.61 16.5685 102.164 17.1796 103.005 17.5716C103.835 17.9752 104.712 18.0905 105.646 17.9291C107.144 17.6639 108.286 16.949 109.07 15.773L111.894 17.9291ZM107.606 11.5069C107.352 10.6191 106.891 9.9734 106.211 9.58139C105.53 9.2009 104.769 9.0856 103.916 9.23549C103.086 9.38538 102.36 9.77739 101.749 10.4115C101.138 11.0457 100.849 11.8067 100.896 12.6945L107.606 11.5069Z" fill="#333333"/>
<path d="M127.09 16.5685C127.09 18.0904 126.525 19.3126 125.395 20.235C124.277 21.1574 122.859 21.6186 121.13 21.6186C119.977 21.6186 118.778 21.4111 117.521 21.0075C116.276 20.5809 115.146 19.9698 114.154 19.1627L116.057 16.4532C117.671 17.6984 119.389 18.3326 121.222 18.3326C121.775 18.3326 122.225 18.2288 122.548 18.0213C122.87 17.7907 123.043 17.4909 123.043 17.1219C123.043 16.753 122.813 16.4186 122.352 16.1073C121.913 15.796 121.256 15.5077 120.392 15.2425C119.55 14.9774 118.893 14.7468 118.432 14.5507C117.994 14.3547 117.486 14.078 116.91 13.7206C115.734 12.9942 115.146 11.9104 115.146 10.4922C115.146 9.05097 115.722 7.87492 116.875 6.97558C118.028 6.07625 119.515 5.61505 121.349 5.61505C123.17 5.61505 125.003 6.22614 126.825 7.45984L125.211 10.3423C123.862 9.41993 122.525 8.95873 121.176 8.95873C119.85 8.95873 119.193 9.32769 119.193 10.0541C119.193 10.4576 119.4 10.7805 119.827 10.9995C120.253 11.2301 120.957 11.4953 121.937 11.8066C122.917 12.1179 123.608 12.3601 124.012 12.533C124.438 12.6829 124.934 12.9366 125.511 13.2825C126.56 13.9397 127.09 15.035 127.09 16.5685Z" fill="#333333"/>
<path d="M140.395 14.2395V5.88025H144.742V21.388H140.395V19.3472C139.323 20.8692 137.928 21.6301 136.21 21.6301C134.515 21.6301 133.097 21.0998 131.944 20.039C130.791 18.9667 130.215 17.3756 130.215 15.2771V5.88025H134.573V14.3202C134.573 16.7069 135.449 17.8944 137.202 17.8944C138.066 17.8944 138.816 17.5831 139.45 16.972C140.084 16.3379 140.395 15.427 140.395 14.2395Z" fill="#333333"/>
<path d="M163.073 13.0288V21.388H158.715V12.9135C158.715 11.6798 158.519 10.7805 158.139 10.204C157.77 9.62747 157.17 9.33922 156.328 9.33922C155.498 9.33922 154.761 9.66206 154.103 10.2847C153.469 10.8958 153.158 11.8066 153.158 13.0173V21.3765H148.834V5.88024H153.158V7.63279C154.345 6.28379 155.717 5.61505 157.251 5.61505C158.231 5.61505 159.119 5.9033 159.903 6.4798C160.71 7.05629 161.309 7.75962 161.713 8.58977C162.312 7.64432 163.108 6.91793 164.099 6.39909C165.114 5.88024 166.14 5.61505 167.154 5.61505C168.976 5.61505 170.452 6.16849 171.559 7.26383C172.677 8.33612 173.23 9.90419 173.23 11.9565V21.388H168.884V12.9135C168.884 10.5268 168.008 9.33922 166.255 9.33922C165.391 9.33922 164.641 9.66206 164.007 10.2847C163.384 10.9073 163.073 11.8182 163.073 13.0288Z" fill="#333333"/>
<path d="M191.435 17.8483C189.994 19.7738 188.115 20.9499 185.786 21.3649C183.48 21.7685 181.439 21.3995 179.675 20.2465C177.911 19.0705 176.816 17.2833 176.389 14.8851C175.963 12.4869 176.389 10.4346 177.681 8.75119C178.983 7.05629 180.678 6.03013 182.788 5.66117C184.886 5.29221 186.777 5.61505 188.46 6.61815C190.155 7.62126 191.204 9.23545 191.596 11.4492L192 13.7206L180.874 15.6807C181.151 16.4878 181.704 17.0989 182.546 17.4909C183.376 17.8944 184.252 18.0097 185.186 17.8483C186.685 17.5831 187.826 16.8683 188.61 15.6922L191.435 17.8483ZM187.146 11.4261C186.892 10.5383 186.431 9.89265 185.751 9.50064C185.082 9.10862 184.31 8.99332 183.468 9.14321C182.638 9.2931 181.912 9.68512 181.301 10.3193C180.69 10.9534 180.401 11.7144 180.448 12.6022L187.146 11.4261Z" fill="#333333"/>
<path d="M68 13C68 14.6569 66.6569 16 65 16C63.3431 16 62 14.6569 62 13C62 11.3431 63.3431 10 65 10C66.6569 10 68 11.3431 68 13Z" fill="#333333"/>
</svg>
