<svg width="156" height="21" viewBox="0 0 156 21" fill="none" xmlns="http://www.w3.org/2000/svg">
<path d="M9.8132 4.14425V17.2751H6.19752V4.14425H1.6084V0.996582H14.4023V4.14425H9.8132Z" fill="#555454"/>
<path d="M20.0669 10.5233V17.2749H16.5903V0H20.0669V6.14634C21.1146 5.07539 22.292 4.53526 23.5899 4.53526C24.9064 4.53526 26.0096 5.00089 26.9089 5.93215C27.8082 6.86342 28.2532 8.102 28.2532 9.65721V17.2749H24.7766V10.4302C24.7766 8.50244 24.072 7.54324 22.6628 7.54324C21.9675 7.54324 21.3556 7.80399 20.8364 8.30687C20.3265 8.80976 20.0669 9.54546 20.0669 10.5233Z" fill="#555454"/>
<path d="M42.8916 14.4811C41.742 16.0364 40.2216 16.9862 38.3489 17.3215C36.4947 17.6474 34.8537 17.3494 33.4353 16.4182C32.0168 15.4683 31.1361 14.0248 30.793 12.0878C30.45 10.1508 30.793 8.49312 31.8314 7.13348C32.879 5.76452 34.2418 4.93569 35.9384 4.63769C37.6257 4.33969 39.1462 4.60044 40.4997 5.41064C41.8626 6.22084 42.7062 7.52461 43.0214 9.31263L43.3459 11.1472L34.3994 12.7304C34.6219 13.3823 35.067 13.8758 35.7437 14.1925C36.4112 14.5184 37.1158 14.6115 37.8668 14.4811C39.072 14.267 39.9898 13.6896 40.6203 12.7397L42.8916 14.4811ZM39.4336 9.29401C39.2296 8.57693 38.8588 8.05543 38.3118 7.7388C37.7741 7.42217 37.1529 7.32904 36.4761 7.45011C35.8086 7.57117 35.2246 7.8878 34.7332 8.4C34.2418 8.91219 34.0101 9.52682 34.0471 10.2439L39.4336 9.29401Z" fill="#555454"/>
<path d="M75.1345 6.39791C75.1345 9.00545 74.1054 10.691 72.0565 11.4454L78.9356 20.9908H74.4855L68.1071 12.0786H65.604V17.2658H61.9883V0.996582H68.1349C70.6566 0.996582 72.4459 1.42496 73.5121 2.28173C74.5968 3.13849 75.1345 4.50745 75.1345 6.39791ZM68.2462 8.94026C69.4792 8.94026 70.3229 8.73538 70.7679 8.33494C71.2129 7.9345 71.4354 7.29193 71.4354 6.42585C71.4354 5.54115 71.2036 4.93583 70.7401 4.60989C70.2765 4.28394 69.4607 4.11632 68.3018 4.11632H65.5854V8.94026H68.2462Z" fill="#7B7B7B"/>
<path d="M89.9771 14.4811C88.8275 16.0364 87.3071 16.9862 85.4343 17.3215C83.5801 17.6474 81.9392 17.3494 80.5207 16.4182C79.1023 15.4683 78.2215 14.0248 77.8785 12.0878C77.5355 10.1508 77.8785 8.49312 78.9168 7.13348C79.9645 5.76452 81.3273 4.93569 83.0239 4.63769C84.7112 4.33969 86.2316 4.60044 87.5852 5.41064C88.948 6.22084 89.7917 7.52461 90.1069 9.31263L90.4314 11.1472L81.4849 12.7304C81.7074 13.3823 82.1524 13.8758 82.8292 14.1925C83.4967 14.5184 84.2013 14.6115 84.9522 14.4811C86.1575 14.267 87.0753 13.6896 87.7057 12.7397L89.9771 14.4811ZM86.5283 9.29401C86.3243 8.57693 85.9535 8.05543 85.4065 7.7388C84.8595 7.43148 84.2476 7.33835 83.5616 7.45942C82.8941 7.58048 82.31 7.89711 81.8186 8.40931C81.3273 8.9215 81.0955 9.53614 81.1326 10.2532L86.5283 9.29401Z" fill="#7B7B7B"/>
<path d="M102.196 13.3822C102.196 14.6114 101.742 15.5986 100.833 16.3436C99.9338 17.0886 98.7935 17.4611 97.4029 17.4611C96.4758 17.4611 95.5116 17.2935 94.5011 16.9675C93.4998 16.623 92.5912 16.1294 91.7939 15.4775L93.3237 13.289C94.6216 14.2948 96.003 14.807 97.477 14.807C97.922 14.807 98.2836 14.7232 98.5432 14.5556C98.8028 14.3693 98.9418 14.1272 98.9418 13.8292C98.9418 13.5312 98.7564 13.2611 98.3856 13.0097C98.0333 12.7582 97.5049 12.5254 96.8095 12.3112C96.1328 12.097 95.6043 11.9108 95.2335 11.7525C94.8812 11.5941 94.4732 11.3706 94.0097 11.0819C93.0641 10.4952 92.5912 9.61986 92.5912 8.4744C92.5912 7.31032 93.0548 6.36043 93.9819 5.63405C94.909 4.90766 96.1049 4.53516 97.579 4.53516C99.0438 4.53516 100.518 5.02873 101.983 6.02518L100.685 8.35334C99.6001 7.60833 98.5247 7.23582 97.44 7.23582C96.3738 7.23582 95.8454 7.53383 95.8454 8.12052C95.8454 8.44646 96.0122 8.70722 96.3553 8.88416C96.6983 9.07041 97.2638 9.2846 98.0518 9.53604C98.8399 9.78748 99.3961 9.98305 99.7206 10.1227C100.064 10.2438 100.462 10.4487 100.926 10.7281C101.769 11.2589 102.196 12.1436 102.196 13.3822Z" fill="#7B7B7B"/>
<path d="M112.895 11.5012V4.74951H116.39V17.275H112.895V15.6267C112.033 16.8559 110.911 17.4706 109.53 17.4706C108.167 17.4706 107.027 17.0422 106.1 16.1854C105.173 15.3194 104.709 14.0342 104.709 12.3393V4.74951H108.213V11.5664C108.213 13.4941 108.918 14.4533 110.327 14.4533C111.023 14.4533 111.625 14.2018 112.135 13.7083C112.645 13.1961 112.895 12.4604 112.895 11.5012Z" fill="#7B7B7B"/>
<path d="M131.131 10.5232V17.2748H127.626V10.4301C127.626 9.4336 127.469 8.70722 127.163 8.24159C126.866 7.77596 126.384 7.54314 125.707 7.54314C125.04 7.54314 124.446 7.80389 123.918 8.30678C123.408 8.80035 123.158 9.53604 123.158 10.5139V17.2655H119.681V4.74935H123.158V6.16487C124.113 5.07529 125.216 4.53516 126.449 4.53516C127.237 4.53516 127.951 4.76797 128.581 5.2336C129.23 5.69924 129.712 6.26731 130.037 6.93782C130.519 6.17418 131.159 5.58748 131.956 5.16842C132.772 4.74935 133.597 4.53516 134.413 4.53516C135.878 4.53516 137.064 4.98216 137.954 5.86686C138.853 6.73294 139.298 7.99946 139.298 9.65711V17.2748H135.803V10.4301C135.803 8.50234 135.099 7.54314 133.69 7.54314C132.994 7.54314 132.392 7.80389 131.882 8.30678C131.381 8.80966 131.131 9.54536 131.131 10.5232Z" fill="#7B7B7B"/>
<path d="M153.938 14.416C152.779 15.9712 151.267 16.9211 149.395 17.2563C147.541 17.5823 145.9 17.2843 144.481 16.353C143.063 15.4031 142.182 13.9596 141.839 12.0226C141.496 10.0856 141.839 8.42794 142.877 7.06829C143.925 5.69933 145.288 4.87051 146.984 4.5725C148.672 4.2745 150.192 4.53525 151.546 5.34545C152.908 6.15565 153.752 7.45942 154.067 9.24745L154.392 11.082L145.445 12.6652C145.668 13.3171 146.113 13.8106 146.79 14.1273C147.457 14.4532 148.162 14.5463 148.913 14.416C150.118 14.2018 151.036 13.6244 151.666 12.6745L153.938 14.416ZM150.489 9.22882C150.285 8.51175 149.914 7.99024 149.367 7.67361C148.829 7.35698 148.208 7.26386 147.531 7.38492C146.864 7.50599 146.28 7.82261 145.788 8.33481C145.297 8.847 145.065 9.46164 145.102 10.1787L150.489 9.22882Z" fill="#7B7B7B"/>
<path d="M54.6802 10.5C54.6802 11.8382 53.6002 12.9231 52.2678 12.9231C50.9355 12.9231 49.8555 11.8382 49.8555 10.5C49.8555 9.16175 50.9355 8.0769 52.2678 8.0769C53.6002 8.0769 54.6802 9.16175 54.6802 10.5Z" fill="#7B7B7B"/>
</svg>
