<svg width="39" height="23" viewBox="0 0 39 23" fill="none" xmlns="http://www.w3.org/2000/svg">
<rect x="0.781738" y="0.7854" width="37.9265" height="21.8559" rx="2" fill="white"/>
<g clip-path="url(#clip0)">
<path fill-rule="evenodd" clip-rule="evenodd" d="M9.78027 1.42847H30.3506V21.9987H9.78027V1.42847Z" fill="white"/>
<path fill-rule="evenodd" clip-rule="evenodd" d="M20.0652 16.1737C20.6852 15.6082 21.1801 14.9192 21.5182 14.1512C21.8563 13.3831 22.0302 12.5529 22.0287 11.7137C22.0302 10.8745 21.8564 10.0443 21.5182 9.27624C21.1801 8.50819 20.6852 7.81928 20.0652 7.25371C19.0051 6.28601 17.5988 5.69629 16.0556 5.69629C12.7568 5.69629 10.0825 8.39035 10.0825 11.7137C10.0825 15.037 12.7568 17.7312 16.0556 17.7312C17.5988 17.7312 19.0052 17.1414 20.0652 16.1737Z" fill="#3A9BD9"/>
<path fill-rule="evenodd" clip-rule="evenodd" d="M24.0751 5.69629C22.5319 5.69629 21.1254 6.286 20.0655 7.25371C19.8493 7.45122 19.6477 7.66414 19.4624 7.89081H20.6681C20.8336 8.09312 20.9858 8.30597 21.1238 8.52801H19.007C18.8796 8.73334 18.7646 8.94613 18.6627 9.16522H21.4676C21.5641 9.37259 21.6488 9.5853 21.7211 9.80232H18.4097C18.3403 10.0113 18.2824 10.224 18.2363 10.4394H21.8946C21.9841 10.8583 22.0292 11.2854 22.029 11.7137C22.029 12.3818 21.9206 13.0245 21.7212 13.625H18.4097C18.4818 13.8421 18.5662 14.0548 18.6627 14.2622H21.4676C21.3658 14.4813 21.251 14.6941 21.1237 14.8994H19.007C19.1448 15.1215 19.2969 15.3343 19.4623 15.5366H20.6681C20.483 15.7634 20.2816 15.9764 20.0655 16.1738C21.1254 17.1415 22.5319 17.7313 24.0751 17.7313C27.3737 17.7313 30.0482 15.0371 30.0482 11.7138C30.0482 8.39035 27.3737 5.69629 24.0751 5.69629Z" fill="#CC2131"/>
<path fill-rule="evenodd" clip-rule="evenodd" d="M29.2529 15.068C29.2529 14.9606 29.3393 14.8735 29.446 14.8735C29.5525 14.8735 29.6388 14.9606 29.6388 15.068C29.6388 15.1751 29.5525 15.2622 29.446 15.2622C29.3946 15.262 29.3454 15.2415 29.3092 15.2051C29.273 15.1686 29.2528 15.1193 29.2529 15.068ZM29.4459 15.2155C29.5268 15.2155 29.5924 15.1496 29.5924 15.0679C29.5924 14.9861 29.5268 14.9201 29.4459 14.9201C29.3648 14.9201 29.2991 14.9861 29.2991 15.0679C29.2991 15.1496 29.3649 15.2155 29.4459 15.2155ZM29.4198 15.1531H29.3802V14.9822H29.452C29.4668 14.9822 29.4819 14.9826 29.4951 14.9909C29.5019 14.9957 29.5074 15.0021 29.5112 15.0096C29.515 15.017 29.5169 15.0253 29.5167 15.0336C29.5167 15.0528 29.5055 15.071 29.4874 15.0778L29.5187 15.153H29.4747L29.4489 15.0855H29.4199V15.1531V15.0564H29.4418C29.4497 15.0564 29.4587 15.0569 29.4658 15.0529C29.469 15.0507 29.4716 15.0478 29.4733 15.0444C29.4751 15.041 29.476 15.0371 29.4759 15.0333C29.4757 15.0299 29.4748 15.0265 29.4731 15.0235C29.4715 15.0205 29.4691 15.0179 29.4663 15.016C29.4594 15.0118 29.4483 15.0129 29.4409 15.0129H29.42V15.1531H29.4198Z" fill="#CC2131"/>
<path fill-rule="evenodd" clip-rule="evenodd" d="M27.9894 13.0177C27.9894 12.9104 28.0757 12.8233 28.1822 12.8233C28.2888 12.8233 28.3751 12.9104 28.3751 13.0177C28.3751 13.1251 28.2888 13.212 28.1822 13.212C28.0757 13.212 27.9894 13.125 27.9894 13.0177ZM28.1821 13.1652C28.263 13.1652 28.3287 13.0992 28.3287 13.0176C28.3287 12.9359 28.263 12.8698 28.1821 12.8698C28.101 12.8698 28.0356 12.9359 28.0356 13.0176C28.0356 13.0992 28.1011 13.1652 28.1821 13.1652ZM28.1561 13.1029H28.1165V12.9321H28.1882C28.2031 12.9321 28.2184 12.9324 28.2313 12.9409C28.2381 12.9457 28.2437 12.952 28.2475 12.9594C28.2512 12.9668 28.2531 12.9751 28.253 12.9834C28.253 13.0028 28.2419 13.0207 28.2237 13.0275L28.2549 13.1028H28.2112L28.1851 13.0352H28.1562V13.1029V13.0062H28.1781C28.1862 13.0062 28.1952 13.0068 28.2021 13.0029C28.2052 13.0007 28.2078 12.9977 28.2095 12.9943C28.2113 12.9909 28.2122 12.9871 28.2121 12.9833C28.2121 12.9798 28.2111 12.9764 28.2095 12.9733C28.2078 12.9703 28.2054 12.9677 28.2025 12.9658C28.1957 12.9618 28.1846 12.9627 28.1773 12.9627H28.1563V13.1029H28.1561ZM15.3093 13.212H14.5659L15.0078 10.8667L13.9905 13.212H13.3127L13.1888 10.8802L12.7456 13.212H12.0708L12.6474 10.1612H13.8074L13.8688 12.0499L14.6866 10.1612H15.8954L15.3093 13.212ZM23.6173 13.1815C23.4139 13.2378 23.2549 13.262 23.0831 13.262C22.7028 13.262 22.4951 13.0698 22.4951 12.7172C22.4951 12.6474 22.5028 12.5731 22.517 12.4946L22.5622 12.252L22.597 12.0557L22.9416 10.1611H23.6809L23.5738 10.7309H23.9532L23.8513 11.3341H23.4703L23.2743 12.3692C23.2671 12.403 23.2628 12.4374 23.2616 12.472C23.2616 12.6001 23.3386 12.6559 23.5153 12.6559C23.5999 12.6559 23.6656 12.6482 23.7158 12.6327L23.6173 13.1815ZM25.7886 10.7513C25.7263 10.7265 25.7116 10.7265 25.7044 10.7245C25.665 10.7157 25.644 10.7106 25.6404 10.71C25.6157 10.7057 25.5906 10.7036 25.5656 10.7038C25.3215 10.7038 25.1455 10.8133 24.918 11.1066L24.9836 10.7307H24.3104L23.8572 13.2118H24.6012C24.8673 11.6944 24.9813 11.4287 25.3381 11.4287C25.365 11.4287 25.3961 11.4308 25.4322 11.435L25.519 11.4528L25.7886 10.7513ZM20.6704 11.5147C20.6704 11.8282 20.8457 12.044 21.2431 12.2063C21.5477 12.3309 21.5947 12.3674 21.5947 12.4801C21.5947 12.6345 21.4605 12.7042 21.1631 12.7042C20.9385 12.7042 20.7299 12.6738 20.489 12.606L20.3858 13.1783L20.4191 13.184L20.5569 13.2094C20.6013 13.2171 20.6667 13.2244 20.7535 13.2311C20.9323 13.245 21.0708 13.2516 21.1683 13.2516C21.9618 13.2516 22.3284 12.9897 22.3284 12.4237C22.3284 12.0832 22.1752 11.8835 21.7983 11.7332C21.483 11.6076 21.4465 11.5797 21.4465 11.4639C21.4465 11.3302 21.5716 11.2615 21.8146 11.2615C21.9624 11.2615 22.1639 11.2755 22.355 11.2987L22.4621 10.7244C22.2675 10.6977 21.9721 10.6758 21.8004 10.6758C20.959 10.6759 20.6678 11.0571 20.6704 11.5147ZM17.726 13.212H17.1083L17.1227 12.9548C16.9345 13.1584 16.6837 13.2549 16.3429 13.2549C15.94 13.2549 15.6635 12.9785 15.6635 12.5772C15.6635 11.9728 16.1439 11.6205 16.9694 11.6205C17.054 11.6205 17.1615 11.6272 17.2723 11.6396C17.2953 11.5581 17.3016 11.5228 17.3016 11.4784C17.3016 11.3142 17.172 11.2527 16.8248 11.2527C16.6126 11.2527 16.3727 11.2796 16.207 11.3219L16.1041 11.3483L16.0374 11.3643L16.1404 10.8064C16.5111 10.7108 16.7557 10.6747 17.0305 10.6747C17.6694 10.6747 18.007 10.9267 18.007 11.4025C18.007 11.5249 17.9958 11.6178 17.9466 11.894L17.7912 12.7742L17.7651 12.9321L17.7461 13.0583L17.7334 13.1446L17.726 13.212ZM17.1837 12.1066C17.1286 12.0997 17.0731 12.0963 17.0175 12.0963C16.5962 12.0963 16.3828 12.2232 16.3828 12.4738C16.3828 12.6282 16.487 12.7268 16.6495 12.7268C16.9526 12.7269 17.1709 12.4735 17.1837 12.1066ZM20.1648 13.1584C19.9165 13.2258 19.6604 13.2596 19.4031 13.259C18.572 13.2584 18.1388 12.8772 18.1388 12.1475C18.1388 11.2957 18.6899 10.6687 19.438 10.6687C20.05 10.6687 20.4408 11.0199 20.4408 11.5705C20.4408 11.7533 20.4141 11.9316 20.3496 12.1831H18.8714C18.8669 12.2088 18.8645 12.2349 18.8643 12.261C18.8643 12.5486 19.0846 12.6953 19.5164 12.6953C19.7819 12.6953 20.0219 12.6468 20.2884 12.5384L20.1648 13.1584ZM19.7689 11.6821C19.773 11.6304 19.7751 11.5881 19.7751 11.5555C19.7751 11.354 19.6448 11.2358 19.4235 11.2358C19.187 11.2358 19.0178 11.3944 18.9492 11.6806L19.7689 11.6821ZM28.0994 12.087C27.9881 12.9124 27.416 13.2784 26.6555 13.2784C25.8144 13.2784 25.4747 12.7645 25.4747 12.1348C25.4747 11.2554 26.05 10.6596 26.9386 10.6596C27.7098 10.6596 28.1193 11.1495 28.1193 11.7794C28.1193 11.9326 28.1191 11.9428 28.0994 12.087ZM27.3338 11.7696C27.3338 11.51 27.2293 11.265 26.9245 11.265C26.5451 11.265 26.31 11.7167 26.31 12.1155C26.31 12.4519 26.4712 12.6779 26.7369 12.6731C26.898 12.6731 27.2416 12.452 27.3096 12.0658C27.3255 11.9757 27.3338 11.8769 27.3338 11.7696Z" fill="white"/>
</g>
<defs>
<clipPath id="clip0">
<rect width="20.5703" height="20.5703" fill="white" transform="translate(9.78027 1.42847)"/>
</clipPath>
</defs>
</svg>
