<svg width="39" height="23" viewBox="0 0 39 23" fill="none" xmlns="http://www.w3.org/2000/svg">
<rect x="0.712402" y="0.7854" width="37.9265" height="21.8559" rx="2" fill="white"/>
<g clip-path="url(#clip0)">
<path d="M28.6155 18.5839V18.6219H28.6515C28.6583 18.622 28.6649 18.6203 28.6708 18.6171C28.6731 18.6154 28.675 18.6132 28.6763 18.6107C28.6776 18.6082 28.6782 18.6054 28.678 18.6025C28.6782 18.5998 28.6775 18.597 28.6763 18.5945C28.675 18.592 28.6731 18.5899 28.6708 18.5884C28.665 18.5849 28.6583 18.5832 28.6515 18.5835H28.6155V18.5839ZM28.6519 18.557C28.6673 18.5561 28.6826 18.5604 28.6951 18.5694C28.7001 18.5734 28.7041 18.5786 28.7067 18.5844C28.7094 18.5903 28.7106 18.5966 28.7102 18.603C28.7105 18.6085 28.7095 18.614 28.7074 18.6191C28.7053 18.6242 28.7021 18.6288 28.6981 18.6326C28.6884 18.6408 28.6763 18.6458 28.6636 18.6467L28.7118 18.7009H28.6747L28.6303 18.6471H28.6159V18.7009H28.5849V18.5571H28.6524L28.6519 18.557ZM28.6423 18.7505C28.6585 18.7506 28.6747 18.7474 28.6896 18.741C28.704 18.7349 28.7171 18.7261 28.7282 18.7152C28.7393 18.7043 28.7482 18.6914 28.7543 18.6772C28.767 18.6471 28.767 18.6133 28.7543 18.5831C28.7481 18.569 28.7392 18.5561 28.7282 18.5451C28.7171 18.5342 28.704 18.5255 28.6896 18.5194C28.6746 18.5133 28.6585 18.5103 28.6423 18.5105C28.6257 18.5103 28.6094 18.5133 28.594 18.5194C28.5793 18.5254 28.5659 18.5341 28.5546 18.5451C28.5375 18.5624 28.526 18.5842 28.5214 18.6078C28.5169 18.6315 28.5194 18.6559 28.5289 18.6782C28.5347 18.6924 28.5435 18.7054 28.5546 18.7162C28.5659 18.7272 28.5793 18.7359 28.594 18.7419C28.6093 18.7483 28.6257 18.7516 28.6423 18.7514V18.7505ZM28.6423 18.4759C28.6846 18.4758 28.7253 18.4922 28.7556 18.5215C28.7701 18.5355 28.7817 18.5523 28.7897 18.5708C28.7979 18.5898 28.8022 18.6102 28.8022 18.6309C28.8022 18.6516 28.7979 18.672 28.7897 18.691C28.7815 18.7094 28.77 18.7261 28.7556 18.7403C28.7408 18.7543 28.7236 18.7655 28.7047 18.7736C28.685 18.7818 28.6637 18.786 28.6423 18.7859C28.6205 18.7861 28.599 18.7819 28.579 18.7736C28.56 18.7657 28.5426 18.7545 28.5278 18.7403C28.5134 18.7256 28.502 18.7083 28.4941 18.6894C28.4859 18.6704 28.4817 18.6499 28.4817 18.6293C28.4817 18.6086 28.4859 18.5882 28.4941 18.5692C28.5021 18.5507 28.5137 18.5339 28.5283 18.5199C28.5429 18.5055 28.5603 18.4942 28.5795 18.4866C28.5995 18.4783 28.621 18.4741 28.6427 18.4743L28.6423 18.4759ZM13.8779 17.9207C13.8779 17.6465 14.0602 17.4214 14.358 17.4214C14.6427 17.4214 14.8347 17.6369 14.8347 17.9207C14.8347 18.2045 14.6427 18.42 14.358 18.42C14.0602 18.42 13.8779 18.1948 13.8779 17.9207ZM15.1592 17.9207V17.1406H14.8151V17.3306C14.7059 17.1902 14.5404 17.1021 14.3152 17.1021C13.8717 17.1021 13.5236 17.4449 13.5236 17.9211C13.5236 18.3972 13.8715 18.74 14.3152 18.74C14.5403 18.74 14.7059 18.6518 14.8151 18.5115V18.7009H15.1588V17.9207H15.1592ZM26.7871 17.9207C26.7871 17.6465 26.9693 17.4214 27.2673 17.4214C27.5522 17.4214 27.744 17.6369 27.744 17.9207C27.744 18.2045 27.5522 18.42 27.2673 18.42C26.9694 18.42 26.7871 18.1948 26.7871 17.9207ZM28.0687 17.9207V16.5144H27.7243V17.3306C27.6152 17.1902 27.4496 17.1021 27.2244 17.1021C26.7809 17.1021 26.4328 17.4449 26.4328 17.9211C26.4328 18.3972 26.7807 18.74 27.2244 18.74C27.4496 18.74 27.6152 18.6518 27.7243 18.5115V18.7009H28.0687V17.9207ZM19.4304 17.4053C19.6521 17.4053 19.7946 17.5423 19.8309 17.7836H19.0098C19.0465 17.5584 19.1853 17.4053 19.4305 17.4053H19.4304ZM19.4373 17.1012C18.9735 17.1012 18.6491 17.4338 18.6491 17.9202C18.6491 18.4161 18.9865 18.7392 19.4604 18.7392C19.6987 18.7392 19.917 18.6805 20.1091 18.5206L19.9404 18.2693C19.8078 18.3738 19.6388 18.4324 19.48 18.4324C19.2583 18.4324 19.0563 18.3313 19.0067 18.0505H20.1818C20.1852 18.0083 20.1886 17.9657 20.1886 17.9201C20.1852 17.4339 19.8801 17.1011 19.4371 17.1011L19.4373 17.1012ZM23.592 17.9201C23.592 17.646 23.7742 17.4208 24.0721 17.4208C24.3567 17.4208 24.5488 17.6363 24.5488 17.9201C24.5488 18.2039 24.3567 18.4194 24.0721 18.4194C23.7742 18.4194 23.5919 18.1942 23.5919 17.9201H23.592ZM24.8732 17.9201V17.1406H24.5292V17.3306C24.4197 17.1902 24.2545 17.1021 24.0294 17.1021C23.5858 17.1021 23.2377 17.4449 23.2377 17.9211C23.2377 18.3972 23.5856 18.74 24.0294 18.74C24.2545 18.74 24.4197 18.6518 24.5292 18.5115V18.7009H24.8733V17.9207L24.8732 17.9201ZM21.6486 17.9201C21.6486 18.3932 21.9828 18.7391 22.4929 18.7391C22.7312 18.7391 22.89 18.6868 23.0618 18.5531L22.8965 18.279C22.7673 18.3705 22.6316 18.4194 22.4819 18.4194C22.2072 18.4161 22.0052 18.2204 22.0052 17.9201C22.0052 17.6198 22.2072 17.4242 22.4819 17.4208C22.6312 17.4208 22.7669 17.4697 22.8965 17.5612L23.0618 17.2871C22.8897 17.1534 22.7309 17.1011 22.4929 17.1011C21.9828 17.1011 21.6486 17.4469 21.6486 17.9201ZM26.085 17.1011C25.8865 17.1011 25.7572 17.1926 25.6678 17.3297V17.1406H25.3267V18.7H25.6713V17.8258C25.6713 17.5678 25.7838 17.4244 26.0087 17.4244C26.0824 17.4233 26.1556 17.4367 26.224 17.4636L26.33 17.144C26.2539 17.1144 26.1545 17.1014 26.0848 17.1014L26.085 17.1011ZM16.8606 17.2646C16.695 17.157 16.4669 17.1014 16.2152 17.1014C15.8143 17.1014 15.5562 17.2908 15.5562 17.6007C15.5562 17.8549 15.7484 18.0118 16.1022 18.0607L16.2648 18.0835C16.4535 18.1097 16.5426 18.1586 16.5426 18.2467C16.5426 18.3673 16.4172 18.4361 16.1819 18.4361C15.9435 18.4361 15.7715 18.361 15.6555 18.2729L15.4938 18.5373C15.6825 18.6744 15.9209 18.7397 16.179 18.7397C16.636 18.7397 16.9009 18.5277 16.9009 18.2307C16.9009 17.9566 16.6924 17.8132 16.348 17.7643L16.1858 17.7411C16.0369 17.7221 15.9175 17.6925 15.9175 17.588C15.9175 17.474 16.03 17.4054 16.2188 17.4054C16.4208 17.4054 16.6164 17.4805 16.7122 17.5391L16.8612 17.265L16.8606 17.2646ZM21.301 17.1017C21.1024 17.1017 20.9731 17.1932 20.8841 17.3302V17.1406H20.5431V18.7H20.8872V17.8258C20.8872 17.5678 20.9998 17.4244 21.2247 17.4244C21.2984 17.4233 21.3715 17.4367 21.4399 17.4636L21.546 17.144C21.4698 17.1144 21.3705 17.1014 21.3008 17.1014L21.301 17.1017ZM18.3643 17.1406H17.8016V16.6675H17.4537V17.1406H17.1327V17.4505H17.4537V18.1619C17.4537 18.5238 17.5962 18.7393 18.0033 18.7393C18.1527 18.7393 18.3247 18.6937 18.4338 18.6187L18.3344 18.3283C18.2317 18.3869 18.1192 18.4165 18.0297 18.4165C17.8577 18.4165 17.8016 18.312 17.8016 18.1555V17.4508H18.3643V17.1406ZM13.2193 18.7004V17.7217C13.2193 17.3531 12.9809 17.1051 12.5967 17.1018C12.3947 17.0985 12.1863 17.1604 12.0404 17.3793C11.9313 17.2063 11.7592 17.1018 11.5174 17.1018C11.3484 17.1018 11.1832 17.1507 11.0539 17.3334V17.1406H10.7095V18.7H11.0566V17.8354C11.0566 17.5646 11.2089 17.4208 11.4442 17.4208C11.6727 17.4208 11.7884 17.5676 11.7884 17.8319V18.6998H12.1362V17.8352C12.1362 17.5645 12.2951 17.4206 12.5235 17.4206C12.7585 17.4206 12.8706 17.5674 12.8706 17.8317V18.6996L13.2193 18.7004Z" fill="#231F20"/>
<path d="M28.8118 13.513V13.2849H28.7516L28.6819 13.4414L28.6125 13.2849H28.5521V13.513H28.5949V13.3412L28.6601 13.4894H28.7044L28.7696 13.3408V13.513H28.812H28.8118ZM28.4295 13.513V13.324H28.5067V13.2855H28.3096V13.324H28.3867V13.513H28.4291H28.4295Z" fill="#F79410"/>
<path d="M21.9622 14.4909H16.7471V5.25513H21.9623L21.9622 14.4909Z" fill="#FF5F00"/>
<path d="M17.0777 9.87304C17.0777 7.99956 17.9678 6.33065 19.354 5.25513C18.3048 4.43982 17.007 3.99733 15.6708 3.99927C12.3792 3.99927 9.71094 6.62901 9.71094 9.87304C9.71094 13.1171 12.3792 15.7468 15.6708 15.7468C17.007 15.7488 18.3048 15.3063 19.3541 14.4909C17.968 13.4156 17.0777 11.7466 17.0777 9.87304Z" fill="#EB001B"/>
<path d="M28.9977 9.87328C28.9977 13.1173 26.3294 15.747 23.0379 15.747C21.7015 15.749 20.4035 15.3065 19.354 14.4912C20.7406 13.4157 21.6307 11.7469 21.6307 9.87328C21.6307 7.9997 20.7406 6.33089 19.354 5.25538C20.4035 4.44009 21.7014 3.99761 23.0378 3.99952C26.3294 3.99952 28.9976 6.62925 28.9976 9.87328" fill="#F79E1B"/>
</g>
<defs>
<clipPath id="clip0">
<rect width="19.2846" height="14.7849" fill="white" transform="translate(9.71094 3.99951)"/>
</clipPath>
</defs>
</svg>
