<svg width="120" height="120" viewBox="0 0 120 120" fill="none" xmlns="http://www.w3.org/2000/svg">
<g clip-path="url(#clip0)">
<path d="M33.9569 116.882C33.9574 116.883 33.9578 116.884 33.9584 116.886C33.9769 116.939 33.9981 116.99 34.0212 117.041C34.0321 117.064 34.0451 117.087 34.0572 117.111C34.0713 117.138 34.0846 117.165 34.1 117.191C34.1149 117.217 34.1321 117.242 34.148 117.266C34.1629 117.289 34.1773 117.312 34.193 117.334C34.2102 117.357 34.2293 117.38 34.2474 117.403C34.2648 117.424 34.2815 117.446 34.2998 117.467C34.3182 117.487 34.338 117.507 34.3576 117.526C34.3779 117.547 34.398 117.569 34.4193 117.588C34.439 117.607 34.4606 117.624 34.4815 117.641C34.5041 117.66 34.526 117.68 34.5496 117.697C34.5741 117.716 34.6003 117.733 34.6261 117.75C34.6471 117.764 34.6679 117.78 34.69 117.793C34.7381 117.823 34.7878 117.85 34.8396 117.875C34.84 117.875 34.8401 117.876 34.8404 117.876C34.8924 117.901 34.9452 117.923 34.9983 117.943C35.0229 117.952 35.0487 117.959 35.0739 117.967C35.1029 117.976 35.1314 117.986 35.1605 117.993C35.1897 118.001 35.2197 118.007 35.2492 118.013C35.2752 118.018 35.301 118.024 35.327 118.028C35.3564 118.033 35.3863 118.035 35.4158 118.038C35.4429 118.041 35.4696 118.045 35.4966 118.046C35.5247 118.048 35.5529 118.047 35.5812 118.048C35.6097 118.048 35.6386 118.049 35.667 118.048C35.6944 118.047 35.722 118.044 35.7497 118.042C35.7786 118.039 35.8079 118.038 35.8362 118.033C35.8673 118.029 35.8977 118.022 35.9287 118.016C35.9535 118.011 35.9786 118.008 36.0033 118.002C36.0587 117.989 36.1134 117.973 36.1681 117.954L114.498 90.751C114.553 90.732 114.606 90.7103 114.657 90.6867C114.681 90.6759 114.703 90.6632 114.725 90.6517C114.753 90.637 114.781 90.6236 114.808 90.6079C114.833 90.5931 114.858 90.5763 114.882 90.5601C114.905 90.5448 114.928 90.531 114.95 90.5146C114.974 90.4978 114.996 90.4791 115.019 90.4605C115.04 90.443 115.062 90.4258 115.083 90.4076C115.104 90.3894 115.123 90.3697 115.142 90.3505C115.163 90.3299 115.185 90.31 115.205 90.2883C115.223 90.2687 115.24 90.2475 115.257 90.2268C115.276 90.204 115.296 90.1814 115.314 90.1578C115.332 90.1336 115.349 90.1078 115.366 90.0821C115.381 90.0606 115.396 90.0395 115.41 90.0176C115.439 89.9705 115.466 89.9215 115.491 89.8707C115.491 89.8695 115.492 89.8683 115.492 89.8671C115.493 89.8655 115.494 89.8633 115.495 89.8616C115.519 89.8114 115.54 89.7604 115.559 89.7089C115.569 89.6839 115.576 89.6577 115.584 89.6325C115.593 89.6039 115.603 89.5757 115.61 89.5467C115.618 89.5173 115.623 89.4873 115.629 89.4577C115.634 89.4318 115.641 89.4059 115.645 89.3803C115.649 89.3506 115.652 89.3209 115.655 89.291C115.658 89.2642 115.662 89.2375 115.663 89.2106C115.665 89.1824 115.665 89.1539 115.665 89.1254C115.665 89.0968 115.666 89.0683 115.665 89.0402C115.664 89.0121 115.66 88.9839 115.658 88.9559C115.655 88.9274 115.654 88.8989 115.65 88.8704C115.645 88.8385 115.638 88.8064 115.632 88.7745C115.627 88.7507 115.624 88.7271 115.618 88.7033C115.605 88.6479 115.589 88.5928 115.57 88.5379L115.57 88.537L99.4344 42.075L99.4343 42.0747L99.4342 42.0744C99.4333 42.0717 99.4321 42.0691 99.4313 42.067C99.4136 42.0169 99.3941 41.9675 99.3721 41.9195C99.3712 41.9179 99.3702 41.9162 99.3697 41.9147C99.3684 41.9118 99.3667 41.909 99.3654 41.9061C99.3565 41.8871 99.3459 41.8684 99.3364 41.8496C99.3243 41.8263 99.3122 41.8031 99.2995 41.78C99.2966 41.7744 99.2941 41.7692 99.2912 41.7638C99.2767 41.7394 99.2602 41.716 99.2448 41.6919C99.2314 41.6715 99.2189 41.65 99.2044 41.6296C99.2025 41.6269 99.1999 41.6242 99.1979 41.6215C99.1874 41.6074 99.1757 41.5941 99.1648 41.5801C99.1581 41.5714 99.1516 41.5633 99.1446 41.5546C99.1297 41.5357 99.1154 41.5159 99.0997 41.4976C99.0969 41.4945 99.0937 41.492 99.0909 41.4886C99.0729 41.4687 99.0533 41.4498 99.0345 41.4305C99.0279 41.4241 99.0219 41.4172 99.0153 41.4107C99.0036 41.3994 98.9932 41.3866 98.9813 41.3757C98.9779 41.3725 98.9745 41.3703 98.9713 41.3671C98.9517 41.3491 98.9309 41.3326 98.9106 41.3155C98.8903 41.2985 98.8712 41.2803 98.8499 41.2643C98.8471 41.2619 98.8438 41.2601 98.841 41.258C98.8288 41.2489 98.8156 41.2407 98.8032 41.232C98.7906 41.2236 98.7781 41.2146 98.7658 41.2061C98.746 41.1926 98.7272 41.178 98.7064 41.1652C98.7047 41.1641 98.7026 41.1631 98.7009 41.162C98.6725 41.1448 98.6426 41.1301 98.6137 41.1143C98.5929 41.1025 98.5726 41.0904 98.5505 41.0797L98.5504 41.0794C98.5501 41.0795 98.5497 41.0793 98.5493 41.0791L84.6039 34.3218L82.9785 29.6415C82.6636 28.7345 81.6727 28.2544 80.7657 28.5694L76.0851 30.1949L45.7849 15.517C44.9207 15.0984 43.8808 15.4595 43.4622 16.3237L28.7836 46.6218L24.1003 48.2482C23.1931 48.5633 22.7133 49.5541 23.0283 50.4611L24.6551 55.1456L17.8987 69.0879L17.8985 69.0883C17.8986 69.0886 17.8986 69.0886 17.8986 69.0886C17.8733 69.1409 17.8514 69.1937 17.8317 69.2467C17.8224 69.2711 17.816 69.296 17.8081 69.3206C17.7986 69.35 17.7883 69.3793 17.7808 69.4087C17.7732 69.4378 17.7682 69.467 17.7622 69.4958C17.7567 69.5225 17.7503 69.5485 17.7463 69.5754C17.7435 69.5934 17.7416 69.6111 17.7398 69.6291C17.7386 69.64 17.7374 69.6511 17.7362 69.6619C17.7331 69.6897 17.7292 69.7172 17.7278 69.7448C17.7263 69.7724 17.7268 69.7997 17.7263 69.8273C17.7262 69.8568 17.725 69.8861 17.7261 69.9154C17.727 69.9352 17.7291 69.9549 17.7313 69.9746C17.7319 69.9821 17.7324 69.9896 17.7329 69.9968C17.7355 70.0263 17.7373 70.0555 17.7414 70.0849C17.7417 70.0875 17.7419 70.0901 17.742 70.0924C17.746 70.1201 17.7527 70.1472 17.758 70.1749C17.7629 70.2006 17.7668 70.2264 17.7729 70.2517C17.7731 70.2523 17.7729 70.2527 17.773 70.253C17.7735 70.2542 17.7736 70.2555 17.7736 70.2565C17.7821 70.2917 17.7938 70.3261 17.8044 70.3606C17.8099 70.3784 17.8141 70.3964 17.82 70.4141C17.8203 70.415 17.8206 70.4159 17.8209 70.4168L17.821 70.4171L33.9572 116.881L33.9569 116.882ZM33.297 78.4808L33.2998 78.4822L48.4415 85.8176L35.8648 111.776L22.4825 73.2413L33.297 78.4808ZM38.9942 113.292L51.5709 87.334L71.4725 96.9757C71.8874 97.1767 72.3654 97.2046 72.801 97.0533C73.2365 96.9021 73.5944 96.5839 73.7954 96.169L83.4363 76.2677L109.394 88.8435L38.9942 113.292ZM97.5275 47.1799L110.91 85.714L84.9522 73.1381L97.5275 47.1799ZM95.4702 43.4507L90.9878 52.7033L86.2177 38.9676L95.4702 43.4507ZM45.8336 19.4042L71.4397 31.8081L33.429 45.0085L45.8336 19.4042ZM26.8836 50.9627L30.6046 49.6705L80.2643 32.4246L81.5108 36.0139C81.533 36.098 81.5616 36.1804 81.5963 36.2601L88.8437 57.129L71.4237 93.0883L35.4625 75.6659L26.8836 50.9627ZM26.2681 59.7903L31.0368 73.5218L21.7858 69.0402L26.2681 59.7903Z" fill="white" fill-opacity="0.25"/>
<path d="M43.038 56.9586L71.3036 47.1425C72.2106 46.8275 72.6908 45.8369 72.3758 44.9299C72.0608 44.023 71.0699 43.5429 70.1629 43.8579L41.8973 53.674C40.9904 53.989 40.5103 54.9799 40.8253 55.8868C41.1403 56.7938 42.1311 57.2736 43.038 56.9586Z" fill="white" fill-opacity="0.25"/>
<path d="M38.8252 67.6401L81.2295 52.9139C82.1364 52.5989 82.6165 51.608 82.3015 50.701C81.9865 49.7937 80.9957 49.314 80.0887 49.6289L37.6844 64.3551C36.7772 64.6702 36.2973 65.6607 36.6124 66.568C36.9274 67.475 37.918 67.9551 38.8252 67.6401Z" fill="white" fill-opacity="0.25"/>
<path d="M85.158 58.9256C84.843 58.0186 83.8521 57.5386 82.9451 57.8536L40.5409 72.5798C39.6336 72.8948 39.1539 73.8856 39.4688 74.7926C39.7839 75.6999 40.7744 76.1797 41.6817 75.8647L84.0859 61.1385C84.9929 60.8235 85.4731 59.8329 85.158 58.9256Z" fill="white" fill-opacity="0.25"/>
<path d="M79.9231 69.9606C79.6082 69.0536 78.6175 68.5735 77.7103 68.8885L51.4901 77.9943C50.5828 78.3094 50.1031 79.3002 50.4181 80.2072C50.7331 81.1144 51.7236 81.5943 52.6309 81.2792L78.8511 72.1735C79.7583 71.8584 80.2383 70.8682 79.9231 69.9606Z" fill="white" fill-opacity="0.25"/>
</g>
<defs>
<clipPath id="clip0">
<rect width="94.1225" height="94.1225" fill="white" transform="translate(0 30.8779) rotate(-19.1512)"/>
</clipPath>
</defs>
</svg>
