<svg width="29" height="29" viewBox="0 0 29 29" fill="none" xmlns="http://www.w3.org/2000/svg">
<g clip-path="url(#clip0)">
<path d="M14.0048 23.9077C11.3597 23.9077 8.87279 22.8776 7.00241 21.0072C5.13203 19.1368 4.10191 16.6499 4.10191 14.0048C4.10191 11.3596 5.13203 8.87273 7.00241 7.00235C8.87279 5.13197 11.3597 4.10185 14.0048 4.10185C16.65 4.10185 19.1369 5.13197 21.0072 7.00235C22.8776 8.87273 23.9077 11.3596 23.9077 14.0048C23.9077 16.6499 22.8776 19.1368 21.0072 21.0072C19.1369 22.8776 16.65 23.9077 14.0048 23.9077ZM19.9131 8.09648C16.6553 4.83867 11.3543 4.83867 8.09654 8.09648C4.83873 11.3543 4.83873 16.6552 8.09654 19.913C11.3543 23.1708 16.6553 23.1708 19.9131 19.913C23.1709 16.6552 23.1709 11.3543 19.9131 8.09648ZM14.0043 15.0994L16.4661 17.5612L17.5602 16.4671L15.0984 14.0053L17.5602 11.5435L16.4661 10.4494L14.0043 12.9112L11.5425 10.4494L10.4484 11.5435L12.9102 14.0053L10.4484 16.4671L11.5425 17.5612L14.0043 15.0994Z" fill="#EE9283"/>
</g>
<defs>
<clipPath id="clip0">
<rect width="19.8058" height="19.8058" fill="white" transform="matrix(0.707107 0.707107 0.707107 -0.707107 0 14.0048)"/>
</clipPath>
</defs>
</svg>
