<svg width="68" height="68" viewBox="0 0 68 68" fill="none" xmlns="http://www.w3.org/2000/svg">
<rect x="50.999" y="2" width="4" height="59" fill="#FFCF27"/>
<circle cx="50.999" cy="5" r="4" fill="#FFCF27"/>
<path d="M40.5794 15.3548H10.1279V17.5483H40.5794V15.3548Z" fill="#333333"/>
<path d="M18.999 56V51.5H57.499V56.5L18.999 56Z" fill="#C3DBEF" stroke="black"/>
<path d="M42.7729 19.7419H10.1279V21.9354H42.7729V19.7419Z" fill="#333333"/>
<path d="M47.16 26.3225H10.1279V28.516H47.16V26.3225Z" fill="#333333"/>
<path d="M28.515 30.7096H10.1279V32.9031H28.515V30.7096Z" fill="#333333"/>
<path d="M47.1604 30.7096H30.709V32.9031H47.1604V30.7096Z" fill="#333333"/>
<path d="M47.16 37.2902H10.1279V39.4837H47.16V37.2902Z" fill="#333333"/>
<path d="M40.5794 41.6773H10.1279V43.8708H40.5794V41.6773Z" fill="#333333"/>
<path d="M47.16 41.6773H42.7729V43.8708H47.16V41.6773Z" fill="#333333"/>
<path d="M47.16 15.3548H42.7729V17.5483H47.16V15.3548Z" fill="#333333"/>
<path d="M64.7093 50.4514H62.5158H60.3222H58.1287H55.9352V5.48397C55.9352 2.46004 53.4751 0 50.4514 0H5.48397C2.46004 0 0 2.46004 0 5.48397C0 8.5079 2.46004 10.9679 5.48373 10.9679V68H51.5481V61.4191H55.9352V57.0321H58.1287H60.3222H62.5158H64.7093C66.5233 57.0321 67.9995 55.5559 67.9995 53.7416C67.9995 51.9274 66.5233 50.4514 64.7093 50.4514ZM53.7416 5.48397V50.4517H51.5481V8.77416H50.4512C48.6372 8.77416 47.161 7.298 47.161 5.48374C47.161 3.66947 48.6372 2.19331 50.4512 2.19331C52.2652 2.19331 53.7416 3.66971 53.7416 5.48397ZM2.19354 5.48397C2.19354 3.66994 3.66971 2.19354 5.48373 2.19354H46.0927C45.3961 3.11261 44.9675 4.24459 44.9675 5.48397C44.9675 6.72335 45.3963 7.8551 46.0927 8.7744H5.48397C3.66994 8.77416 2.19354 7.298 2.19354 5.48397ZM7.67751 65.8062V10.9677H49.3548V50.4514H18.4674L8.59657 53.7419L18.4674 57.0323H49.3545V65.8065L7.67751 65.8062ZM15.5326 53.7419L17.5483 53.0694V54.4129L15.5326 53.7419ZM53.7416 59.2256H51.5481V57.0321H53.7416V59.2256ZM55.9352 54.8385H19.7419V52.645H55.9352V54.8385ZM60.3222 54.8385H58.1287V52.645H60.3222V54.8385ZM64.7093 54.8385H62.5158V52.645H64.7093C65.3146 52.645 65.806 53.1375 65.806 53.7419C65.806 54.3462 65.3149 54.8385 64.7093 54.8385Z" fill="#333333"/>
</svg>
