<svg width="220" height="120" viewBox="0 0 220 120" fill="none" xmlns="http://www.w3.org/2000/svg">
<g clip-path="url(#clip0)">
<path d="M85.7388 47.1465C98.8493 47.1465 109.478 36.5924 109.478 23.5733C109.478 10.5541 98.8493 0 85.7388 0C72.6282 0 62 10.5541 62 23.5733C62 36.5924 72.6282 47.1465 85.7388 47.1465Z" fill="#20354D"/>
<path d="M78.0408 48.2386C80.2403 48.2386 82.0168 50.0092 82.0168 52.1869V48.2386H76.9736H78.0408Z" fill="#A1887F"/>
<path d="M62.4883 153H117V66.4936C117 59.9864 111.69 54.7135 105.137 54.7135H74.3512C67.7983 54.7135 62.4883 59.9864 62.4883 66.4936V153Z" fill="#64B5F6"/>
<path d="M74.0059 143.301H94.6341V54.6359H88.2764C80.3961 54.6359 74.0059 60.9816 74.0059 68.807V143.301Z" fill="white"/>
<path d="M74.4224 135.365L80.4416 143.301L87.3524 135.365L83.6302 64.3935H80.6304L74.4224 135.365Z" fill="#3E6896"/>
<path d="M81.3006 71.4758L87.7949 66.6811L82.0294 60.9557L77.5068 66.6811L81.3006 71.4758Z" fill="#3E6896"/>
<path d="M76.8499 48.3743H80.93C90.8667 48.3743 98.9227 40.3744 98.9227 30.507V29.6475C98.9227 22.7397 93.2874 17.1436 86.3311 17.1436H84.1381C77.1817 17.1436 71.5464 22.7397 71.5464 29.6475V43.1013C71.5464 46.0157 73.9216 48.3743 76.8499 48.3743Z" fill="#A1887F"/>
<path d="M71.8198 24.717L81.8411 24.6007C84.392 24.5684 86.4743 26.6168 86.4743 29.1499V40.5424C94.5695 40.5424 101.129 34.5004 101.129 27.0562C101.129 19.6056 94.5695 13.5701 86.4743 13.5701C78.3792 13.5572 71.8198 17.2663 71.8198 24.717Z" fill="#20354D"/>
<path d="M82.0166 60.8007L94.6343 55.1012V42.1967H82.0166V60.8007Z" fill="#A1887F"/>
<path d="M69.8932 39.9414H71.5396V34.5392L69.0993 38.5456C68.7284 39.1595 69.1709 39.9414 69.8932 39.9414Z" fill="#A1887F"/>
<path d="M94.6341 46.3129C102.326 35.3147 101.864 26.8236 101.864 26.8236L93.5344 23.1855C87.8079 23.1855 83.2593 24.7364 83.2593 30.423L84.9056 30.6556C83.2593 47.8961 94.6341 46.3129 94.6341 46.3129Z" fill="#20354D"/>
<path d="M82.3289 32.5037H85.7388V23.1855H78.8345V29.0272C78.8345 30.9464 80.3962 32.5037 82.3289 32.5037Z" fill="#20354D"/>
<path d="M82.2588 37.241H84.9463V32.0003H82.2588V37.241Z" fill="#20354D"/>
<path d="M84.9448 40.8526H88.0228C89.7212 40.8526 91.1008 39.4826 91.1008 37.796V35.4051C91.1008 33.7185 89.7212 32.3486 88.0228 32.3486C86.3244 32.3486 84.9448 33.7185 84.9448 35.4051V40.8526Z" fill="#A1887F"/>
<g clip-path="url(#clip1)">
<path d="M9.54356 37.0133C8.08823 30.7421 11.9535 24.4693 18.1768 23.0028C24.4001 21.5362 30.6249 25.4312 32.0802 31.7025C33.5356 37.9738 29.6703 44.2465 23.447 45.7131C17.2237 47.1796 10.9989 43.2846 9.54356 37.0133Z" fill="#FEF1C3"/>
<path d="M-0.000247955 83.8716H9.88063C33.6267 83.8716 52.876 64.4741 52.876 40.545V30.588H23.7679C10.6411 30.588 -0.000247955 41.3114 -0.000247955 54.5393V83.8716Z" fill="#FEF1C3"/>
<path d="M23.8784 48.7861C26.1985 48.7861 28.0776 50.6797 28.0776 53.0177V48.7861H22.7542H23.8784Z" fill="#FFD0C2"/>
<path d="M7.46164 80.6285V174.823H65V80.6285C65 67.2507 54.524 56.3385 41.3972 55.7499C41.028 55.7388 40.6643 55.7221 40.284 55.7221H32.1776C31.7533 55.7221 31.3345 55.7332 30.9101 55.7499C26.529 55.9831 22.4345 57.3548 18.9517 59.5872C12.0466 64.002 7.46164 71.771 7.46164 80.6285Z" fill="#3E6896"/>
<path d="M18.9574 59.5872V114.265C18.9574 120.518 23.9778 125.571 30.1775 125.571C36.3661 125.571 41.3975 120.512 41.3975 114.265V55.7499H30.9104C26.5348 55.9831 22.4403 57.3548 18.9574 59.5872Z" fill="white"/>
<path d="M22.6218 48.9305H26.9258C37.4128 48.9305 45.916 40.3618 45.916 29.7939V28.8721C45.916 21.4751 39.9643 15.4832 32.6295 15.4832H30.3149C22.9745 15.4832 17.0284 21.4807 17.0284 28.8721V43.2828C17.0228 46.4037 19.5303 48.9305 22.6218 48.9305Z" fill="#FFD0C2"/>
<path d="M28.0775 62.2416L41.3916 55.7443V42.3165H28.0775V62.2416Z" fill="#FFD0C2"/>
<path d="M15.8106 40.7338H17.0229V36.7022L15.2264 39.6898C14.9509 40.1452 15.276 40.7338 15.8106 40.7338Z" fill="#FFD0C2"/>
<path d="M41.3916 46.7258C49.5146 34.9418 49.0241 25.8511 49.0241 25.8511L40.2288 21.9583C34.1835 21.9583 29.3836 23.6187 29.3836 29.7106L31.1195 29.9605C29.3836 48.4196 41.3916 46.7258 41.3916 46.7258Z" fill="#FEF1C3"/>
<path d="M34.3875 36.3523H52.8267V32.0818C52.8267 22.6468 45.2328 15 35.8754 15H17.4362V19.2705C17.4362 28.7055 25.0246 36.3523 34.3875 36.3523Z" fill="#FEF1C3"/>
<path d="M18.9574 59.5872V67.4784C18.9574 73.7258 23.9833 78.7848 30.1775 78.7848C36.3771 78.7848 41.3975 73.7202 41.3975 67.4784V55.7499H30.9104C26.5348 55.9831 22.4403 57.3548 18.9574 59.5872Z" fill="#FFD0C2"/>
</g>
<g clip-path="url(#clip2)">
<path d="M178.545 48.4968C180.884 48.4968 182.777 50.4139 182.777 52.7728V48.4968H177.415H178.545Z" fill="#F4AF9A"/>
<path d="M162 161.903H220V68.2556C220 61.2123 214.349 55.5026 207.378 55.5026H174.622C167.651 55.5026 162 61.2123 162 68.2556V161.903Z" fill="#78909C"/>
<path d="M174.255 151.4H196.203V55.4193H189.434C181.049 55.4193 174.255 62.2875 174.255 70.7562V151.4Z" fill="white"/>
<path d="M174.701 142.811L181.103 151.4L188.457 142.811L184.493 65.9843H181.3L174.701 142.811Z" fill="#1AAECB"/>
<path d="M182.794 74.653L188.927 68.4557L182.794 62.2625L177.984 68.4557L182.794 74.653Z" fill="#1AAECB"/>
<path d="M177.282 48.6427H181.622C192.194 48.6427 200.761 39.9865 200.761 29.3048V28.3754C200.761 20.8986 194.764 14.8389 187.364 14.8389H185.029C177.629 14.8389 171.631 20.8986 171.631 28.3754V42.9413C171.635 46.0879 174.164 48.6427 177.282 48.6427Z" fill="#F4AF9A"/>
<path d="M175.039 25.5581C185.43 25.5581 191.807 24.9829 189.489 40.1573C197.47 40.1573 203.938 33.6183 203.938 25.5581C203.938 17.4937 197.47 10.9588 189.489 10.9588C181.511 10.9588 175.039 17.4937 175.039 25.5581Z" fill="#675752"/>
<path d="M182.777 62.0958L196.203 55.9277V41.9536H182.777V62.0958Z" fill="#F4AF9A"/>
<path d="M169.883 40.3574H171.636V34.506L169.037 38.8404C168.637 39.5072 169.111 40.3574 169.883 40.3574Z" fill="#F4AF9A"/>
<path d="M196.204 46.413C204.387 34.506 203.897 25.3164 203.897 25.3164L195.032 21.3779C188.94 21.3779 184.097 23.0533 184.097 29.2089L185.846 29.459C184.097 48.1259 196.204 46.413 196.204 46.413Z" fill="#675752"/>
<path d="M185.892 40.5032H189.167C190.978 40.5032 192.442 39.0195 192.442 37.1941V34.6018C192.442 32.7722 190.973 31.2927 189.167 31.2927C187.356 31.2927 185.892 32.7764 185.892 34.6018V40.5032Z" fill="#F4AF9A"/>
<path d="M179.65 25.558H185.85C185.85 17.8562 179.671 11.6131 172.048 11.6131H165.849C165.849 19.3149 172.028 25.558 179.65 25.558Z" fill="#675752"/>
<path d="M187.694 25.0621L193.807 26.0999C195.069 18.5022 190 11.313 182.48 10.0377L176.367 9C175.105 16.5976 180.178 23.7868 187.694 25.0621Z" fill="#675752"/>
<path d="M183.021 39.6114C184.629 39.6114 185.937 38.2902 185.937 36.6649V27.6127H183.021V39.6114Z" fill="#675752"/>
<path d="M171.636 30.1008H181.89C184.076 30.1008 185.85 28.3087 185.85 26.0999C185.85 23.891 184.076 22.0989 181.89 22.0989H175.645C173.43 22.0989 171.636 23.9119 171.636 26.1499V30.1008Z" fill="#F4AF9A"/>
</g>
</g>
<defs>
<clipPath id="clip0">
<rect width="220" height="120" fill="white"/>
</clipPath>
<clipPath id="clip1">
<rect width="65" height="105" fill="white" transform="matrix(-1 0 0 1 65 15)"/>
</clipPath>
<clipPath id="clip2">
<rect width="58" height="111" fill="white" transform="translate(162 9)"/>
</clipPath>
</defs>
</svg>
