<svg width="111" height="22" viewBox="0 0 111 22" fill="none" xmlns="http://www.w3.org/2000/svg">
<path d="M38.1167 14.0547C38.1167 15.0703 37.7377 15.8672 36.9798 16.4453C36.2219 17.0234 35.1764 17.3125 33.8434 17.3125C32.5103 17.3125 31.4191 17.112 30.5698 16.7109V14.9453C31.1074 15.1901 31.6771 15.3828 32.2792 15.5234C32.8866 15.6641 33.451 15.7344 33.9724 15.7344C34.7357 15.7344 35.2974 15.5938 35.6575 15.3125C36.023 15.0312 36.2058 14.6536 36.2058 14.1797C36.2058 13.7526 36.0392 13.3906 35.7059 13.0938C35.3726 12.7969 34.6846 12.4453 33.6418 12.0391C32.5667 11.6172 31.8088 11.1354 31.3681 10.5938C30.9273 10.0521 30.7069 9.40104 30.7069 8.64062C30.7069 7.6875 31.0563 6.9375 31.7551 6.39062C32.4539 5.84375 33.3918 5.57031 34.569 5.57031C35.6978 5.57031 36.8213 5.8099 37.9393 6.28906L37.3265 7.8125C36.2784 7.38542 35.3431 7.17188 34.5206 7.17188C33.8971 7.17188 33.4241 7.30469 33.1016 7.57031C32.7791 7.83073 32.6178 8.17708 32.6178 8.60938C32.6178 8.90625 32.6823 9.16146 32.8113 9.375C32.9403 9.58333 33.1526 9.78125 33.4483 9.96875C33.7439 10.1562 34.2761 10.4036 35.0447 10.7109C35.9101 11.0599 36.5444 11.3854 36.9476 11.6875C37.3507 11.9896 37.6464 12.3307 37.8345 12.7109C38.0226 13.0911 38.1167 13.5391 38.1167 14.0547Z" fill="black"/>
<path d="M42.0917 17.1562H40.1969V8.51562H42.0917V17.1562ZM40.084 6.22656C40.084 5.89844 40.1754 5.64583 40.3582 5.46875C40.5463 5.29167 40.8124 5.20312 41.1564 5.20312C41.4897 5.20312 41.7477 5.29167 41.9304 5.46875C42.1186 5.64583 42.2126 5.89844 42.2126 6.22656C42.2126 6.53906 42.1186 6.78646 41.9304 6.96875C41.7477 7.14583 41.4897 7.23438 41.1564 7.23438C40.8124 7.23438 40.5463 7.14583 40.3582 6.96875C40.1754 6.78646 40.084 6.53906 40.084 6.22656Z" fill="black"/>
<path d="M48.1308 15.8281C48.5931 15.8281 49.0553 15.7578 49.5176 15.6172V17C49.308 17.0885 49.0365 17.1615 48.7033 17.2188C48.3754 17.2812 48.034 17.3125 47.6793 17.3125C45.8839 17.3125 44.9863 16.3958 44.9863 14.5625V9.90625H43.7688V9.09375L45.075 8.42188L45.72 6.59375H46.8891V8.51562H49.4289V9.90625H46.8891V14.5312C46.8891 14.974 47.002 15.3021 47.2278 15.5156C47.4589 15.724 47.7599 15.8281 48.1308 15.8281Z" fill="black"/>
<path d="M55.202 17.3125C53.8151 17.3125 52.7293 16.9219 51.9445 16.1406C51.1651 15.3542 50.7754 14.2734 50.7754 12.8984C50.7754 11.487 51.1383 10.3776 51.8639 9.57031C52.5896 8.76302 53.5867 8.35938 54.8553 8.35938C56.0324 8.35938 56.9624 8.70573 57.645 9.39844C58.3277 10.0911 58.669 11.0443 58.669 12.2578V13.25H52.7266C52.7535 14.0885 52.9873 14.7344 53.4281 15.1875C53.8689 15.6354 54.4897 15.8594 55.2906 15.8594C55.8174 15.8594 56.3066 15.8125 56.7581 15.7188C57.215 15.6198 57.7041 15.4583 58.2255 15.2344V16.7266C57.7633 16.9401 57.2956 17.0911 56.8226 17.1797C56.3496 17.2682 55.8094 17.3125 55.202 17.3125ZM54.8553 9.75C54.2532 9.75 53.7694 9.9349 53.4039 10.3047C53.0438 10.6745 52.8288 11.2135 52.7589 11.9219H56.8065C56.7957 11.2083 56.6183 10.6693 56.2743 10.3047C55.9303 9.9349 55.4573 9.75 54.8553 9.75Z" fill="black"/>
<path d="M59.9107 21C59.3409 21 58.8679 20.9349 58.4916 20.8047V19.3516C58.8571 19.4453 59.2307 19.4922 59.6124 19.4922C60.4186 19.4922 60.8218 19.0495 60.8218 18.1641V8.51562H62.7166V18.2891C62.7166 19.1797 62.4747 19.8542 61.9909 20.3125C61.5125 20.7708 60.8191 21 59.9107 21ZM60.7089 6.22656C60.7089 5.89844 60.8003 5.64583 60.983 5.46875C61.1712 5.29167 61.4373 5.20312 61.7813 5.20312C62.1145 5.20312 62.3726 5.29167 62.5553 5.46875C62.7434 5.64583 62.8375 5.89844 62.8375 6.22656C62.8375 6.53906 62.7434 6.78646 62.5553 6.96875C62.3726 7.14583 62.1145 7.23438 61.7813 7.23438C61.4373 7.23438 61.1712 7.14583 60.983 6.96875C60.8003 6.78646 60.7089 6.53906 60.7089 6.22656Z" fill="black"/>
<path d="M71.0133 17.1562L70.6343 15.9531H70.5698C70.1398 16.4792 69.7071 16.8385 69.2717 17.0312C68.8363 17.2188 68.2773 17.3125 67.5946 17.3125C66.7185 17.3125 66.0331 17.0833 65.5386 16.625C65.0494 16.1667 64.8049 15.5182 64.8049 14.6797C64.8049 13.7891 65.1462 13.1172 65.8288 12.6641C66.5115 12.2109 67.5516 11.9635 68.9492 11.9219L70.4892 11.875V11.4141C70.4892 10.862 70.3548 10.4505 70.0861 10.1797C69.8227 9.90365 69.4115 9.76562 68.8524 9.76562C68.3955 9.76562 67.9574 9.83073 67.5382 9.96094C67.1189 10.0911 66.7158 10.2448 66.3287 10.4219L65.716 9.10938C66.1997 8.86458 66.7292 8.67969 67.3044 8.55469C67.8795 8.42448 68.4224 8.35938 68.9331 8.35938C70.0672 8.35938 70.9219 8.59896 71.4971 9.07812C72.0776 9.55729 72.3679 10.3099 72.3679 11.3359V17.1562H71.0133ZM68.1913 15.9062C68.8793 15.9062 69.4303 15.7214 69.8442 15.3516C70.2634 14.9766 70.4731 14.4531 70.4731 13.7812V13.0312L69.3281 13.0781C68.4358 13.1094 67.7854 13.2552 67.3769 13.5156C66.9738 13.7708 66.7722 14.1641 66.7722 14.6953C66.7722 15.0807 66.8905 15.3802 67.127 15.5938C67.3635 15.8021 67.7183 15.9062 68.1913 15.9062Z" fill="black"/>
<path d="M79.568 8.35938C80.6807 8.35938 81.5461 8.75 82.1643 9.53125C82.7878 10.3125 83.0996 11.4089 83.0996 12.8203C83.0996 14.237 82.7851 15.3411 82.1562 16.1328C81.5273 16.9193 80.6538 17.3125 79.5358 17.3125C78.407 17.3125 77.5308 16.9193 76.9073 16.1328H76.7783L76.4315 17.1562H75.0125V5H76.9073V7.89062C76.9073 8.10417 76.8965 8.42188 76.875 8.84375C76.8535 9.26562 76.8374 9.53385 76.8266 9.64844H76.9073C77.5093 8.78906 78.3962 8.35938 79.568 8.35938ZM79.0762 9.85938C78.3129 9.85938 77.7619 10.0781 77.4233 10.5156C77.09 10.9479 76.918 11.6745 76.9073 12.6953V12.8203C76.9073 13.8724 77.0793 14.6354 77.4233 15.1094C77.7673 15.5781 78.329 15.8125 79.1084 15.8125C79.7803 15.8125 80.2883 15.5547 80.6323 15.0391C80.9817 14.5234 81.1564 13.7786 81.1564 12.8047C81.1564 10.8411 80.463 9.85938 79.0762 9.85938Z" fill="black"/>
<path d="M89.8563 8.35938C90.9689 8.35938 91.8344 8.75 92.4525 9.53125C93.076 10.3125 93.3878 11.4089 93.3878 12.8203C93.3878 14.237 93.0734 15.3411 92.4444 16.1328C91.8155 16.9193 90.9421 17.3125 89.824 17.3125C88.6952 17.3125 87.819 16.9193 87.1955 16.1328H87.0665L86.7198 17.1562H85.3007V5H87.1955V7.89062C87.1955 8.10417 87.1848 8.42188 87.1633 8.84375C87.1418 9.26562 87.1256 9.53385 87.1149 9.64844H87.1955C87.7975 8.78906 88.6845 8.35938 89.8563 8.35938ZM89.3644 9.85938C88.6011 9.85938 88.0502 10.0781 87.7115 10.5156C87.3783 10.9479 87.2063 11.6745 87.1955 12.6953V12.8203C87.1955 13.8724 87.3675 14.6354 87.7115 15.1094C88.0555 15.5781 88.6173 15.8125 89.3967 15.8125C90.0686 15.8125 90.5765 15.5547 90.9206 15.0391C91.27 14.5234 91.4446 13.7786 91.4446 12.8047C91.4446 10.8411 90.7512 9.85938 89.3644 9.85938Z" fill="black"/>
<path d="M99.4834 17.3125C98.0965 17.3125 97.0107 16.9219 96.2259 16.1406C95.4465 15.3542 95.0568 14.2734 95.0568 12.8984C95.0568 11.487 95.4197 10.3776 96.1453 9.57031C96.871 8.76302 97.8681 8.35938 99.1367 8.35938C100.314 8.35938 101.244 8.70573 101.926 9.39844C102.609 10.0911 102.95 11.0443 102.95 12.2578V13.25H97.008C97.0349 14.0885 97.2687 14.7344 97.7095 15.1875C98.1503 15.6354 98.7711 15.8594 99.572 15.8594C100.099 15.8594 100.588 15.8125 101.039 15.7188C101.496 15.6198 101.986 15.4583 102.507 15.2344V16.7266C102.045 16.9401 101.577 17.0911 101.104 17.1797C100.631 17.2682 100.091 17.3125 99.4834 17.3125ZM99.1367 9.75C98.5346 9.75 98.0508 9.9349 97.6853 10.3047C97.3252 10.6745 97.1102 11.2135 97.0403 11.9219H101.088C101.077 11.2083 100.9 10.6693 100.556 10.3047C100.212 9.9349 99.7387 9.75 99.1367 9.75Z" fill="black"/>
<path d="M109.626 8.35938C110.008 8.35938 110.323 8.38542 110.57 8.4375L110.384 10.1484C110.116 10.0859 109.836 10.0547 109.546 10.0547C108.788 10.0547 108.172 10.2943 107.699 10.7734C107.232 11.2526 106.998 11.875 106.998 12.6406V17.1562H105.103V8.51562H106.587L106.837 10.0391H106.933C107.229 9.52344 107.613 9.11458 108.086 8.8125C108.565 8.51042 109.078 8.35938 109.626 8.35938Z" fill="black"/>
<circle cx="10.0698" cy="11.5" r="6.5" fill="white"/>
<path fill-rule="evenodd" clip-rule="evenodd" d="M0.000488281 10.9649C0.000488281 5.2405 4.65806 0.583252 10.3824 0.583252C16.1067 0.583252 20.7638 5.2405 20.7638 10.9649C20.7638 13.3581 19.9497 15.5649 18.5838 17.323L21.803 21.347H10.4779C10.446 21.3473 10.414 21.3475 10.382 21.3475C10.3499 21.3475 10.3179 21.3473 10.286 21.347H9.86358L9.88084 21.3355C4.38831 21.0731 0.000488281 16.521 0.000488281 10.9649ZM13.1122 12.3809L16.118 10.2059C16.2581 10.1047 16.3492 9.93956 16.3488 9.75305C16.3488 9.44402 16.0983 9.19395 15.7893 9.19395H12.0693L10.9176 5.67248C10.8474 5.44373 10.6345 5.2773 10.3824 5.2773C10.1302 5.2773 9.91737 5.44373 9.84712 5.67248L8.69506 9.19395H4.97461C4.66517 9.19395 4.4151 9.44402 4.4151 9.75305C4.4151 9.93956 4.50626 10.1047 4.64677 10.2059V10.2064L7.65215 12.3809L6.49424 15.9187C6.47584 15.9743 6.4658 16.032 6.4658 16.093C6.4658 16.4025 6.71629 16.653 7.02573 16.653C7.14826 16.653 7.26116 16.6137 7.35316 16.5476L10.382 14.3564L13.4112 16.5476C13.5032 16.6137 13.6157 16.653 13.7382 16.653C14.0472 16.653 14.2981 16.4021 14.2981 16.093C14.2981 16.0328 14.2885 15.9743 14.2701 15.9187L13.1122 12.3809Z" fill="#EF6A23"/>
</svg>
