<svg width="97" height="23" viewBox="0 0 97 23" fill="none" xmlns="http://www.w3.org/2000/svg">
<path d="M29.8335 19.0946H28.0246V9.55484H24.77V7.99904H33.0881V9.55484H29.8335V19.0946Z" fill="black"/>
<path d="M38.8479 10.549C39.2062 10.549 39.5013 10.5743 39.7334 10.6249L39.5594 12.287C39.3071 12.2263 39.0447 12.1959 38.7722 12.1959C38.0608 12.1959 37.483 12.4287 37.039 12.8941C36.6 13.3596 36.3805 13.9642 36.3805 14.708V19.0946H34.6018V10.7008H35.9945L36.2291 12.1807H36.3199C36.5975 11.6798 36.9582 11.2827 37.4023 10.9892C37.8514 10.6958 38.3332 10.549 38.8479 10.549Z" fill="black"/>
<path d="M47.1962 19.0946L46.9465 17.9941H46.8556C46.6084 18.3837 46.2552 18.6898 45.796 18.9124C45.3419 19.1351 44.8222 19.2464 44.2369 19.2464C43.2226 19.2464 42.4658 18.9934 41.9662 18.4874C41.4667 17.9815 41.2169 17.215 41.2169 16.1879V10.7008H43.0107V15.8767C43.0107 16.5193 43.1419 17.0025 43.4043 17.3263C43.6667 17.645 44.0779 17.8044 44.638 17.8044C45.3848 17.8044 45.9323 17.5818 46.2804 17.1365C46.6336 16.6862 46.8102 15.9349 46.8102 14.8825V10.7008H48.5965V19.0946H47.1962Z" fill="black"/>
<path d="M56.7556 16.704C56.7556 17.5236 56.4579 18.1535 55.8625 18.5937C55.2671 19.0288 54.4143 19.2464 53.3042 19.2464C52.1891 19.2464 51.2935 19.0769 50.6173 18.7379V17.1973C51.6013 17.6526 52.5171 17.8803 53.3648 17.8803C54.4597 17.8803 55.0072 17.5489 55.0072 16.8861C55.0072 16.6736 54.9466 16.4965 54.8255 16.3548C54.7044 16.2132 54.5051 16.0665 54.2276 15.9147C53.9501 15.7629 53.5641 15.5909 53.0696 15.3986C52.1058 15.0242 51.4524 14.6498 51.1093 14.2754C50.7712 13.901 50.6022 13.4153 50.6022 12.8182C50.6022 12.0998 50.8898 11.5432 51.465 11.1486C52.0453 10.7489 52.8324 10.549 53.8265 10.549C54.8104 10.549 55.7414 10.7489 56.6193 11.1486L56.0441 12.4919C55.1409 12.1175 54.3815 11.9303 53.7659 11.9303C52.8274 11.9303 52.3581 12.1984 52.3581 12.7348C52.3581 12.9979 52.4792 13.2205 52.7214 13.4026C52.9687 13.5848 53.5035 13.8352 54.326 14.154C55.0173 14.4221 55.5193 14.6675 55.8322 14.8901C56.145 15.1127 56.3771 15.3708 56.5285 15.6642C56.6799 15.9526 56.7556 16.2992 56.7556 16.704Z" fill="black"/>
<path d="M61.8039 17.8044C62.2379 17.8044 62.6718 17.7361 63.1058 17.5995V18.9428C62.909 19.0288 62.6542 19.0996 62.3413 19.1553C62.0335 19.216 61.7131 19.2464 61.3801 19.2464C59.6948 19.2464 58.8521 18.3559 58.8521 16.5749V12.0517H57.7092V11.2624L58.9354 10.6098L59.5409 8.83386H60.6384V10.7008H63.0225V12.0517H60.6384V16.5446C60.6384 16.9746 60.7443 17.2934 60.9562 17.5008C61.1732 17.7032 61.4558 17.8044 61.8039 17.8044Z" fill="black"/>
<path d="M69.0321 19.2464C67.9725 19.2464 67.15 18.8644 66.5647 18.1004H66.4587C66.5294 18.8087 66.5647 19.2388 66.5647 19.3906V22.8285H64.786V10.7008H66.2241C66.2645 10.8577 66.3477 11.2321 66.4739 11.824H66.5647C67.1197 10.974 67.9523 10.549 69.0624 10.549C70.1069 10.549 70.9192 10.9285 71.4995 11.6874C72.0848 12.4464 72.3775 13.5114 72.3775 14.8825C72.3775 16.2537 72.0798 17.3237 71.4844 18.0928C70.894 18.8618 70.0766 19.2464 69.0321 19.2464ZM68.6007 12.0062C67.8943 12.0062 67.3771 12.2136 67.0491 12.6285C66.7262 13.0434 66.5647 13.7062 66.5647 14.6169V14.8825C66.5647 15.9046 66.7262 16.6458 67.0491 17.1062C67.372 17.5615 67.8993 17.7892 68.631 17.7892C69.2465 17.7892 69.7209 17.5362 70.0539 17.0303C70.3869 16.5243 70.5534 15.8034 70.5534 14.8673C70.5534 13.9263 70.3869 13.2154 70.0539 12.7348C69.7259 12.249 69.2415 12.0062 68.6007 12.0062Z" fill="black"/>
<path d="M76.2224 19.0946H74.4438V10.7008H76.2224V19.0946ZM74.3378 8.47716C74.3378 8.15841 74.4236 7.91303 74.5951 7.741C74.7717 7.56898 75.0215 7.48297 75.3444 7.48297C75.6573 7.48297 75.8995 7.56898 76.071 7.741C76.2476 7.91303 76.3359 8.15841 76.3359 8.47716C76.3359 8.78074 76.2476 9.02106 76.071 9.19815C75.8995 9.37017 75.6573 9.45618 75.3444 9.45618C75.0215 9.45618 74.7717 9.37017 74.5951 9.19815C74.4236 9.02106 74.3378 8.78074 74.3378 8.47716Z" fill="black"/>
<path d="M80.5517 19.0946H78.7731V7.28564H80.5517V19.0946Z" fill="black"/>
<path d="M90.5274 14.8825C90.5274 16.2537 90.1767 17.3237 89.4753 18.0928C88.7739 18.8618 87.7976 19.2464 86.5462 19.2464C85.7641 19.2464 85.0728 19.0693 84.4724 18.7151C83.8719 18.361 83.4102 17.8525 83.0873 17.1897C82.7643 16.5269 82.6029 15.7578 82.6029 14.8825C82.6029 13.5215 82.951 12.459 83.6474 11.695C84.3437 10.931 85.3251 10.549 86.5916 10.549C87.8026 10.549 88.7613 10.9412 89.4677 11.7254C90.1742 12.5045 90.5274 13.5569 90.5274 14.8825ZM84.4345 14.8825C84.4345 16.8203 85.1485 17.7892 86.5765 17.7892C87.9893 17.7892 88.6957 16.8203 88.6957 14.8825C88.6957 12.965 87.9843 12.0062 86.5613 12.0062C85.8146 12.0062 85.2721 12.2541 84.9341 12.7499C84.601 13.2458 84.4345 13.9566 84.4345 14.8825Z" fill="black"/>
<path d="M95.6968 17.8044C96.1308 17.8044 96.5647 17.7361 96.9986 17.5995V18.9428C96.8019 19.0288 96.5471 19.0996 96.2342 19.1553C95.9264 19.216 95.606 19.2464 95.273 19.2464C93.5877 19.2464 92.745 18.3559 92.745 16.5749V12.0517H91.6021V11.2624L92.8283 10.6098L93.4338 8.83386H94.5312V10.7008H96.9154V12.0517H94.5312V16.5446C94.5312 16.9746 94.6372 17.2934 94.8491 17.5008C95.0661 17.7032 95.3487 17.8044 95.6968 17.8044Z" fill="black"/>
<g clip-path="url(#clip0)">
<path d="M21.9553 8.49844H13.9489L11.4842 0.885742L9.00499 8.49844L0.998535 8.48386L7.4737 13.1944L4.99447 20.8071L11.4696 16.0965L17.9448 20.8071L15.4802 13.1944L21.9553 8.49844Z" fill="#00B67A"/>
<path d="M16.0345 14.9152L15.4803 13.1943L11.4844 16.0965L16.0345 14.9152Z" fill="#005128"/>
</g>
<defs>
<clipPath id="clip0">
<rect width="21.0286" height="20.1143" fill="white" transform="translate(0.998535 0.885742)"/>
</clipPath>
</defs>
</svg>
