<svg width="57" height="57" viewBox="0 0 57 57" fill="none" xmlns="http://www.w3.org/2000/svg">
<g clip-path="url(#clip0)">
<path d="M41.408 24.6748V13.8877C41.408 13.579 41.2653 13.2937 41.0636 13.068L28.9697 0.36834C28.744 0.130897 28.423 0 28.1025 0H8.92799C5.38811 0 2.56055 2.8867 2.56055 6.42702V42.6848C2.56055 46.2251 5.38811 49.0644 8.92799 49.0644H24.0634C26.9262 53.8163 32.1299 57 38.0577 57C47.0627 57 54.4164 49.6819 54.4164 40.6652C54.4286 32.7887 48.7735 26.2073 41.408 24.6748ZM29.2906 4.17002L37.4045 12.7114H32.1416C30.5735 12.7114 29.2906 11.4168 29.2906 9.84863V4.17002ZM8.92799 46.6882C6.70665 46.6882 4.93671 44.9061 4.93671 42.6848V6.42702C4.93671 4.1935 6.70665 2.37616 8.92799 2.37616H26.9144V9.84863C26.9144 12.7353 29.2549 15.0876 32.1416 15.0876H39.0318V24.3656C38.6757 24.3539 38.3904 24.3182 38.0816 24.3182C33.9355 24.3182 30.1221 25.9103 27.2471 28.4052H12.1596C11.5059 28.4052 10.9715 28.9397 10.9715 29.5928C10.9715 30.2465 11.5059 30.7809 12.1596 30.7809H25.0375C24.1939 31.969 23.4928 33.1571 22.9466 34.4639H12.1596C11.5059 34.4639 10.9715 34.9983 10.9715 35.652C10.9715 36.3051 11.5059 36.84 12.1596 36.84H22.1743C21.8773 38.0281 21.7229 39.3467 21.7229 40.6652C21.7229 42.8035 22.1386 44.9183 22.8871 46.7004H8.92799V46.6882ZM38.0699 54.636C30.3717 54.636 24.1108 48.3751 24.1108 40.6769C24.1108 32.9788 30.3595 26.7179 38.0699 26.7179C45.7798 26.7179 52.0285 32.9788 52.0285 40.6769C52.0285 48.3751 45.768 54.636 38.0699 54.636Z" fill="#1AAECB"/>
<path d="M12.1593 24.8292H24.1936C24.8472 24.8292 25.3817 24.2943 25.3817 23.6411C25.3817 22.9875 24.8472 22.4531 24.1936 22.4531H12.1593C11.5057 22.4531 10.9712 22.9875 10.9712 23.6411C10.9712 24.2943 11.5057 24.8292 12.1593 24.8292Z" fill="#1AAECB"/>
<path d="M38.9133 31.9094C38.6876 31.672 38.3788 31.5293 38.0461 31.5293C37.7135 31.5293 37.4047 31.672 37.179 31.9094L30.2171 39.3819C29.7657 39.8572 29.8013 40.6174 30.2767 41.057C30.752 41.5084 31.5239 41.4728 31.9753 40.9979L36.8937 35.735V48.7078C36.8937 49.3614 37.4282 49.8959 38.0818 49.8959C38.735 49.8959 39.2699 49.3614 39.2699 48.7078V35.735L44.1522 40.9979C44.3901 41.2471 44.6989 41.378 45.0198 41.378C45.3047 41.378 45.5899 41.271 45.8274 41.057C46.3027 40.6056 46.3384 39.8572 45.887 39.3819L38.9133 31.9094Z" fill="#1AAECB"/>
</g>
<defs>
<clipPath id="clip0">
<rect width="57" height="57" fill="white"/>
</clipPath>
</defs>
</svg>
