<svg width="38" height="33" viewBox="0 0 38 33" fill="none" xmlns="http://www.w3.org/2000/svg">
<rect y="5.7854" width="37.9265" height="21.8559" rx="2" fill="white"/>
<path d="M16.3028 20.8554H14.0366L15.4529 12.1511H17.7193L16.3028 20.8554ZM12.1302 12.1511L9.96971 18.138L9.71406 16.8488L9.71429 16.8493L8.95176 12.9349C8.95176 12.9349 8.85956 12.1511 7.87676 12.1511H4.30509L4.26318 12.2985C4.26318 12.2985 5.35541 12.5258 6.63366 13.2934L8.60251 20.8556H10.9637L14.5691 12.1511H12.1302ZM29.9548 20.8554H32.0356L30.2214 12.1509H28.3997C27.5584 12.1509 27.3535 12.7996 27.3535 12.7996L23.9737 20.8554H26.3361L26.8085 19.5625H29.6893L29.9548 20.8554ZM27.4611 17.7764L28.6518 14.5191L29.3217 17.7764H27.4611ZM24.1509 14.2443L24.4743 12.3751C24.4743 12.3751 23.4764 11.9956 22.4361 11.9956C21.3115 11.9956 18.6409 12.4871 18.6409 14.8772C18.6409 17.1259 21.7753 17.1538 21.7753 18.335C21.7753 19.5161 18.9638 19.3045 18.036 18.5597L17.6991 20.5141C17.6991 20.5141 18.711 21.0056 20.257 21.0056C21.8035 21.0056 24.1365 20.2049 24.1365 18.0255C24.1365 15.7624 20.9739 15.5517 20.9739 14.5677C20.9741 13.5835 23.1812 13.71 24.1509 14.2443Z" fill="#2566AF"/>
<path d="M9.71429 16.8488L8.95176 12.9344C8.95176 12.9344 8.85955 12.1506 7.87676 12.1506H4.30509L4.26318 12.298C4.26318 12.298 5.97987 12.6538 7.62647 13.9868C9.20089 15.2608 9.71429 16.8488 9.71429 16.8488Z" fill="#E6A540"/>
</svg>
