<svg width="141" height="34" viewBox="0 0 141 34" fill="none" xmlns="http://www.w3.org/2000/svg">
<g clip-path="url(#clip0)">
<path d="M123.835 11.4458C124.62 11.4458 125.266 11.0316 125.353 10.4964L126.128 1.60102C126.128 0.721792 125.113 0 123.837 0C122.562 0 121.548 0.721789 121.548 1.60117L122.323 10.4964C122.408 11.0314 123.054 11.4458 123.837 11.4458H123.835ZM119.098 14.2243C119.491 13.5352 119.462 12.7607 119.047 12.4166L111.842 7.28773C111.093 6.84749 109.97 7.3774 109.333 8.49928C108.693 9.61974 108.806 10.8711 109.553 11.3115L117.531 15.0811C118.029 15.2687 118.709 14.9076 119.1 14.219L119.098 14.2243ZM128.576 14.2195C128.969 14.9081 129.646 15.2693 130.145 15.0816L138.122 11.312C138.874 10.8718 138.981 9.62022 138.347 8.49976C137.707 7.37899 136.581 6.84796 135.834 7.28821L128.63 12.4171C128.218 12.7607 128.187 13.5358 128.579 14.2247L128.576 14.2195ZM123.835 22.5575C124.62 22.5575 125.266 22.9683 125.353 23.5039L126.128 32.398C126.128 33.28 125.113 34.0002 123.837 34.0002C122.562 34.0002 121.548 33.28 121.548 32.398L122.323 23.5039C122.408 22.9683 123.054 22.5575 123.837 22.5575H123.835ZM128.576 19.7784C128.969 19.0879 129.646 18.7299 130.145 18.9197L138.122 22.6867C138.874 23.1274 138.981 24.3801 138.347 25.5015C137.707 26.6186 136.581 27.1511 135.834 26.7115L128.63 21.5874C128.218 21.2411 128.187 20.4655 128.579 19.777H128.575L128.576 19.7784ZM119.098 19.7775C119.491 20.4655 119.462 21.2411 119.047 21.588L111.842 26.712C111.093 27.1516 109.97 26.6191 109.333 25.502C108.693 24.3806 108.806 23.1279 109.553 22.6872L117.531 18.9202C118.029 18.7304 118.709 19.0884 119.1 19.7791H119.098" fill="#A4AEB6"/>
<path d="M78.3916 21.5712C78.3916 21.8442 78.3677 22.1257 78.294 22.373C77.9884 23.4 76.9407 24.2684 75.6299 24.2684C74.537 24.2684 73.6689 23.6383 73.6689 22.3076C73.6689 20.2709 75.8778 19.7085 78.3922 19.7226L78.3916 21.571V21.5712ZM82.3354 18.0219C82.3354 14.6636 80.9215 11.7085 76.1438 11.7085C73.6913 11.7085 71.7449 12.4076 70.6824 13.0306L71.4606 15.7305C72.4315 15.1084 73.979 14.5934 75.4435 14.5934C77.8669 14.5866 78.2638 15.9862 78.2638 16.8819V17.094C72.9812 17.086 69.6419 18.9424 69.6419 22.724C69.6419 25.0348 71.3427 27.199 74.2992 27.199C76.1158 27.199 77.6374 26.4631 78.548 25.2831H78.6379C78.6379 25.2831 79.2404 27.845 82.5667 26.8648C82.3932 25.7994 82.3361 24.6621 82.3361 23.2946L82.3356 18.0219H82.3354ZM0.0268555 7.13491C0.0268555 7.13491 3.47891 21.4904 4.03015 23.8202C4.67318 26.5396 5.8321 27.5407 9.17187 26.8648L11.3272 17.9649C11.8738 15.7532 12.2395 14.1763 12.5917 11.9288H12.653C12.9002 14.2001 13.251 15.7601 13.7008 17.9722C13.7008 17.9722 14.5777 22.0129 15.0276 24.1344C15.478 26.2554 16.7315 27.5929 20.0033 26.8648L25.1394 7.13428H20.9938L19.2395 15.6651C18.7679 18.1473 18.3403 20.089 18.0104 22.3593H17.9517C17.652 20.109 17.2702 18.2465 16.7913 15.8275L14.9663 7.13428H10.6462L8.69304 15.6083C8.14024 18.1841 7.62185 20.2631 7.29345 22.4579H7.23372C6.89656 20.3912 6.44776 17.7772 5.96205 15.285C5.96205 15.285 4.8025 9.22363 4.39466 7.13428L0.0268555 7.13491ZM32.9811 21.5712C32.9811 21.8442 32.9572 22.1257 32.8825 22.373C32.5775 23.4 31.5292 24.2684 30.2184 24.2684C29.1253 24.2684 28.2585 23.6383 28.2585 22.3076C28.2585 20.2709 30.4667 19.7085 32.9816 19.7226L32.9811 21.571V21.5712ZM36.9245 18.0219C36.9245 14.6636 35.5106 11.7085 30.7338 11.7085C28.2807 11.7085 26.3327 12.4076 25.2709 13.0306L26.0481 15.7305C27.0189 15.1084 28.5664 14.5934 30.0314 14.5934C32.4565 14.5866 32.8534 15.9862 32.8534 16.8819V17.094C27.5686 17.086 24.2308 18.9424 24.2308 22.724C24.2308 25.0348 25.9306 27.199 28.885 27.199C30.7041 27.199 32.2247 26.4631 33.1364 25.2831H33.2252C33.2252 25.2831 33.8295 27.845 37.155 26.8648C36.9811 25.7994 36.9245 24.6621 36.9245 23.2946V18.0219ZM43.5059 22.6766V7.13491H39.5573V26.8654H43.5059V22.6766ZM95.1602 7.13491V21.6897C95.1602 23.6974 95.5332 25.1024 96.3284 25.9622C97.0252 26.714 98.17 27.2006 99.543 27.2006C100.711 27.2006 101.859 26.9745 102.401 26.7705L102.35 23.6399C101.947 23.7399 101.484 23.8208 100.85 23.8208C99.5047 23.8208 99.0548 22.9461 99.0548 21.1446V15.5756H102.493V11.8H99.0548V7.13491H95.1602ZM84.9684 12.0432V26.8654H89.0416V19.2762C89.0416 18.8659 89.066 18.5085 89.1299 18.1816C89.4313 16.591 90.6291 15.5756 92.3498 15.5756C92.8214 15.5756 93.159 15.6277 93.5248 15.6804V11.8C93.2178 11.738 93.0095 11.709 92.6277 11.709C91.1077 11.709 89.3783 12.7043 88.6525 14.8396H88.5424V12.0432H84.9684ZM46.2706 12.0432V26.8654H50.2391V18.1736C50.2391 17.7658 50.2863 17.3344 50.4255 16.9605C50.7543 16.0854 51.5569 15.0605 52.8374 15.0605C54.4395 15.0605 55.1877 16.4344 55.1877 18.4173V26.8643H59.153V18.0667C59.153 17.6775 59.2053 17.2084 59.3187 16.8653C59.6443 15.8692 60.5088 15.0594 61.6994 15.0594C63.3228 15.0594 64.102 16.4092 64.102 18.7431V26.8639H68.07V18.1335C68.07 13.5299 65.7665 11.7075 63.1659 11.7075C62.0153 11.7075 61.1061 12 60.2839 12.5114C59.5935 12.943 58.9742 13.5547 58.4339 14.3587H58.3753C57.7482 12.7613 56.2728 11.7083 54.3501 11.7083C51.8801 11.7083 50.77 12.9791 50.0966 14.0567H50.0375V12.0427H46.2706" fill="#A4AEB6"/>
</g>
<defs>
<clipPath id="clip0">
<rect width="141" height="34" fill="white"/>
</clipPath>
</defs>
</svg>
